<ttFont>
    <TTGlyph name=".notdef" xMin="-16" yMin="-303" xMax="1105" yMax="1513">
      <contour>
        <pt x="348" y="1513" on="1"/>
        <pt x="1105" y="1513" on="1"/>
        <pt x="741" y="-303" on="1"/>
        <pt x="-16" y="-303" on="1"/>
      </contour>
      <contour>
        <pt x="620" y="-151" on="1"/>
        <pt x="923" y="1362" on="1"/>
        <pt x="470" y="1362" on="1"/>
        <pt x="167" y="-151" on="1"/>
      </contour>
    </TTGlyph>
    <TTGlyph name="A" xMin="-36" yMin="0" xMax="881" yMax="1362">
      <contour>
        <pt x="621" y="1362" on="1"/>
        <pt x="778" y="1362" on="1"/>
        <pt x="881" y="0" on="1"/>
        <pt x="713" y="0" on="1"/>
        <pt x="691" y="386" on="1"/>
        <pt x="298" y="386" on="1"/>
        <pt x="115" y="0" on="1"/>
        <pt x="-36" y="0" on="1"/>
      </contour>
      <contour>
        <pt x="683" y="522" on="1"/>
        <pt x="649" y="1129" on="1"/>
        <pt x="362" y="522" on="1"/>
      </contour>
    </TTGlyph>
    <TTGlyph name="A.hex" xMin="-36" yMin="0" xMax="881" yMax="1210">
      <contour>
        <pt x="590" y="1210" on="1"/>
        <pt x="747" y="1210" on="1"/>
        <pt x="881" y="0" on="1"/>
        <pt x="713" y="0" on="1"/>
        <pt x="684" y="310" on="1"/>
        <pt x="273" y="310" on="1"/>
        <pt x="115" y="0" on="1"/>
        <pt x="-36" y="0" on="1"/>
      </contour>
      <contour>
        <pt x="672" y="446" on="1"/>
        <pt x="621" y="990" on="1"/>
        <pt x="343" y="446" on="1"/>
      </contour>
    </TTGlyph>
    <TTGlyph name="Aacute" xMin="-142" yMin="0" xMax="1004" yMax="1870">
      <component glyphName="A" x="-106" y="0" flags="0x0"/>
      <component glyphName="acutecomb.case" x="-106" y="0" flags="0x0"/>
    </TTGlyph>
    <TTGlyph name="Abreve" xMin="-142" yMin="0" xMax="972" yMax="1820">
      <component glyphName="A" x="-106" y="0" flags="0x0"/>
      <component glyphName="uni0306.case" x="-106" y="0" flags="0x0"/>
    </TTGlyph>
    <TTGlyph name="Acircumflex" xMin="-142" yMin="0" xMax="928" yMax="1870">
      <component glyphName="A" x="-106" y="0" flags="0x0"/>
      <component glyphName="uni0302.case" x="-106" y="0" flags="0x0"/>
    </TTGlyph>
    <TTGlyph name="Adieresis" xMin="-142" yMin="0" xMax="958" yMax="1751">
      <component glyphName="A" x="-106" y="0" flags="0x0"/>
      <component glyphName="uni0308.case" x="-106" y="0" flags="0x0"/>
    </TTGlyph>
    <TTGlyph name="Agrave" xMin="-142" yMin="0" xMax="775" yMax="1870">
      <component glyphName="A" x="-106" y="0" flags="0x0"/>
      <component glyphName="gravecomb.case" x="-106" y="0" flags="0x0"/>
    </TTGlyph>
    <TTGlyph name="Amacron" xMin="-142" yMin="0" xMax="953" yMax="1710">
      <component glyphName="A" x="-106" y="0" flags="0x0"/>
      <component glyphName="uni0304.case" x="-106" y="0" flags="0x0"/>
    </TTGlyph>
    <TTGlyph name="Aogonek" xMin="-36" yMin="-303" xMax="886" yMax="1362">
      <contour>
        <pt x="645" y="-303" on="0"/>
        <pt x="556" y="-239" on="0"/>
        <pt x="556" y="-182" on="1"/>
        <pt x="556" y="-168" on="0"/>
        <pt x="559" y="-153" on="1"/>
        <pt x="578" y="-56" on="0"/>
        <pt x="709" y="4" on="1"/>
        <pt x="691" y="386" on="1"/>
        <pt x="298" y="386" on="1"/>
        <pt x="115" y="0" on="1"/>
        <pt x="-36" y="0" on="1"/>
        <pt x="621" y="1362" on="1"/>
        <pt x="778" y="1362" on="1"/>
        <pt x="886" y="-2" on="1"/>
        <pt x="814" y="-20" on="0"/>
        <pt x="730" y="-89" on="0"/>
        <pt x="723" y="-123" on="1"/>
        <pt x="722" y="-130" on="0"/>
        <pt x="721" y="-137" on="1"/>
        <pt x="721" y="-153" on="0"/>
        <pt x="746" y="-166" on="0"/>
        <pt x="777" y="-166" on="1"/>
        <pt x="808" y="-166" on="0"/>
        <pt x="851" y="-156" on="1"/>
        <pt x="855" y="-284" on="1"/>
        <pt x="789" y="-303" on="0"/>
        <pt x="722" y="-303" on="1"/>
      </contour>
      <contour>
        <pt x="683" y="522" on="1"/>
        <pt x="649" y="1129" on="1"/>
        <pt x="362" y="522" on="1"/>
      </contour>
    </TTGlyph>
    <TTGlyph name="Aring" xMin="-142" yMin="0" xMax="898" yMax="1902">
      <component glyphName="A" x="-106" y="0" flags="0x0"/>
      <component glyphName="uni030A.case" x="-106" y="0" flags="0x0"/>
    </TTGlyph>
    <TTGlyph name="Atilde" xMin="-142" yMin="0" xMax="999" yMax="1791">
      <component glyphName="A" x="-106" y="0" flags="0x0"/>
      <component glyphName="tildecomb.case" x="-106" y="0" flags="0x0"/>
    </TTGlyph>
    <TTGlyph name="B" xMin="45" yMin="0" xMax="999" yMax="1362">
      <contour>
        <pt x="318" y="1362" on="1"/>
        <pt x="615" y="1362" on="1"/>
        <pt x="805" y="1362" on="0"/>
        <pt x="999" y="1216" on="0"/>
        <pt x="999" y="1086" on="1"/>
        <pt x="999" y="1043" on="0"/>
        <pt x="991" y="1006" on="1"/>
        <pt x="970" y="897" on="0"/>
        <pt x="830" y="738" on="0"/>
        <pt x="717" y="695" on="1"/>
        <pt x="802" y="662" on="0"/>
        <pt x="896" y="526" on="0"/>
        <pt x="896" y="433" on="1"/>
        <pt x="896" y="395" on="0"/>
        <pt x="887" y="351" on="1"/>
        <pt x="854" y="183" on="0"/>
        <pt x="599" y="0" on="0"/>
        <pt x="379" y="0" on="1"/>
        <pt x="45" y="0" on="1"/>
      </contour>
      <contour>
        <pt x="540" y="132" on="0"/>
        <pt x="712" y="269" on="0"/>
        <pt x="735" y="386" on="1"/>
        <pt x="742" y="418" on="0"/>
        <pt x="742" y="451" on="1"/>
        <pt x="742" y="620" on="0"/>
        <pt x="517" y="620" on="1"/>
        <pt x="321" y="620" on="1"/>
        <pt x="223" y="132" on="1"/>
        <pt x="399" y="132" on="1"/>
      </contour>
      <contour>
        <pt x="637" y="756" on="0"/>
        <pt x="808" y="882" on="0"/>
        <pt x="832" y="1001" on="1"/>
        <pt x="839" y="1040" on="0"/>
        <pt x="839" y="1064" on="1"/>
        <pt x="839" y="1144" on="0"/>
        <pt x="726" y="1229" on="0"/>
        <pt x="603" y="1229" on="1"/>
        <pt x="443" y="1229" on="1"/>
        <pt x="348" y="756" on="1"/>
        <pt x="505" y="756" on="1"/>
      </contour>
    </TTGlyph>
    <TTGlyph name="B.hex" xMin="45" yMin="0" xMax="976" yMax="1210">
      <contour>
        <pt x="287" y="1210" on="1"/>
        <pt x="585" y="1210" on="1"/>
        <pt x="778" y="1210" on="0"/>
        <pt x="976" y="1076" on="0"/>
        <pt x="976" y="957" on="1"/>
        <pt x="976" y="931" on="0"/>
        <pt x="969" y="892" on="1"/>
        <pt x="950" y="798" on="0"/>
        <pt x="819" y="658" on="0"/>
        <pt x="712" y="619" on="1"/>
        <pt x="795" y="588" on="0"/>
        <pt x="887" y="464" on="0"/>
        <pt x="887" y="380" on="1"/>
        <pt x="887" y="346" on="0"/>
        <pt x="880" y="314" on="1"/>
        <pt x="850" y="163" on="0"/>
        <pt x="599" y="0" on="0"/>
        <pt x="379" y="0" on="1"/>
        <pt x="45" y="0" on="1"/>
      </contour>
      <contour>
        <pt x="539" y="132" on="0"/>
        <pt x="708" y="249" on="0"/>
        <pt x="728" y="348" on="1"/>
        <pt x="733" y="376" on="0"/>
        <pt x="733" y="396" on="1"/>
        <pt x="733" y="545" on="0"/>
        <pt x="502" y="545" on="1"/>
        <pt x="306" y="545" on="1"/>
        <pt x="223" y="132" on="1"/>
        <pt x="399" y="132" on="1"/>
      </contour>
      <contour>
        <pt x="622" y="681" on="0"/>
        <pt x="789" y="786" on="0"/>
        <pt x="809" y="887" on="1"/>
        <pt x="814" y="914" on="0"/>
        <pt x="814" y="933" on="1"/>
        <pt x="814" y="1003" on="0"/>
        <pt x="699" y="1078" on="0"/>
        <pt x="573" y="1078" on="1"/>
        <pt x="413" y="1078" on="1"/>
        <pt x="333" y="681" on="1"/>
        <pt x="490" y="681" on="1"/>
      </contour>
    </TTGlyph>
    <TTGlyph name="C" xMin="127" yMin="-21" xMax="1045" yMax="1382">
      <contour>
        <pt x="295" y="-21" on="0"/>
        <pt x="127" y="186" on="0"/>
        <pt x="127" y="395" on="1"/>
        <pt x="127" y="521" on="0"/>
        <pt x="160" y="687" on="1"/>
        <pt x="230" y="1037" on="0"/>
        <pt x="527" y="1382" on="0"/>
        <pt x="747" y="1382" on="1"/>
        <pt x="833" y="1382" on="0"/>
        <pt x="977" y="1319" on="0"/>
        <pt x="1045" y="1264" on="1"/>
        <pt x="969" y="1162" on="1"/>
        <pt x="915" y="1200" on="0"/>
        <pt x="799" y="1246" on="0"/>
        <pt x="724" y="1246" on="1"/>
        <pt x="590" y="1246" on="0"/>
        <pt x="376" y="990" on="0"/>
        <pt x="313" y="675" on="1"/>
        <pt x="280" y="509" on="0"/>
        <pt x="280" y="395" on="1"/>
        <pt x="280" y="250" on="0"/>
        <pt x="386" y="115" on="0"/>
        <pt x="494" y="115" on="1"/>
        <pt x="561" y="115" on="0"/>
        <pt x="682" y="162" on="0"/>
        <pt x="772" y="211" on="1"/>
        <pt x="819" y="101" on="1"/>
        <pt x="746" y="58" on="0"/>
        <pt x="647" y="10" on="0"/>
        <pt x="525" y="-21" on="0"/>
        <pt x="451" y="-21" on="1"/>
      </contour>
    </TTGlyph>
    <TTGlyph name="C.hex" xMin="119" yMin="-21" xMax="1014" yMax="1231">
      <contour>
        <pt x="292" y="-21" on="0"/>
        <pt x="119" y="175" on="0"/>
        <pt x="119" y="371" on="1"/>
        <pt x="119" y="481" on="0"/>
        <pt x="145" y="611" on="1"/>
        <pt x="208" y="924" on="0"/>
        <pt x="497" y="1231" on="0"/>
        <pt x="717" y="1231" on="1"/>
        <pt x="804" y="1231" on="0"/>
        <pt x="947" y="1168" on="0"/>
        <pt x="1014" y="1113" on="1"/>
        <pt x="939" y="1011" on="1"/>
        <pt x="886" y="1049" on="0"/>
        <pt x="768" y="1095" on="0"/>
        <pt x="693" y="1095" on="1"/>
        <pt x="398" y="1095" on="0"/>
        <pt x="298" y="599" on="1"/>
        <pt x="272" y="466" on="0"/>
        <pt x="272" y="376" on="1"/>
        <pt x="272" y="241" on="0"/>
        <pt x="382" y="115" on="0"/>
        <pt x="494" y="115" on="1"/>
        <pt x="561" y="115" on="0"/>
        <pt x="682" y="162" on="0"/>
        <pt x="772" y="211" on="1"/>
        <pt x="819" y="101" on="1"/>
        <pt x="746" y="58" on="0"/>
        <pt x="647" y="10" on="0"/>
        <pt x="525" y="-21" on="0"/>
        <pt x="451" y="-21" on="1"/>
      </contour>
    </TTGlyph>
    <TTGlyph name="Cacute" xMin="21" yMin="-21" xMax="1048" yMax="1870">
      <component glyphName="C" x="-106" y="0" flags="0x0"/>
      <component glyphName="acutecomb.case" x="-62" y="0" flags="0x0"/>
    </TTGlyph>
    <TTGlyph name="Ccaron" xMin="21" yMin="-21" xMax="1051" yMax="1870">
      <component glyphName="C" x="-106" y="0" flags="0x0"/>
      <component glyphName="uni030C.case" x="-62" y="0" flags="0x0"/>
    </TTGlyph>
    <TTGlyph name="Ccedilla" xMin="127" yMin="-303" xMax="1045" yMax="1382">
      <contour>
        <pt x="295" y="-21" on="0"/>
        <pt x="127" y="186" on="0"/>
        <pt x="127" y="395" on="1"/>
        <pt x="127" y="521" on="0"/>
        <pt x="160" y="687" on="1"/>
        <pt x="230" y="1037" on="0"/>
        <pt x="527" y="1382" on="0"/>
        <pt x="747" y="1382" on="1"/>
        <pt x="833" y="1382" on="0"/>
        <pt x="977" y="1319" on="0"/>
        <pt x="1045" y="1264" on="1"/>
        <pt x="969" y="1162" on="1"/>
        <pt x="915" y="1200" on="0"/>
        <pt x="799" y="1246" on="0"/>
        <pt x="724" y="1246" on="1"/>
        <pt x="590" y="1246" on="0"/>
        <pt x="376" y="990" on="0"/>
        <pt x="313" y="675" on="1"/>
        <pt x="280" y="509" on="0"/>
        <pt x="280" y="395" on="1"/>
        <pt x="280" y="250" on="0"/>
        <pt x="386" y="115" on="0"/>
        <pt x="494" y="115" on="1"/>
        <pt x="561" y="115" on="0"/>
        <pt x="682" y="162" on="0"/>
        <pt x="772" y="211" on="1"/>
        <pt x="819" y="101" on="1"/>
        <pt x="753" y="63" on="0"/>
        <pt x="667" y="18" on="0"/>
        <pt x="617" y="0" on="1"/>
        <pt x="615" y="-54" on="0"/>
        <pt x="608" y="-89" on="1"/>
        <pt x="587" y="-197" on="0"/>
        <pt x="438" y="-303" on="0"/>
        <pt x="333" y="-303" on="1"/>
        <pt x="276" y="-303" on="0"/>
        <pt x="211" y="-285" on="1"/>
        <pt x="241" y="-162" on="1"/>
        <pt x="268" y="-166" on="0"/>
        <pt x="319" y="-166" on="1"/>
        <pt x="452" y="-166" on="0"/>
        <pt x="477" y="-45" on="1"/>
        <pt x="486" y="-21" on="1"/>
        <pt x="451" y="-21" on="1"/>
      </contour>
    </TTGlyph>
    <TTGlyph name="Ccircumflex" xMin="21" yMin="-21" xMax="972" yMax="1870">
      <component glyphName="C" x="-106" y="0" flags="0x0"/>
      <component glyphName="uni0302.case" x="-62" y="0" flags="0x0"/>
    </TTGlyph>
    <TTGlyph name="Cdotaccent" xMin="21" yMin="-21" xMax="939" yMax="1842">
      <component glyphName="C" x="-106" y="0" flags="0x0"/>
      <component glyphName="uni0307" x="-1" y="303" flags="0x4"/>
    </TTGlyph>
    <TTGlyph name="D" xMin="45" yMin="0" xMax="1012" yMax="1362">
      <contour>
        <pt x="1012" y="1362" on="0"/>
        <pt x="1012" y="942" on="1"/>
        <pt x="1012" y="827" on="0"/>
        <pt x="983" y="679" on="1"/>
        <pt x="938" y="456" on="0"/>
        <pt x="762" y="152" on="0"/>
        <pt x="522" y="0" on="0"/>
        <pt x="379" y="0" on="1"/>
        <pt x="45" y="0" on="1"/>
        <pt x="318" y="1362" on="1"/>
        <pt x="630" y="1362" on="1"/>
      </contour>
      <contour>
        <pt x="442" y="1225" on="1"/>
        <pt x="224" y="136" on="1"/>
        <pt x="404" y="136" on="1"/>
        <pt x="554" y="136" on="0"/>
        <pt x="767" y="393" on="0"/>
        <pt x="825" y="685" on="1"/>
        <pt x="856" y="840" on="0"/>
        <pt x="856" y="949" on="1"/>
        <pt x="856" y="1095" on="0"/>
        <pt x="740" y="1225" on="0"/>
        <pt x="621" y="1225" on="1"/>
      </contour>
    </TTGlyph>
    <TTGlyph name="D.hex" xMin="45" yMin="0" xMax="992" yMax="1210">
      <contour>
        <pt x="992" y="1210" on="0"/>
        <pt x="992" y="818" on="1"/>
        <pt x="992" y="722" on="0"/>
        <pt x="968" y="603" on="1"/>
        <pt x="928" y="405" on="0"/>
        <pt x="759" y="134" on="0"/>
        <pt x="522" y="0" on="0"/>
        <pt x="379" y="0" on="1"/>
        <pt x="45" y="0" on="1"/>
        <pt x="287" y="1210" on="1"/>
        <pt x="600" y="1210" on="1"/>
      </contour>
      <contour>
        <pt x="412" y="1074" on="1"/>
        <pt x="224" y="136" on="1"/>
        <pt x="404" y="136" on="1"/>
        <pt x="554" y="136" on="0"/>
        <pt x="760" y="358" on="0"/>
        <pt x="810" y="609" on="1"/>
        <pt x="834" y="732" on="0"/>
        <pt x="834" y="818" on="1"/>
        <pt x="834" y="955" on="0"/>
        <pt x="714" y="1074" on="0"/>
        <pt x="591" y="1074" on="1"/>
      </contour>
    </TTGlyph>
    <TTGlyph name="Dcaron" xMin="-61" yMin="0" xMax="992" yMax="1870">
      <component glyphName="D" x="-106" y="0" flags="0x0"/>
      <component glyphName="uni030C.case" x="-121" y="0" flags="0x0"/>
    </TTGlyph>
    <TTGlyph name="Dcroat" xMin="-88" yMin="0" xMax="906" yMax="1362">
      <component glyphName="Eth" x="-106" y="0" flags="0x0"/>
    </TTGlyph>
    <TTGlyph name="E" xMin="68" yMin="0" xMax="1050" yMax="1362">
      <contour>
        <pt x="341" y="1362" on="1"/>
        <pt x="1050" y="1362" on="1"/>
        <pt x="1022" y="1225" on="1"/>
        <pt x="464" y="1225" on="1"/>
        <pt x="370" y="753" on="1"/>
        <pt x="860" y="753" on="1"/>
        <pt x="832" y="616" on="1"/>
        <pt x="342" y="616" on="1"/>
        <pt x="246" y="136" on="1"/>
        <pt x="812" y="136" on="1"/>
        <pt x="785" y="0" on="1"/>
        <pt x="68" y="0" on="1"/>
      </contour>
    </TTGlyph>
    <TTGlyph name="E.hex" xMin="68" yMin="0" xMax="1019" yMax="1210">
      <contour>
        <pt x="310" y="1210" on="1"/>
        <pt x="1019" y="1210" on="1"/>
        <pt x="992" y="1074" on="1"/>
        <pt x="434" y="1074" on="1"/>
        <pt x="355" y="677" on="1"/>
        <pt x="845" y="677" on="1"/>
        <pt x="817" y="541" on="1"/>
        <pt x="327" y="541" on="1"/>
        <pt x="246" y="136" on="1"/>
        <pt x="812" y="136" on="1"/>
        <pt x="785" y="0" on="1"/>
        <pt x="68" y="0" on="1"/>
      </contour>
    </TTGlyph>
    <TTGlyph name="Eacute" xMin="-38" yMin="0" xMax="1014" yMax="1870">
      <component glyphName="E" x="-106" y="0" flags="0x0"/>
      <component glyphName="acutecomb.case" x="-96" y="0" flags="0x0"/>
    </TTGlyph>
    <TTGlyph name="Ebreve" xMin="-38" yMin="0" xMax="982" yMax="1820">
      <component glyphName="E" x="-106" y="0" flags="0x0"/>
      <component glyphName="uni0306.case" x="-96" y="0" flags="0x0"/>
    </TTGlyph>
    <TTGlyph name="Ecaron" xMin="-38" yMin="0" xMax="1017" yMax="1870">
      <component glyphName="E" x="-106" y="0" flags="0x0"/>
      <component glyphName="uni030C.case" x="-96" y="0" flags="0x0"/>
    </TTGlyph>
    <TTGlyph name="Ecircumflex" xMin="-38" yMin="0" xMax="944" yMax="1870">
      <component glyphName="E" x="-106" y="0" flags="0x0"/>
      <component glyphName="uni0302.case" x="-96" y="0" flags="0x0"/>
    </TTGlyph>
    <TTGlyph name="Edieresis" xMin="-38" yMin="0" xMax="968" yMax="1751">
      <component glyphName="E" x="-106" y="0" flags="0x0"/>
      <component glyphName="uni0308.case" x="-96" y="0" flags="0x0"/>
    </TTGlyph>
    <TTGlyph name="Edotaccent" xMin="-38" yMin="0" xMax="944" yMax="1842">
      <component glyphName="E" x="-106" y="0" flags="0x0"/>
      <component glyphName="uni0307" x="-35" y="303" flags="0x4"/>
    </TTGlyph>
    <TTGlyph name="Egrave" xMin="-38" yMin="0" xMax="944" yMax="1870">
      <component glyphName="E" x="-106" y="0" flags="0x0"/>
      <component glyphName="gravecomb.case" x="-96" y="0" flags="0x0"/>
    </TTGlyph>
    <TTGlyph name="Emacron" xMin="-38" yMin="0" xMax="963" yMax="1710">
      <component glyphName="E" x="-106" y="0" flags="0x0"/>
      <component glyphName="uni0304.case" x="-96" y="0" flags="0x0"/>
    </TTGlyph>
    <TTGlyph name="Eogonek" xMin="68" yMin="-303" xMax="1050" yMax="1362">
      <contour>
        <pt x="341" y="1362" on="1"/>
        <pt x="1050" y="1362" on="1"/>
        <pt x="1022" y="1225" on="1"/>
        <pt x="464" y="1225" on="1"/>
        <pt x="370" y="753" on="1"/>
        <pt x="860" y="753" on="1"/>
        <pt x="832" y="616" on="1"/>
        <pt x="342" y="616" on="1"/>
        <pt x="246" y="136" on="1"/>
        <pt x="812" y="136" on="1"/>
        <pt x="790" y="-2" on="1"/>
        <pt x="718" y="-20" on="0"/>
        <pt x="634" y="-89" on="0"/>
        <pt x="627" y="-123" on="1"/>
        <pt x="626" y="-130" on="0"/>
        <pt x="625" y="-137" on="1"/>
        <pt x="625" y="-153" on="0"/>
        <pt x="650" y="-166" on="0"/>
        <pt x="681" y="-166" on="1"/>
        <pt x="712" y="-166" on="0"/>
        <pt x="755" y="-156" on="1"/>
        <pt x="759" y="-284" on="1"/>
        <pt x="693" y="-303" on="0"/>
        <pt x="626" y="-303" on="1"/>
        <pt x="549" y="-303" on="0"/>
        <pt x="460" y="-239" on="0"/>
        <pt x="460" y="-182" on="1"/>
        <pt x="460" y="-168" on="0"/>
        <pt x="463" y="-153" on="1"/>
        <pt x="473" y="-102" on="0"/>
        <pt x="547" y="-27" on="0"/>
        <pt x="610" y="3" on="1"/>
        <pt x="68" y="0" on="1"/>
      </contour>
    </TTGlyph>
    <TTGlyph name="Eth" xMin="18" yMin="0" xMax="1012" yMax="1362">
      <contour>
        <pt x="45" y="756" on="1"/>
        <pt x="196" y="756" on="1"/>
        <pt x="318" y="1362" on="1"/>
        <pt x="630" y="1362" on="1"/>
        <pt x="1012" y="1362" on="0"/>
        <pt x="1012" y="942" on="1"/>
        <pt x="1012" y="827" on="0"/>
        <pt x="983" y="679" on="1"/>
        <pt x="938" y="456" on="0"/>
        <pt x="762" y="152" on="0"/>
        <pt x="522" y="0" on="0"/>
        <pt x="379" y="0" on="1"/>
        <pt x="45" y="0" on="1"/>
        <pt x="169" y="620" on="1"/>
        <pt x="18" y="620" on="1"/>
      </contour>
      <contour>
        <pt x="442" y="1225" on="1"/>
        <pt x="348" y="756" on="1"/>
        <pt x="609" y="756" on="1"/>
        <pt x="582" y="620" on="1"/>
        <pt x="321" y="620" on="1"/>
        <pt x="224" y="136" on="1"/>
        <pt x="404" y="136" on="1"/>
        <pt x="554" y="136" on="0"/>
        <pt x="767" y="393" on="0"/>
        <pt x="825" y="685" on="1"/>
        <pt x="856" y="840" on="0"/>
        <pt x="856" y="949" on="1"/>
        <pt x="856" y="1095" on="0"/>
        <pt x="740" y="1225" on="0"/>
        <pt x="621" y="1225" on="1"/>
      </contour>
    </TTGlyph>
    <TTGlyph name="F" xMin="83" yMin="0" xMax="1075" yMax="1362">
      <contour>
        <pt x="356" y="1362" on="1"/>
        <pt x="1075" y="1362" on="1"/>
        <pt x="1047" y="1225" on="1"/>
        <pt x="479" y="1225" on="1"/>
        <pt x="380" y="730" on="1"/>
        <pt x="796" y="730" on="1"/>
        <pt x="769" y="594" on="1"/>
        <pt x="353" y="594" on="1"/>
        <pt x="234" y="0" on="1"/>
        <pt x="83" y="0" on="1"/>
      </contour>
    </TTGlyph>
    <TTGlyph name="F.hex" xMin="83" yMin="0" xMax="1044" yMax="1210">
      <contour>
        <pt x="325" y="1210" on="1"/>
        <pt x="1044" y="1210" on="1"/>
        <pt x="1017" y="1074" on="1"/>
        <pt x="449" y="1074" on="1"/>
        <pt x="365" y="654" on="1"/>
        <pt x="781" y="654" on="1"/>
        <pt x="754" y="518" on="1"/>
        <pt x="338" y="518" on="1"/>
        <pt x="234" y="0" on="1"/>
        <pt x="83" y="0" on="1"/>
      </contour>
    </TTGlyph>
    <TTGlyph name="G" xMin="128" yMin="-21" xMax="1044" yMax="1382">
      <contour>
        <pt x="303" y="-21" on="0"/>
        <pt x="128" y="190" on="0"/>
        <pt x="128" y="398" on="1"/>
        <pt x="128" y="530" on="0"/>
        <pt x="160" y="687" on="1"/>
        <pt x="300" y="1382" on="0"/>
        <pt x="755" y="1382" on="1"/>
        <pt x="832" y="1382" on="0"/>
        <pt x="973" y="1339" on="0"/>
        <pt x="1044" y="1294" on="1"/>
        <pt x="978" y="1181" on="1"/>
        <pt x="911" y="1216" on="0"/>
        <pt x="798" y="1246" on="0"/>
        <pt x="739" y="1246" on="1"/>
        <pt x="581" y="1246" on="0"/>
        <pt x="371" y="964" on="0"/>
        <pt x="313" y="675" on="1"/>
        <pt x="280" y="510" on="0"/>
        <pt x="280" y="397" on="1"/>
        <pt x="280" y="252" on="0"/>
        <pt x="391" y="115" on="0"/>
        <pt x="508" y="115" on="1"/>
        <pt x="576" y="115" on="0"/>
        <pt x="673" y="140" on="1"/>
        <pt x="744" y="469" on="1"/>
        <pt x="506" y="469" on="1"/>
        <pt x="533" y="605" on="1"/>
        <pt x="923" y="605" on="1"/>
        <pt x="816" y="45" on="1"/>
        <pt x="644" y="-21" on="0"/>
        <pt x="477" y="-21" on="1"/>
      </contour>
    </TTGlyph>
    <TTGlyph name="Gbreve" xMin="22" yMin="-21" xMax="1032" yMax="1896">
      <component glyphName="G" x="-106" y="0" flags="0x0"/>
      <component glyphName="uni0306" x="-1" y="303" flags="0x4"/>
    </TTGlyph>
    <TTGlyph name="Gcaron" xMin="22" yMin="-21" xMax="1051" yMax="1870">
      <component glyphName="G" x="-106" y="0" flags="0x0"/>
      <component glyphName="uni030C.case" x="-62" y="0" flags="0x0"/>
    </TTGlyph>
    <TTGlyph name="Gcircumflex" xMin="22" yMin="-21" xMax="972" yMax="1870">
      <component glyphName="G" x="-106" y="0" flags="0x0"/>
      <component glyphName="uni0302.case" x="-62" y="0" flags="0x0"/>
    </TTGlyph>
    <TTGlyph name="Gdotaccent" xMin="22" yMin="-21" xMax="938" yMax="1842">
      <component glyphName="G" x="-106" y="0" flags="0x0"/>
      <component glyphName="uni0307" x="-1" y="303" flags="0x4"/>
    </TTGlyph>
    <TTGlyph name="H" xMin="45" yMin="0" xMax="1075" yMax="1362">
      <contour>
        <pt x="318" y="1362" on="1"/>
        <pt x="470" y="1362" on="1"/>
        <pt x="348" y="756" on="1"/>
        <pt x="801" y="756" on="1"/>
        <pt x="923" y="1362" on="1"/>
        <pt x="1075" y="1362" on="1"/>
        <pt x="802" y="0" on="1"/>
        <pt x="650" y="0" on="1"/>
        <pt x="774" y="620" on="1"/>
        <pt x="321" y="620" on="1"/>
        <pt x="197" y="0" on="1"/>
        <pt x="45" y="0" on="1"/>
      </contour>
    </TTGlyph>
    <TTGlyph name="Hbar" xMin="45" yMin="0" xMax="1195" yMax="1362">
      <contour>
        <pt x="260" y="1074" on="1"/>
        <pt x="109" y="1074" on="1"/>
        <pt x="136" y="1210" on="1"/>
        <pt x="287" y="1210" on="1"/>
        <pt x="318" y="1362" on="1"/>
        <pt x="470" y="1362" on="1"/>
        <pt x="439" y="1210" on="1"/>
        <pt x="892" y="1210" on="1"/>
        <pt x="923" y="1362" on="1"/>
        <pt x="1075" y="1362" on="1"/>
        <pt x="1044" y="1210" on="1"/>
        <pt x="1195" y="1210" on="1"/>
        <pt x="1168" y="1074" on="1"/>
        <pt x="1017" y="1074" on="1"/>
        <pt x="802" y="0" on="1"/>
        <pt x="650" y="0" on="1"/>
        <pt x="774" y="620" on="1"/>
        <pt x="321" y="620" on="1"/>
        <pt x="197" y="0" on="1"/>
        <pt x="45" y="0" on="1"/>
      </contour>
      <contour>
        <pt x="801" y="756" on="1"/>
        <pt x="865" y="1074" on="1"/>
        <pt x="412" y="1074" on="1"/>
        <pt x="348" y="756" on="1"/>
      </contour>
    </TTGlyph>
    <TTGlyph name="Hcircumflex" xMin="-61" yMin="0" xMax="969" yMax="1870">
      <component glyphName="H" x="-106" y="0" flags="0x0"/>
      <component glyphName="uni0302.case" x="-106" y="0" flags="0x0"/>
    </TTGlyph>
    <TTGlyph name="I" xMin="45" yMin="0" xMax="923" yMax="1362">
      <contour>
        <pt x="69" y="121" on="1"/>
        <pt x="299" y="136" on="1"/>
        <pt x="517" y="1225" on="1"/>
        <pt x="293" y="1241" on="1"/>
        <pt x="318" y="1362" on="1"/>
        <pt x="923" y="1362" on="1"/>
        <pt x="898" y="1241" on="1"/>
        <pt x="668" y="1225" on="1"/>
        <pt x="450" y="136" on="1"/>
        <pt x="674" y="121" on="1"/>
        <pt x="650" y="0" on="1"/>
        <pt x="45" y="0" on="1"/>
      </contour>
    </TTGlyph>
    <TTGlyph name="I.sans" xMin="348" yMin="0" xMax="772" yMax="1362">
      <contour>
        <pt x="621" y="1362" on="1"/>
        <pt x="772" y="1362" on="1"/>
        <pt x="499" y="0" on="1"/>
        <pt x="348" y="0" on="1"/>
      </contour>
    </TTGlyph>
    <TTGlyph name="I.sans.prop" xMin="64" yMin="0" xMax="488" yMax="1362">
      <contour>
        <pt x="337" y="1362" on="1"/>
        <pt x="488" y="1362" on="1"/>
        <pt x="215" y="0" on="1"/>
        <pt x="64" y="0" on="1"/>
      </contour>
    </TTGlyph>
    <TTGlyph name="Iacute" xMin="-61" yMin="0" xMax="929" yMax="1870">
      <component glyphName="I" x="-106" y="0" flags="0x0"/>
      <component glyphName="acutecomb.case" x="-181" y="0" flags="0x0"/>
    </TTGlyph>
    <TTGlyph name="Ibreve" xMin="-61" yMin="0" xMax="897" yMax="1820">
      <component glyphName="I" x="-106" y="0" flags="0x0"/>
      <component glyphName="uni0306.case" x="-181" y="0" flags="0x0"/>
    </TTGlyph>
    <TTGlyph name="Icircumflex" xMin="-61" yMin="0" xMax="853" yMax="1870">
      <component glyphName="I" x="-106" y="0" flags="0x0"/>
      <component glyphName="uni0302.case" x="-181" y="0" flags="0x0"/>
    </TTGlyph>
    <TTGlyph name="Idieresis" xMin="-61" yMin="0" xMax="883" yMax="1751">
      <component glyphName="I" x="-106" y="0" flags="0x0"/>
      <component glyphName="uni0308.case" x="-181" y="0" flags="0x0"/>
    </TTGlyph>
    <TTGlyph name="Idotaccent" xMin="-61" yMin="0" xMax="817" yMax="1842">
      <component glyphName="I" x="-106" y="0" flags="0x0"/>
      <component glyphName="uni0307" x="-120" y="303" flags="0x4"/>
    </TTGlyph>
    <TTGlyph name="Igrave" xMin="-61" yMin="0" xMax="817" yMax="1870">
      <component glyphName="I" x="-106" y="0" flags="0x0"/>
      <component glyphName="gravecomb.case" x="-181" y="0" flags="0x0"/>
    </TTGlyph>
    <TTGlyph name="Imacron" xMin="-61" yMin="0" xMax="878" yMax="1710">
      <component glyphName="I" x="-106" y="0" flags="0x0"/>
      <component glyphName="uni0304.case" x="-181" y="0" flags="0x0"/>
    </TTGlyph>
    <TTGlyph name="Iogonek" xMin="45" yMin="-303" xMax="923" yMax="1362">
      <contour>
        <pt x="69" y="121" on="1"/>
        <pt x="299" y="136" on="1"/>
        <pt x="517" y="1225" on="1"/>
        <pt x="293" y="1241" on="1"/>
        <pt x="318" y="1362" on="1"/>
        <pt x="923" y="1362" on="1"/>
        <pt x="898" y="1241" on="1"/>
        <pt x="668" y="1225" on="1"/>
        <pt x="450" y="136" on="1"/>
        <pt x="674" y="121" on="1"/>
        <pt x="655" y="-2" on="1"/>
        <pt x="583" y="-20" on="0"/>
        <pt x="499" y="-89" on="0"/>
        <pt x="492" y="-123" on="1"/>
        <pt x="491" y="-130" on="0"/>
        <pt x="490" y="-137" on="1"/>
        <pt x="490" y="-153" on="0"/>
        <pt x="515" y="-166" on="0"/>
        <pt x="546" y="-166" on="1"/>
        <pt x="577" y="-166" on="0"/>
        <pt x="620" y="-156" on="1"/>
        <pt x="624" y="-284" on="1"/>
        <pt x="558" y="-303" on="0"/>
        <pt x="491" y="-303" on="1"/>
        <pt x="414" y="-303" on="0"/>
        <pt x="325" y="-239" on="0"/>
        <pt x="325" y="-182" on="1"/>
        <pt x="325" y="-168" on="0"/>
        <pt x="328" y="-153" on="1"/>
        <pt x="338" y="-102" on="0"/>
        <pt x="412" y="-27" on="0"/>
        <pt x="475" y="3" on="1"/>
        <pt x="45" y="0" on="1"/>
      </contour>
    </TTGlyph>
    <TTGlyph name="Itilde" xMin="-61" yMin="0" xMax="924" yMax="1791">
      <component glyphName="I" x="-106" y="0" flags="0x0"/>
      <component glyphName="tildecomb.case" x="-181" y="0" flags="0x0"/>
    </TTGlyph>
    <TTGlyph name="J" xMin="-13" yMin="-23" xMax="939" yMax="1362">
      <contour>
        <pt x="195" y="-23" on="0"/>
        <pt x="44" y="87" on="0"/>
        <pt x="-13" y="194" on="1"/>
        <pt x="99" y="267" on="1"/>
        <pt x="145" y="190" on="0"/>
        <pt x="245" y="113" on="0"/>
        <pt x="318" y="113" on="1"/>
        <pt x="419" y="113" on="0"/>
        <pt x="564" y="252" on="0"/>
        <pt x="590" y="380" on="1"/>
        <pt x="759" y="1225" on="1"/>
        <pt x="336" y="1225" on="1"/>
        <pt x="364" y="1362" on="1"/>
        <pt x="939" y="1362" on="1"/>
        <pt x="742" y="378" on="1"/>
        <pt x="717" y="253" on="0"/>
        <pt x="593" y="72" on="0"/>
        <pt x="414" y="-23" on="0"/>
        <pt x="307" y="-23" on="1"/>
      </contour>
    </TTGlyph>
    <TTGlyph name="Jcircumflex" xMin="-119" yMin="-23" xMax="883" yMax="1870">
      <component glyphName="J" x="-106" y="0" flags="0x0"/>
      <component glyphName="uni0302.case" x="-151" y="0" flags="0x0"/>
    </TTGlyph>
    <TTGlyph name="K" xMin="45" yMin="0" xMax="1061" yMax="1362">
      <contour>
        <pt x="318" y="1362" on="1"/>
        <pt x="470" y="1362" on="1"/>
        <pt x="346" y="744" on="1"/>
        <pt x="887" y="1362" on="1"/>
        <pt x="1061" y="1362" on="1"/>
        <pt x="473" y="708" on="1"/>
        <pt x="819" y="0" on="1"/>
        <pt x="630" y="0" on="1"/>
        <pt x="327" y="648" on="1"/>
        <pt x="197" y="0" on="1"/>
        <pt x="45" y="0" on="1"/>
      </contour>
    </TTGlyph>
    <TTGlyph name="L" xMin="45" yMin="0" xMax="753" yMax="1362">
      <contour>
        <pt x="318" y="1362" on="1"/>
        <pt x="470" y="1362" on="1"/>
        <pt x="224" y="136" on="1"/>
        <pt x="753" y="136" on="1"/>
        <pt x="726" y="0" on="1"/>
        <pt x="45" y="0" on="1"/>
      </contour>
    </TTGlyph>
    <TTGlyph name="Lacute" xMin="-61" yMin="0" xMax="721" yMax="1870">
      <component glyphName="L" x="-106" y="0" flags="0x0"/>
      <component glyphName="acutecomb.case" x="-389" y="0" flags="0x0"/>
    </TTGlyph>
    <TTGlyph name="M" xMin="30" yMin="0" xMax="1298" yMax="1362">
      <contour>
        <pt x="626" y="225" on="1"/>
        <pt x="1084" y="1362" on="1"/>
        <pt x="1298" y="1362" on="1"/>
        <pt x="1119" y="0" on="1"/>
        <pt x="976" y="0" on="1"/>
        <pt x="1122" y="1120" on="1"/>
        <pt x="671" y="0" on="1"/>
        <pt x="478" y="0" on="1"/>
        <pt x="475" y="1119" on="1"/>
        <pt x="174" y="0" on="1"/>
        <pt x="30" y="0" on="1"/>
        <pt x="398" y="1362" on="1"/>
        <pt x="623" y="1362" on="1"/>
      </contour>
    </TTGlyph>
    <TTGlyph name="N" xMin="45" yMin="0" xMax="1075" yMax="1362">
      <contour>
        <pt x="318" y="1362" on="1"/>
        <pt x="487" y="1362" on="1"/>
        <pt x="741" y="393" on="1"/>
        <pt x="935" y="1362" on="1"/>
        <pt x="1075" y="1362" on="1"/>
        <pt x="802" y="0" on="1"/>
        <pt x="677" y="0" on="1"/>
        <pt x="398" y="1063" on="1"/>
        <pt x="185" y="0" on="1"/>
        <pt x="45" y="0" on="1"/>
      </contour>
    </TTGlyph>
    <TTGlyph name="Nacute" xMin="-61" yMin="0" xMax="1004" yMax="1870">
      <component glyphName="N" x="-106" y="0" flags="0x0"/>
      <component glyphName="acutecomb.case" x="-106" y="0" flags="0x0"/>
    </TTGlyph>
    <TTGlyph name="Ncaron" xMin="-61" yMin="0" xMax="1007" yMax="1870">
      <component glyphName="N" x="-106" y="0" flags="0x0"/>
      <component glyphName="uni030C.case" x="-106" y="0" flags="0x0"/>
    </TTGlyph>
    <TTGlyph name="Ntilde" xMin="-61" yMin="0" xMax="999" yMax="1791">
      <component glyphName="N" x="-106" y="0" flags="0x0"/>
      <component glyphName="tildecomb.case" x="-106" y="0" flags="0x0"/>
    </TTGlyph>
    <TTGlyph name="O" xMin="99" yMin="-19" xMax="1021" yMax="1380">
      <contour>
        <pt x="262" y="-19" on="0"/>
        <pt x="99" y="184" on="0"/>
        <pt x="99" y="385" on="1"/>
        <pt x="99" y="518" on="0"/>
        <pt x="133" y="687" on="1"/>
        <pt x="202" y="1030" on="0"/>
        <pt x="485" y="1380" on="0"/>
        <pt x="694" y="1380" on="1"/>
        <pt x="858" y="1380" on="0"/>
        <pt x="1021" y="1182" on="0"/>
        <pt x="1021" y="982" on="1"/>
        <pt x="1021" y="853" on="0"/>
        <pt x="986" y="675" on="1"/>
        <pt x="942" y="454" on="0"/>
        <pt x="782" y="143" on="0"/>
        <pt x="560" y="-19" on="0"/>
        <pt x="425" y="-19" on="1"/>
      </contour>
      <contour>
        <pt x="580" y="113" on="0"/>
        <pt x="771" y="394" on="0"/>
        <pt x="829" y="687" on="1"/>
        <pt x="868" y="881" on="0"/>
        <pt x="868" y="1002" on="1"/>
        <pt x="868" y="1131" on="0"/>
        <pt x="776" y="1248" on="0"/>
        <pt x="678" y="1248" on="1"/>
        <pt x="581" y="1248" on="0"/>
        <pt x="438" y="1131" on="0"/>
        <pt x="331" y="880" on="0"/>
        <pt x="290" y="675" on="1"/>
        <pt x="254" y="494" on="0"/>
        <pt x="254" y="374" on="1"/>
        <pt x="254" y="241" on="0"/>
        <pt x="345" y="113" on="0"/>
        <pt x="440" y="113" on="1"/>
      </contour>
    </TTGlyph>
    <TTGlyph name="Oacute" xMin="-7" yMin="-19" xMax="1004" yMax="1870">
      <component glyphName="O" x="-106" y="0" flags="0x0"/>
      <component glyphName="acutecomb.case" x="-106" y="0" flags="0x0"/>
    </TTGlyph>
    <TTGlyph name="Obreve" xMin="-7" yMin="-19" xMax="972" yMax="1820">
      <component glyphName="O" x="-106" y="0" flags="0x0"/>
      <component glyphName="uni0306.case" x="-106" y="0" flags="0x0"/>
    </TTGlyph>
    <TTGlyph name="Ocircumflex" xMin="-7" yMin="-19" xMax="928" yMax="1870">
      <component glyphName="O" x="-106" y="0" flags="0x0"/>
      <component glyphName="uni0302.case" x="-106" y="0" flags="0x0"/>
    </TTGlyph>
    <TTGlyph name="Odieresis" xMin="-7" yMin="-19" xMax="958" yMax="1751">
      <component glyphName="O" x="-106" y="0" flags="0x0"/>
      <component glyphName="uni0308.case" x="-106" y="0" flags="0x0"/>
    </TTGlyph>
    <TTGlyph name="Ograve" xMin="-7" yMin="-19" xMax="915" yMax="1870">
      <component glyphName="O" x="-106" y="0" flags="0x0"/>
      <component glyphName="gravecomb.case" x="-106" y="0" flags="0x0"/>
    </TTGlyph>
    <TTGlyph name="Omacron" xMin="-7" yMin="-19" xMax="953" yMax="1710">
      <component glyphName="O" x="-106" y="0" flags="0x0"/>
      <component glyphName="uni0304.case" x="-106" y="0" flags="0x0"/>
    </TTGlyph>
    <TTGlyph name="Otilde" xMin="-7" yMin="-19" xMax="999" yMax="1791">
      <component glyphName="O" x="-106" y="0" flags="0x0"/>
      <component glyphName="tildecomb.case" x="-106" y="0" flags="0x0"/>
    </TTGlyph>
    <TTGlyph name="P" xMin="45" yMin="0" xMax="990" yMax="1362">
      <contour>
        <pt x="318" y="1362" on="1"/>
        <pt x="619" y="1362" on="1"/>
        <pt x="803" y="1362" on="0"/>
        <pt x="990" y="1189" on="0"/>
        <pt x="990" y="1035" on="1"/>
        <pt x="990" y="975" on="0"/>
        <pt x="977" y="913" on="1"/>
        <pt x="950" y="778" on="0"/>
        <pt x="810" y="579" on="0"/>
        <pt x="582" y="469" on="0"/>
        <pt x="430" y="469" on="1"/>
        <pt x="367" y="469" on="0"/>
        <pt x="298" y="478" on="1"/>
        <pt x="197" y="0" on="1"/>
        <pt x="45" y="0" on="1"/>
      </contour>
      <contour>
        <pt x="392" y="605" on="0"/>
        <pt x="439" y="605" on="1"/>
        <pt x="611" y="605" on="0"/>
        <pt x="787" y="759" on="0"/>
        <pt x="818" y="917" on="1"/>
        <pt x="830" y="977" on="0"/>
        <pt x="830" y="1026" on="1"/>
        <pt x="830" y="1124" on="0"/>
        <pt x="722" y="1225" on="0"/>
        <pt x="605" y="1225" on="1"/>
        <pt x="442" y="1225" on="1"/>
        <pt x="314" y="611" on="1"/>
      </contour>
    </TTGlyph>
    <TTGlyph name="Q" xMin="99" yMin="-310" xMax="1021" yMax="1380">
      <contour>
        <pt x="470" y="-310" on="0"/>
        <pt x="348" y="-180" on="0"/>
        <pt x="348" y="-50" on="1"/>
        <pt x="348" y="-25" on="0"/>
        <pt x="349" y="-12" on="1"/>
        <pt x="99" y="32" on="0"/>
        <pt x="99" y="387" on="1"/>
        <pt x="99" y="518" on="0"/>
        <pt x="133" y="687" on="1"/>
        <pt x="202" y="1030" on="0"/>
        <pt x="485" y="1380" on="0"/>
        <pt x="694" y="1380" on="1"/>
        <pt x="858" y="1380" on="0"/>
        <pt x="1021" y="1182" on="0"/>
        <pt x="1021" y="982" on="1"/>
        <pt x="1021" y="853" on="0"/>
        <pt x="986" y="675" on="1"/>
        <pt x="925" y="371" on="0"/>
        <pt x="669" y="15" on="0"/>
        <pt x="486" y="-19" on="1"/>
        <pt x="485" y="-27" on="0"/>
        <pt x="485" y="-43" on="1"/>
        <pt x="485" y="-113" on="0"/>
        <pt x="554" y="-174" on="0"/>
        <pt x="629" y="-174" on="1"/>
        <pt x="666" y="-174" on="0"/>
        <pt x="753" y="-162" on="1"/>
        <pt x="757" y="-286" on="1"/>
        <pt x="685" y="-310" on="0"/>
        <pt x="582" y="-310" on="1"/>
      </contour>
      <contour>
        <pt x="580" y="113" on="0"/>
        <pt x="771" y="394" on="0"/>
        <pt x="829" y="687" on="1"/>
        <pt x="868" y="881" on="0"/>
        <pt x="868" y="1002" on="1"/>
        <pt x="868" y="1131" on="0"/>
        <pt x="776" y="1248" on="0"/>
        <pt x="678" y="1248" on="1"/>
        <pt x="581" y="1248" on="0"/>
        <pt x="438" y="1131" on="0"/>
        <pt x="331" y="880" on="0"/>
        <pt x="290" y="675" on="1"/>
        <pt x="254" y="494" on="0"/>
        <pt x="254" y="374" on="1"/>
        <pt x="254" y="241" on="0"/>
        <pt x="345" y="113" on="0"/>
        <pt x="440" y="113" on="1"/>
      </contour>
    </TTGlyph>
    <TTGlyph name="R" xMin="45" yMin="0" xMax="997" yMax="1362">
      <contour>
        <pt x="318" y="1362" on="1"/>
        <pt x="619" y="1362" on="1"/>
        <pt x="806" y="1362" on="0"/>
        <pt x="997" y="1202" on="0"/>
        <pt x="997" y="1060" on="1"/>
        <pt x="997" y="1011" on="0"/>
        <pt x="987" y="962" on="1"/>
        <pt x="956" y="810" on="0"/>
        <pt x="767" y="613" on="0"/>
        <pt x="611" y="584" on="1"/>
        <pt x="834" y="0" on="1"/>
        <pt x="647" y="0" on="1"/>
        <pt x="447" y="567" on="1"/>
        <pt x="311" y="567" on="1"/>
        <pt x="197" y="0" on="1"/>
        <pt x="45" y="0" on="1"/>
      </contour>
      <contour>
        <pt x="776" y="703" on="0"/>
        <pt x="828" y="967" on="1"/>
        <pt x="837" y="1011" on="0"/>
        <pt x="837" y="1048" on="1"/>
        <pt x="837" y="1135" on="0"/>
        <pt x="726" y="1225" on="0"/>
        <pt x="605" y="1225" on="1"/>
        <pt x="442" y="1225" on="1"/>
        <pt x="338" y="703" on="1"/>
        <pt x="507" y="703" on="1"/>
      </contour>
    </TTGlyph>
    <TTGlyph name="Racute" xMin="-61" yMin="0" xMax="970" yMax="1870">
      <component glyphName="R" x="-106" y="0" flags="0x0"/>
      <component glyphName="acutecomb.case" x="-140" y="0" flags="0x0"/>
    </TTGlyph>
    <TTGlyph name="Rcaron" xMin="-61" yMin="0" xMax="973" yMax="1870">
      <component glyphName="R" x="-106" y="0" flags="0x0"/>
      <component glyphName="uni030C.case" x="-140" y="0" flags="0x0"/>
    </TTGlyph>
    <TTGlyph name="S" xMin="0" yMin="-17" xMax="936" yMax="1380">
      <contour>
        <pt x="226" y="-17" on="0"/>
        <pt x="77" y="32" on="0"/>
        <pt x="0" y="84" on="1"/>
        <pt x="64" y="194" on="1"/>
        <pt x="123" y="158" on="0"/>
        <pt x="259" y="119" on="0"/>
        <pt x="318" y="119" on="1"/>
        <pt x="387" y="119" on="0"/>
        <pt x="503" y="171" on="0"/>
        <pt x="580" y="266" on="0"/>
        <pt x="592" y="327" on="1"/>
        <pt x="597" y="354" on="0"/>
        <pt x="597" y="374" on="1"/>
        <pt x="597" y="426" on="0"/>
        <pt x="550" y="516" on="0"/>
        <pt x="480" y="588" on="0"/>
        <pt x="421" y="640" on="1"/>
        <pt x="354" y="699" on="0"/>
        <pt x="273" y="786" on="0"/>
        <pt x="216" y="902" on="0"/>
        <pt x="216" y="973" on="1"/>
        <pt x="216" y="1004" on="0"/>
        <pt x="224" y="1046" on="1"/>
        <pt x="244" y="1143" on="0"/>
        <pt x="359" y="1295" on="0"/>
        <pt x="528" y="1380" on="0"/>
        <pt x="625" y="1380" on="1"/>
        <pt x="703" y="1380" on="0"/>
        <pt x="869" y="1331" on="0"/>
        <pt x="936" y="1289" on="1"/>
        <pt x="869" y="1181" on="1"/>
        <pt x="751" y="1244" on="0"/>
        <pt x="623" y="1244" on="1"/>
        <pt x="566" y="1244" on="0"/>
        <pt x="462" y="1191" on="0"/>
        <pt x="390" y="1100" on="0"/>
        <pt x="379" y="1045" on="1"/>
        <pt x="374" y="1017" on="0"/>
        <pt x="374" y="997" on="1"/>
        <pt x="374" y="944" on="0"/>
        <pt x="420" y="856" on="0"/>
        <pt x="488" y="787" on="0"/>
        <pt x="548" y="735" on="1"/>
        <pt x="616" y="677" on="0"/>
        <pt x="698" y="592" on="0"/>
        <pt x="755" y="474" on="0"/>
        <pt x="755" y="400" on="1"/>
        <pt x="755" y="358" on="0"/>
        <pt x="747" y="319" on="1"/>
        <pt x="727" y="221" on="0"/>
        <pt x="603" y="68" on="0"/>
        <pt x="418" y="-17" on="0"/>
        <pt x="310" y="-17" on="1"/>
      </contour>
    </TTGlyph>
    <TTGlyph name="Sacute" xMin="-106" yMin="-17" xMax="938" yMax="1870">
      <component glyphName="S" x="-106" y="0" flags="0x0"/>
      <component glyphName="acutecomb.case" x="-172" y="0" flags="0x0"/>
    </TTGlyph>
    <TTGlyph name="Scaron" xMin="-106" yMin="-17" xMax="941" yMax="1870">
      <component glyphName="S" x="-106" y="0" flags="0x0"/>
      <component glyphName="uni030C.case" x="-172" y="0" flags="0x0"/>
    </TTGlyph>
    <TTGlyph name="Scedilla" xMin="0" yMin="-303" xMax="936" yMax="1380">
      <contour>
        <pt x="226" y="-17" on="0"/>
        <pt x="77" y="32" on="0"/>
        <pt x="0" y="84" on="1"/>
        <pt x="64" y="194" on="1"/>
        <pt x="123" y="158" on="0"/>
        <pt x="259" y="119" on="0"/>
        <pt x="318" y="119" on="1"/>
        <pt x="387" y="119" on="0"/>
        <pt x="503" y="171" on="0"/>
        <pt x="580" y="266" on="0"/>
        <pt x="592" y="327" on="1"/>
        <pt x="597" y="354" on="0"/>
        <pt x="597" y="374" on="1"/>
        <pt x="597" y="426" on="0"/>
        <pt x="550" y="516" on="0"/>
        <pt x="480" y="588" on="0"/>
        <pt x="421" y="640" on="1"/>
        <pt x="354" y="699" on="0"/>
        <pt x="273" y="786" on="0"/>
        <pt x="216" y="902" on="0"/>
        <pt x="216" y="973" on="1"/>
        <pt x="216" y="1004" on="0"/>
        <pt x="224" y="1046" on="1"/>
        <pt x="244" y="1143" on="0"/>
        <pt x="359" y="1295" on="0"/>
        <pt x="528" y="1380" on="0"/>
        <pt x="625" y="1380" on="1"/>
        <pt x="703" y="1380" on="0"/>
        <pt x="869" y="1331" on="0"/>
        <pt x="936" y="1289" on="1"/>
        <pt x="869" y="1181" on="1"/>
        <pt x="751" y="1244" on="0"/>
        <pt x="623" y="1244" on="1"/>
        <pt x="566" y="1244" on="0"/>
        <pt x="462" y="1191" on="0"/>
        <pt x="390" y="1100" on="0"/>
        <pt x="379" y="1045" on="1"/>
        <pt x="374" y="1017" on="0"/>
        <pt x="374" y="997" on="1"/>
        <pt x="374" y="944" on="0"/>
        <pt x="420" y="856" on="0"/>
        <pt x="488" y="787" on="0"/>
        <pt x="548" y="735" on="1"/>
        <pt x="616" y="677" on="0"/>
        <pt x="698" y="592" on="0"/>
        <pt x="755" y="474" on="0"/>
        <pt x="755" y="400" on="1"/>
        <pt x="755" y="358" on="0"/>
        <pt x="747" y="319" on="1"/>
        <pt x="726" y="213" on="0"/>
        <pt x="585" y="53" on="0"/>
        <pt x="478" y="10" on="1"/>
        <pt x="478" y="-45" on="0"/>
        <pt x="469" y="-89" on="1"/>
        <pt x="448" y="-197" on="0"/>
        <pt x="299" y="-303" on="0"/>
        <pt x="194" y="-303" on="1"/>
        <pt x="137" y="-303" on="0"/>
        <pt x="72" y="-285" on="1"/>
        <pt x="102" y="-162" on="1"/>
        <pt x="129" y="-166" on="0"/>
        <pt x="180" y="-166" on="1"/>
        <pt x="313" y="-166" on="0"/>
        <pt x="338" y="-45" on="1"/>
        <pt x="347" y="-16" on="1"/>
        <pt x="334" y="-17" on="0"/>
        <pt x="310" y="-17" on="1"/>
      </contour>
    </TTGlyph>
    <TTGlyph name="Scircumflex" xMin="-106" yMin="-17" xMax="862" yMax="1870">
      <component glyphName="S" x="-106" y="0" flags="0x0"/>
      <component glyphName="uni0302.case" x="-172" y="0" flags="0x0"/>
    </TTGlyph>
    <TTGlyph name="T" xMin="260" yMin="0" xMax="1105" yMax="1362">
      <contour>
        <pt x="593" y="1225" on="1"/>
        <pt x="260" y="1225" on="1"/>
        <pt x="288" y="1362" on="1"/>
        <pt x="1105" y="1362" on="1"/>
        <pt x="1077" y="1225" on="1"/>
        <pt x="744" y="1225" on="1"/>
        <pt x="499" y="0" on="1"/>
        <pt x="348" y="0" on="1"/>
      </contour>
    </TTGlyph>
    <TTGlyph name="Tcaron" xMin="154" yMin="0" xMax="1007" yMax="1870">
      <component glyphName="T" x="-106" y="0" flags="0x0"/>
      <component glyphName="uni030C.case" x="-106" y="0" flags="0x0"/>
    </TTGlyph>
    <TTGlyph name="Thorn" xMin="45" yMin="0" xMax="945" yMax="1362">
      <contour>
        <pt x="318" y="1362" on="1"/>
        <pt x="470" y="1362" on="1"/>
        <pt x="415" y="1089" on="1"/>
        <pt x="565" y="1089" on="1"/>
        <pt x="753" y="1089" on="0"/>
        <pt x="945" y="934" on="0"/>
        <pt x="945" y="796" on="1"/>
        <pt x="945" y="756" on="0"/>
        <pt x="935" y="703" on="1"/>
        <pt x="911" y="584" on="0"/>
        <pt x="775" y="407" on="0"/>
        <pt x="550" y="310" on="0"/>
        <pt x="398" y="310" on="1"/>
        <pt x="335" y="310" on="0"/>
        <pt x="266" y="319" on="1"/>
        <pt x="197" y="0" on="1"/>
        <pt x="45" y="0" on="1"/>
      </contour>
      <contour>
        <pt x="360" y="446" on="0"/>
        <pt x="407" y="446" on="1"/>
        <pt x="579" y="446" on="0"/>
        <pt x="750" y="576" on="0"/>
        <pt x="777" y="708" on="1"/>
        <pt x="785" y="751" on="0"/>
        <pt x="785" y="782" on="1"/>
        <pt x="785" y="866" on="0"/>
        <pt x="674" y="953" on="0"/>
        <pt x="551" y="953" on="1"/>
        <pt x="388" y="953" on="1"/>
        <pt x="282" y="452" on="1"/>
      </contour>
    </TTGlyph>
    <TTGlyph name="U" xMin="107" yMin="-23" xMax="1069" yMax="1362">
      <contour>
        <pt x="271" y="-23" on="0"/>
        <pt x="107" y="124" on="0"/>
        <pt x="107" y="261" on="1"/>
        <pt x="107" y="313" on="0"/>
        <pt x="119" y="371" on="1"/>
        <pt x="318" y="1362" on="1"/>
        <pt x="470" y="1362" on="1"/>
        <pt x="270" y="363" on="1"/>
        <pt x="260" y="311" on="0"/>
        <pt x="260" y="278" on="1"/>
        <pt x="260" y="196" on="0"/>
        <pt x="352" y="117" on="0"/>
        <pt x="445" y="117" on="1"/>
        <pt x="557" y="117" on="0"/>
        <pt x="708" y="259" on="0"/>
        <pt x="734" y="388" on="1"/>
        <pt x="929" y="1362" on="1"/>
        <pt x="1069" y="1362" on="1"/>
        <pt x="871" y="376" on="1"/>
        <pt x="846" y="252" on="0"/>
        <pt x="722" y="72" on="0"/>
        <pt x="538" y="-23" on="0"/>
        <pt x="424" y="-23" on="1"/>
      </contour>
    </TTGlyph>
    <TTGlyph name="Uacute" xMin="1" yMin="-23" xMax="1014" yMax="1870">
      <component glyphName="U" x="-106" y="0" flags="0x0"/>
      <component glyphName="acutecomb.case" x="-96" y="0" flags="0x0"/>
    </TTGlyph>
    <TTGlyph name="Ubreve" xMin="1" yMin="-23" xMax="982" yMax="1820">
      <component glyphName="U" x="-106" y="0" flags="0x0"/>
      <component glyphName="uni0306.case" x="-96" y="0" flags="0x0"/>
    </TTGlyph>
    <TTGlyph name="Ucircumflex" xMin="1" yMin="-23" xMax="963" yMax="1870">
      <component glyphName="U" x="-106" y="0" flags="0x0"/>
      <component glyphName="uni0302.case" x="-96" y="0" flags="0x0"/>
    </TTGlyph>
    <TTGlyph name="Udieresis" xMin="1" yMin="-23" xMax="968" yMax="1751">
      <component glyphName="U" x="-106" y="0" flags="0x0"/>
      <component glyphName="uni0308.case" x="-96" y="0" flags="0x0"/>
    </TTGlyph>
    <TTGlyph name="Ugrave" xMin="1" yMin="-23" xMax="963" yMax="1870">
      <component glyphName="U" x="-106" y="0" flags="0x0"/>
      <component glyphName="gravecomb.case" x="-96" y="0" flags="0x0"/>
    </TTGlyph>
    <TTGlyph name="Umacron" xMin="1" yMin="-23" xMax="963" yMax="1710">
      <component glyphName="U" x="-106" y="0" flags="0x0"/>
      <component glyphName="uni0304.case" x="-96" y="0" flags="0x0"/>
    </TTGlyph>
    <TTGlyph name="Uogonek" xMin="107" yMin="-303" xMax="1069" yMax="1362">
      <contour>
        <pt x="327" y="-303" on="0"/>
        <pt x="238" y="-239" on="0"/>
        <pt x="238" y="-182" on="1"/>
        <pt x="238" y="-168" on="0"/>
        <pt x="241" y="-153" on="1"/>
        <pt x="250" y="-109" on="0"/>
        <pt x="308" y="-44" on="0"/>
        <pt x="360" y="-19" on="1"/>
        <pt x="237" y="-5" on="0"/>
        <pt x="107" y="140" on="0"/>
        <pt x="107" y="262" on="1"/>
        <pt x="107" y="313" on="0"/>
        <pt x="119" y="371" on="1"/>
        <pt x="318" y="1362" on="1"/>
        <pt x="470" y="1362" on="1"/>
        <pt x="270" y="363" on="1"/>
        <pt x="260" y="311" on="0"/>
        <pt x="260" y="278" on="1"/>
        <pt x="260" y="196" on="0"/>
        <pt x="352" y="117" on="0"/>
        <pt x="445" y="117" on="1"/>
        <pt x="557" y="117" on="0"/>
        <pt x="708" y="259" on="0"/>
        <pt x="734" y="388" on="1"/>
        <pt x="929" y="1362" on="1"/>
        <pt x="1069" y="1362" on="1"/>
        <pt x="871" y="376" on="1"/>
        <pt x="840" y="221" on="0"/>
        <pt x="665" y="20" on="0"/>
        <pt x="534" y="-12" on="1"/>
        <pt x="479" y="-31" on="0"/>
        <pt x="411" y="-94" on="0"/>
        <pt x="405" y="-123" on="1"/>
        <pt x="404" y="-130" on="0"/>
        <pt x="403" y="-137" on="1"/>
        <pt x="403" y="-153" on="0"/>
        <pt x="428" y="-166" on="0"/>
        <pt x="459" y="-166" on="1"/>
        <pt x="490" y="-166" on="0"/>
        <pt x="533" y="-156" on="1"/>
        <pt x="537" y="-284" on="1"/>
        <pt x="471" y="-303" on="0"/>
        <pt x="404" y="-303" on="1"/>
      </contour>
    </TTGlyph>
    <TTGlyph name="Uring" xMin="1" yMin="-23" xMax="963" yMax="1902">
      <component glyphName="U" x="-106" y="0" flags="0x0"/>
      <component glyphName="uni030A.case" x="-96" y="0" flags="0x0"/>
    </TTGlyph>
    <TTGlyph name="Utilde" xMin="1" yMin="-23" xMax="1009" yMax="1791">
      <component glyphName="U" x="-106" y="0" flags="0x0"/>
      <component glyphName="tildecomb.case" x="-96" y="0" flags="0x0"/>
    </TTGlyph>
    <TTGlyph name="V" xMin="245" yMin="0" xMax="1147" yMax="1362">
      <contour>
        <pt x="245" y="1362" on="1"/>
        <pt x="413" y="1362" on="1"/>
        <pt x="469" y="235" on="1"/>
        <pt x="995" y="1362" on="1"/>
        <pt x="1147" y="1362" on="1"/>
        <pt x="497" y="0" on="1"/>
        <pt x="340" y="0" on="1"/>
      </contour>
    </TTGlyph>
    <TTGlyph name="W" xMin="204" yMin="0" xMax="1400" yMax="1362">
      <contour>
        <pt x="782" y="1060" on="1"/>
        <pt x="416" y="0" on="1"/>
        <pt x="204" y="0" on="1"/>
        <pt x="296" y="1362" on="1"/>
        <pt x="439" y="1362" on="1"/>
        <pt x="363" y="231" on="1"/>
        <pt x="753" y="1362" on="1"/>
        <pt x="942" y="1362" on="1"/>
        <pt x="879" y="231" on="1"/>
        <pt x="1256" y="1362" on="1"/>
        <pt x="1400" y="1362" on="1"/>
        <pt x="945" y="0" on="1"/>
        <pt x="722" y="0" on="1"/>
      </contour>
    </TTGlyph>
    <TTGlyph name="Wacute" xMin="98" yMin="0" xMax="1294" yMax="1870">
      <component glyphName="W" x="-106" y="0" flags="0x0"/>
      <component glyphName="acutecomb.case" x="46" y="0" flags="0x0"/>
    </TTGlyph>
    <TTGlyph name="Wcircumflex" xMin="98" yMin="0" xMax="1294" yMax="1870">
      <component glyphName="W" x="-106" y="0" flags="0x0"/>
      <component glyphName="uni0302.case" x="46" y="0" flags="0x0"/>
    </TTGlyph>
    <TTGlyph name="Wdieresis" xMin="98" yMin="0" xMax="1294" yMax="1751">
      <component glyphName="W" x="-106" y="0" flags="0x0"/>
      <component glyphName="uni0308.case" x="46" y="0" flags="0x0"/>
    </TTGlyph>
    <TTGlyph name="Wgrave" xMin="98" yMin="0" xMax="1294" yMax="1870">
      <component glyphName="W" x="-106" y="0" flags="0x0"/>
      <component glyphName="gravecomb.case" x="46" y="0" flags="0x0"/>
    </TTGlyph>
    <TTGlyph name="X" xMin="-34" yMin="0" xMax="1071" yMax="1362">
      <contour>
        <pt x="483" y="561" on="1"/>
        <pt x="125" y="0" on="1"/>
        <pt x="-34" y="0" on="1"/>
        <pt x="439" y="719" on="1"/>
        <pt x="263" y="1362" on="1"/>
        <pt x="432" y="1362" on="1"/>
        <pt x="572" y="849" on="1"/>
        <pt x="912" y="1362" on="1"/>
        <pt x="1071" y="1362" on="1"/>
        <pt x="615" y="695" on="1"/>
        <pt x="805" y="0" on="1"/>
        <pt x="637" y="0" on="1"/>
      </contour>
    </TTGlyph>
    <TTGlyph name="Y" xMin="193" yMin="0" xMax="1060" yMax="1362">
      <contour>
        <pt x="393" y="605" on="1"/>
        <pt x="193" y="1362" on="1"/>
        <pt x="364" y="1362" on="1"/>
        <pt x="510" y="766" on="1"/>
        <pt x="905" y="1362" on="1"/>
        <pt x="1060" y="1362" on="1"/>
        <pt x="544" y="605" on="1"/>
        <pt x="423" y="0" on="1"/>
        <pt x="272" y="0" on="1"/>
      </contour>
    </TTGlyph>
    <TTGlyph name="Yacute" xMin="87" yMin="0" xMax="954" yMax="1870">
      <component glyphName="Y" x="-106" y="0" flags="0x0"/>
      <component glyphName="acutecomb.case" x="-172" y="0" flags="0x0"/>
    </TTGlyph>
    <TTGlyph name="Ycircumflex" xMin="87" yMin="0" xMax="954" yMax="1870">
      <component glyphName="Y" x="-106" y="0" flags="0x0"/>
      <component glyphName="uni0302.case" x="-172" y="0" flags="0x0"/>
    </TTGlyph>
    <TTGlyph name="Ydieresis" xMin="87" yMin="0" xMax="954" yMax="1751">
      <component glyphName="Y" x="-106" y="0" flags="0x0"/>
      <component glyphName="uni0308.case" x="-172" y="0" flags="0x0"/>
    </TTGlyph>
    <TTGlyph name="Ygrave" xMin="87" yMin="0" xMax="954" yMax="1870">
      <component glyphName="Y" x="-106" y="0" flags="0x0"/>
      <component glyphName="gravecomb.case" x="-172" y="0" flags="0x0"/>
    </TTGlyph>
    <TTGlyph name="Z" xMin="19" yMin="0" xMax="950" yMax="1362">
      <contour>
        <pt x="42" y="117" on="1"/>
        <pt x="757" y="1225" on="1"/>
        <pt x="264" y="1225" on="1"/>
        <pt x="292" y="1362" on="1"/>
        <pt x="950" y="1362" on="1"/>
        <pt x="926" y="1244" on="1"/>
        <pt x="210" y="136" on="1"/>
        <pt x="704" y="136" on="1"/>
        <pt x="677" y="0" on="1"/>
        <pt x="19" y="0" on="1"/>
      </contour>
    </TTGlyph>
    <TTGlyph name="Zacute" xMin="-87" yMin="0" xMax="938" yMax="1870">
      <component glyphName="Z" x="-106" y="0" flags="0x0"/>
      <component glyphName="acutecomb.case" x="-172" y="0" flags="0x0"/>
    </TTGlyph>
    <TTGlyph name="Zcaron" xMin="-87" yMin="0" xMax="941" yMax="1870">
      <component glyphName="Z" x="-106" y="0" flags="0x0"/>
      <component glyphName="uni030C.case" x="-172" y="0" flags="0x0"/>
    </TTGlyph>
    <TTGlyph name="Zdotaccent" xMin="-87" yMin="0" xMax="844" yMax="1842">
      <component glyphName="Z" x="-106" y="0" flags="0x0"/>
      <component glyphName="uni0307" x="-111" y="303" flags="0x4"/>
    </TTGlyph>
    <TTGlyph name="a" xMin="-142" yMin="0" xMax="775" yMax="1210">
      <component glyphName="A.hex" x="-106" y="0" flags="0x0"/>
    </TTGlyph>
    <TTGlyph name="aacute" xMin="-248" yMin="0" xMax="989" yMax="1794">
      <component glyphName="a" x="-106" y="0" flags="0x0"/>
      <component glyphName="acutecomb" x="-76" y="151" flags="0x4"/>
    </TTGlyph>
    <TTGlyph name="abreve" xMin="-248" yMin="0" xMax="957" yMax="1744">
      <component glyphName="a" x="-106" y="0" flags="0x0"/>
      <component glyphName="uni0306" x="-76" y="151" flags="0x4"/>
    </TTGlyph>
    <TTGlyph name="acircumflex" xMin="-248" yMin="0" xMax="913" yMax="1794">
      <component glyphName="a" x="-106" y="0" flags="0x0"/>
      <component glyphName="uni0302" x="-76" y="151" flags="0x4"/>
    </TTGlyph>
    <TTGlyph name="acute" xMin="391" yMin="756" xMax="925" yMax="1362">
      <contour>
        <pt x="391" y="756" on="1"/>
        <pt x="651" y="1362" on="1"/>
        <pt x="925" y="1362" on="1"/>
        <pt x="518" y="756" on="1"/>
      </contour>
    </TTGlyph>
    <TTGlyph name="acutecomb" xMin="581" yMin="1248" xMax="1065" yMax="1643">
      <contour>
        <pt x="805" y="1643" on="1"/>
        <pt x="1065" y="1643" on="1"/>
        <pt x="723" y="1248" on="1"/>
        <pt x="581" y="1248" on="1"/>
      </contour>
    </TTGlyph>
    <TTGlyph name="acutecomb.case" xMin="626" yMin="1475" xMax="1110" yMax="1870">
      <contour>
        <pt x="850" y="1870" on="1"/>
        <pt x="1110" y="1870" on="1"/>
        <pt x="768" y="1475" on="1"/>
        <pt x="626" y="1475" on="1"/>
      </contour>
    </TTGlyph>
    <TTGlyph name="adieresis" xMin="-248" yMin="0" xMax="942" yMax="1675">
      <component glyphName="a" x="-106" y="0" flags="0x0"/>
      <component glyphName="uni0308" x="-76" y="151" flags="0x4"/>
    </TTGlyph>
    <TTGlyph name="agrave" xMin="-248" yMin="0" xMax="690" yMax="1794">
      <component glyphName="a" x="-106" y="0" flags="0x0"/>
      <component glyphName="gravecomb" x="-76" y="151" flags="0x4"/>
    </TTGlyph>
    <TTGlyph name="amacron" xMin="-248" yMin="0" xMax="935" yMax="1622">
      <component glyphName="a" x="-106" y="0" flags="0x0"/>
      <component glyphName="uni0304" x="-76" y="151" flags="0x4"/>
    </TTGlyph>
    <TTGlyph name="ampersand" xMin="-11" yMin="-17" xMax="1067" yMax="1377">
      <contour>
        <pt x="232" y="-17" on="0"/>
        <pt x="74" y="47" on="0"/>
        <pt x="-11" y="168" on="0"/>
        <pt x="-11" y="252" on="1"/>
        <pt x="-11" y="285" on="0"/>
        <pt x="-3" y="327" on="1"/>
        <pt x="21" y="445" on="0"/>
        <pt x="162" y="609" on="0"/>
        <pt x="278" y="682" on="1"/>
        <pt x="221" y="796" on="0"/>
        <pt x="221" y="909" on="1"/>
        <pt x="221" y="964" on="0"/>
        <pt x="233" y="1027" on="1"/>
        <pt x="255" y="1137" on="0"/>
        <pt x="374" y="1295" on="0"/>
        <pt x="536" y="1377" on="0"/>
        <pt x="625" y="1377" on="1"/>
        <pt x="707" y="1377" on="0"/>
        <pt x="823" y="1315" on="0"/>
        <pt x="882" y="1207" on="0"/>
        <pt x="882" y="1139" on="1"/>
        <pt x="882" y="1113" on="0"/>
        <pt x="875" y="1074" on="1"/>
        <pt x="856" y="980" on="0"/>
        <pt x="744" y="837" on="0"/>
        <pt x="601" y="737" on="0"/>
        <pt x="485" y="670" on="1"/>
        <pt x="463" y="657" on="1"/>
        <pt x="500" y="601" on="0"/>
        <pt x="574" y="510" on="1"/>
        <pt x="739" y="324" on="1"/>
        <pt x="805" y="409" on="0"/>
        <pt x="897" y="634" on="0"/>
        <pt x="919" y="762" on="1"/>
        <pt x="1067" y="750" on="1"/>
        <pt x="1039" y="590" on="0"/>
        <pt x="917" y="317" on="0"/>
        <pt x="827" y="213" on="1"/>
        <pt x="1006" y="0" on="1"/>
        <pt x="802" y="0" on="1"/>
        <pt x="713" y="107" on="1"/>
        <pt x="549" y="-17" on="0"/>
        <pt x="342" y="-17" on="1"/>
      </contour>
      <contour>
        <pt x="147" y="295" on="0"/>
        <pt x="147" y="274" on="1"/>
        <pt x="147" y="201" on="0"/>
        <pt x="251" y="119" on="0"/>
        <pt x="359" y="119" on="1"/>
        <pt x="502" y="119" on="0"/>
        <pt x="626" y="212" on="1"/>
        <pt x="453" y="431" on="1"/>
        <pt x="410" y="485" on="1"/>
        <pt x="351" y="558" on="0"/>
        <pt x="338" y="572" on="1"/>
        <pt x="263" y="518" on="0"/>
        <pt x="167" y="398" on="0"/>
        <pt x="152" y="323" on="1"/>
      </contour>
      <contour>
        <pt x="373" y="960" on="0"/>
        <pt x="373" y="914" on="1"/>
        <pt x="373" y="833" on="0"/>
        <pt x="408" y="764" on="1"/>
        <pt x="498" y="817" on="0"/>
        <pt x="614" y="902" on="0"/>
        <pt x="701" y="1012" on="0"/>
        <pt x="715" y="1080" on="1"/>
        <pt x="720" y="1107" on="0"/>
        <pt x="720" y="1125" on="1"/>
        <pt x="720" y="1181" on="0"/>
        <pt x="657" y="1244" on="0"/>
        <pt x="602" y="1244" on="1"/>
        <pt x="524" y="1244" on="0"/>
        <pt x="405" y="1121" on="0"/>
        <pt x="383" y="1009" on="1"/>
      </contour>
    </TTGlyph>
    <TTGlyph name="aogonek" xMin="-36" yMin="-303" xMax="886" yMax="1210">
      <contour>
        <pt x="645" y="-303" on="0"/>
        <pt x="556" y="-239" on="0"/>
        <pt x="556" y="-182" on="1"/>
        <pt x="556" y="-168" on="0"/>
        <pt x="559" y="-153" on="1"/>
        <pt x="578" y="-56" on="0"/>
        <pt x="709" y="4" on="1"/>
        <pt x="684" y="310" on="1"/>
        <pt x="273" y="310" on="1"/>
        <pt x="115" y="0" on="1"/>
        <pt x="-36" y="0" on="1"/>
        <pt x="590" y="1210" on="1"/>
        <pt x="747" y="1210" on="1"/>
        <pt x="886" y="-2" on="1"/>
        <pt x="814" y="-20" on="0"/>
        <pt x="730" y="-89" on="0"/>
        <pt x="723" y="-123" on="1"/>
        <pt x="722" y="-130" on="0"/>
        <pt x="721" y="-137" on="1"/>
        <pt x="721" y="-153" on="0"/>
        <pt x="746" y="-166" on="0"/>
        <pt x="777" y="-166" on="1"/>
        <pt x="808" y="-166" on="0"/>
        <pt x="851" y="-156" on="1"/>
        <pt x="855" y="-284" on="1"/>
        <pt x="789" y="-303" on="0"/>
        <pt x="722" y="-303" on="1"/>
      </contour>
      <contour>
        <pt x="672" y="446" on="1"/>
        <pt x="621" y="990" on="1"/>
        <pt x="343" y="446" on="1"/>
      </contour>
    </TTGlyph>
    <TTGlyph name="aring" xMin="-248" yMin="0" xMax="883" yMax="1826">
      <component glyphName="a" x="-106" y="0" flags="0x0"/>
      <component glyphName="uni030A" x="-76" y="151" flags="0x4"/>
    </TTGlyph>
    <TTGlyph name="arrowdown" xMin="35" yMin="-43" xMax="972" yMax="1362">
      <contour>
        <pt x="35" y="399" on="1"/>
        <pt x="138" y="488" on="1"/>
        <pt x="386" y="189" on="1"/>
        <pt x="621" y="1362" on="1"/>
        <pt x="772" y="1362" on="1"/>
        <pt x="537" y="189" on="1"/>
        <pt x="905" y="488" on="1"/>
        <pt x="972" y="399" on="1"/>
        <pt x="452" y="-43" on="1"/>
        <pt x="377" y="-43" on="1"/>
      </contour>
    </TTGlyph>
    <TTGlyph name="arrowleft" xMin="-20" yMin="202" xMax="1101" yMax="1140">
      <contour>
        <pt x="-20" y="643" on="1"/>
        <pt x="-9" y="700" on="1"/>
        <pt x="521" y="1140" on="1"/>
        <pt x="593" y="1055" on="1"/>
        <pt x="225" y="738" on="1"/>
        <pt x="1101" y="738" on="1"/>
        <pt x="1074" y="605" on="1"/>
        <pt x="198" y="605" on="1"/>
        <pt x="439" y="287" on="1"/>
        <pt x="333" y="202" on="1"/>
      </contour>
    </TTGlyph>
    <TTGlyph name="arrowright" xMin="15" yMin="202" xMax="1136" yMax="1140">
      <contour>
        <pt x="522" y="287" on="1"/>
        <pt x="891" y="605" on="1"/>
        <pt x="15" y="605" on="1"/>
        <pt x="42" y="738" on="1"/>
        <pt x="918" y="738" on="1"/>
        <pt x="676" y="1055" on="1"/>
        <pt x="782" y="1140" on="1"/>
        <pt x="1136" y="700" on="1"/>
        <pt x="1125" y="643" on="1"/>
        <pt x="594" y="202" on="1"/>
      </contour>
    </TTGlyph>
    <TTGlyph name="arrowup" xMin="148" yMin="0" xMax="1085" yMax="1405">
      <contour>
        <pt x="583" y="1172" on="1"/>
        <pt x="215" y="874" on="1"/>
        <pt x="148" y="963" on="1"/>
        <pt x="667" y="1405" on="1"/>
        <pt x="742" y="1405" on="1"/>
        <pt x="1085" y="963" on="1"/>
        <pt x="982" y="874" on="1"/>
        <pt x="734" y="1172" on="1"/>
        <pt x="499" y="0" on="1"/>
        <pt x="348" y="0" on="1"/>
      </contour>
    </TTGlyph>
    <TTGlyph name="asciicircum" xMin="110" yMin="303" xMax="866" yMax="1210">
      <contour>
        <pt x="254" y="303" on="1"/>
        <pt x="626" y="1027" on="1"/>
        <pt x="708" y="303" on="1"/>
        <pt x="866" y="303" on="1"/>
        <pt x="745" y="1210" on="1"/>
        <pt x="594" y="1210" on="1"/>
        <pt x="110" y="303" on="1"/>
      </contour>
    </TTGlyph>
    <TTGlyph name="asciitilde" xMin="3" yMin="455" xMax="1121" yMax="906">
      <contour>
        <pt x="39" y="701" on="0"/>
        <pt x="228" y="904" on="0"/>
        <pt x="380" y="904" on="1"/>
        <pt x="452" y="904" on="0"/>
        <pt x="547" y="853" on="0"/>
        <pt x="602" y="781" on="0"/>
        <pt x="634" y="723" on="1"/>
        <pt x="658" y="680" on="0"/>
        <pt x="692" y="631" on="0"/>
        <pt x="741" y="598" on="0"/>
        <pt x="776" y="598" on="1"/>
        <pt x="850" y="598" on="0"/>
        <pt x="955" y="740" on="0"/>
        <pt x="983" y="906" on="1"/>
        <pt x="1121" y="894" on="1"/>
        <pt x="1084" y="662" on="0"/>
        <pt x="891" y="458" on="0"/>
        <pt x="740" y="458" on="1"/>
        <pt x="668" y="458" on="0"/>
        <pt x="573" y="510" on="0"/>
        <pt x="517" y="582" on="0"/>
        <pt x="484" y="640" on="1"/>
        <pt x="461" y="682" on="0"/>
        <pt x="426" y="732" on="0"/>
        <pt x="377" y="764" on="0"/>
        <pt x="343" y="764" on="1"/>
        <pt x="265" y="764" on="0"/>
        <pt x="165" y="622" on="0"/>
        <pt x="140" y="455" on="1"/>
        <pt x="3" y="467" on="1"/>
      </contour>
    </TTGlyph>
    <TTGlyph name="asterisk" xMin="45" yMin="179" xMax="1100" yMax="1184">
      <contour>
        <pt x="124" y="893" on="1"/>
        <pt x="503" y="752" on="1"/>
        <pt x="581" y="1184" on="1"/>
        <pt x="740" y="1184" on="1"/>
        <pt x="646" y="753" on="1"/>
        <pt x="1081" y="894" on="1"/>
        <pt x="1100" y="743" on="1"/>
        <pt x="663" y="618" on="1"/>
        <pt x="854" y="273" on="1"/>
        <pt x="707" y="179" on="1"/>
        <pt x="530" y="533" on="1"/>
        <pt x="212" y="180" on="1"/>
        <pt x="103" y="273" on="1"/>
        <pt x="431" y="617" on="1"/>
        <pt x="45" y="742" on="1"/>
      </contour>
    </TTGlyph>
    <TTGlyph name="at" xMin="99" yMin="-172" xMax="983" yMax="1231">
      <contour>
        <pt x="299" y="-172" on="0"/>
        <pt x="99" y="32" on="0"/>
        <pt x="99" y="251" on="1"/>
        <pt x="99" y="364" on="0"/>
        <pt x="127" y="507" on="1"/>
        <pt x="202" y="879" on="0"/>
        <pt x="476" y="1231" on="0"/>
        <pt x="682" y="1231" on="1"/>
        <pt x="836" y="1231" on="0"/>
        <pt x="983" y="1084" on="0"/>
        <pt x="983" y="955" on="1"/>
        <pt x="983" y="907" on="0"/>
        <pt x="972" y="847" on="1"/>
        <pt x="867" y="299" on="1"/>
        <pt x="813" y="283" on="0"/>
        <pt x="688" y="265" on="0"/>
        <pt x="633" y="265" on="1"/>
        <pt x="530" y="265" on="0"/>
        <pt x="428" y="350" on="0"/>
        <pt x="428" y="442" on="1"/>
        <pt x="428" y="485" on="0"/>
        <pt x="438" y="535" on="1"/>
        <pt x="463" y="661" on="0"/>
        <pt x="599" y="794" on="0"/>
        <pt x="721" y="794" on="1"/>
        <pt x="763" y="794" on="0"/>
        <pt x="803" y="791" on="1"/>
        <pt x="824" y="868" on="1"/>
        <pt x="833" y="915" on="0"/>
        <pt x="833" y="951" on="1"/>
        <pt x="833" y="1029" on="0"/>
        <pt x="747" y="1099" on="0"/>
        <pt x="658" y="1099" on="1"/>
        <pt x="573" y="1099" on="0"/>
        <pt x="437" y="989" on="0"/>
        <pt x="323" y="724" on="0"/>
        <pt x="277" y="495" on="1"/>
        <pt x="248" y="351" on="0"/>
        <pt x="248" y="244" on="1"/>
        <pt x="248" y="92" on="0"/>
        <pt x="375" y="-40" on="0"/>
        <pt x="505" y="-40" on="1"/>
        <pt x="602" y="-40" on="0"/>
        <pt x="747" y="-10" on="1"/>
        <pt x="751" y="-133" on="1"/>
        <pt x="593" y="-172" on="0"/>
        <pt x="481" y="-172" on="1"/>
      </contour>
      <contour>
        <pt x="578" y="478" on="0"/>
        <pt x="578" y="451" on="1"/>
        <pt x="578" y="415" on="0"/>
        <pt x="613" y="393" on="0"/>
        <pt x="657" y="393" on="1"/>
        <pt x="685" y="393" on="0"/>
        <pt x="725" y="400" on="1"/>
        <pt x="783" y="664" on="1"/>
        <pt x="729" y="666" on="1"/>
        <pt x="668" y="666" on="0"/>
        <pt x="602" y="602" on="0"/>
        <pt x="587" y="523" on="1"/>
      </contour>
    </TTGlyph>
    <TTGlyph name="atilde" xMin="-248" yMin="0" xMax="983" yMax="1715">
      <component glyphName="a" x="-106" y="0" flags="0x0"/>
      <component glyphName="tildecomb" x="-76" y="151" flags="0x4"/>
    </TTGlyph>
    <TTGlyph name="b" xMin="-61" yMin="0" xMax="870" yMax="1210">
      <component glyphName="B.hex" x="-106" y="0" flags="0x0"/>
    </TTGlyph>
    <TTGlyph name="backslash" xMin="343" yMin="-303" xMax="746" yMax="1513">
      <contour>
        <pt x="343" y="1513" on="1"/>
        <pt x="503" y="1513" on="1"/>
        <pt x="746" y="-303" on="1"/>
        <pt x="588" y="-303" on="1"/>
      </contour>
    </TTGlyph>
    <TTGlyph name="bar" xMin="454" yMin="-303" xMax="605" yMax="1513">
      <contour>
        <pt x="454" y="1513" on="1"/>
        <pt x="605" y="1513" on="1"/>
        <pt x="605" y="-303" on="1"/>
        <pt x="454" y="-303" on="1"/>
      </contour>
    </TTGlyph>
    <TTGlyph name="block" xMin="-167" yMin="-303" xMax="1256" yMax="1513">
      <contour>
        <pt x="197" y="1513" on="1"/>
        <pt x="1256" y="1513" on="1"/>
        <pt x="892" y="-303" on="1"/>
        <pt x="-167" y="-303" on="1"/>
      </contour>
    </TTGlyph>
    <TTGlyph name="braceleft" xMin="116" yMin="-289" xMax="1095" yMax="1501">
      <contour>
        <pt x="260" y="678" on="0"/>
        <pt x="411" y="727" on="0"/>
        <pt x="491" y="811" on="0"/>
        <pt x="505" y="882" on="1"/>
        <pt x="509" y="901" on="0"/>
        <pt x="518" y="969" on="1"/>
        <pt x="529" y="1054" on="0"/>
        <pt x="537" y="1093" on="1"/>
        <pt x="567" y="1242" on="0"/>
        <pt x="713" y="1411" on="0"/>
        <pt x="932" y="1486" on="0"/>
        <pt x="1095" y="1501" on="1"/>
        <pt x="1094" y="1378" on="1"/>
        <pt x="963" y="1360" on="0"/>
        <pt x="813" y="1310" on="0"/>
        <pt x="710" y="1192" on="0"/>
        <pt x="687" y="1079" on="1"/>
        <pt x="677" y="1032" on="0"/>
        <pt x="670" y="973" on="1"/>
        <pt x="659" y="903" on="0"/>
        <pt x="655" y="885" on="1"/>
        <pt x="638" y="801" on="0"/>
        <pt x="560" y="691" on="0"/>
        <pt x="424" y="623" on="0"/>
        <pt x="318" y="604" on="1"/>
        <pt x="436" y="580" on="0"/>
        <pt x="549" y="474" on="0"/>
        <pt x="549" y="385" on="1"/>
        <pt x="549" y="355" on="0"/>
        <pt x="541" y="313" on="1"/>
        <pt x="537" y="292" on="0"/>
        <pt x="522" y="235" on="1"/>
        <pt x="502" y="159" on="0"/>
        <pt x="495" y="119" on="1"/>
        <pt x="485" y="69" on="0"/>
        <pt x="485" y="27" on="1"/>
        <pt x="485" y="-45" on="0"/>
        <pt x="551" y="-121" on="0"/>
        <pt x="666" y="-154" on="0"/>
        <pt x="774" y="-170" on="1"/>
        <pt x="747" y="-289" on="1"/>
        <pt x="613" y="-276" on="0"/>
        <pt x="433" y="-215" on="0"/>
        <pt x="332" y="-88" on="0"/>
        <pt x="332" y="17" on="1"/>
        <pt x="332" y="68" on="0"/>
        <pt x="344" y="129" on="1"/>
        <pt x="353" y="177" on="0"/>
        <pt x="376" y="258" on="1"/>
        <pt x="393" y="319" on="0"/>
        <pt x="397" y="340" on="1"/>
        <pt x="403" y="370" on="0"/>
        <pt x="403" y="393" on="1"/>
        <pt x="403" y="442" on="0"/>
        <pt x="347" y="501" on="0"/>
        <pt x="227" y="536" on="0"/>
        <pt x="116" y="553" on="1"/>
        <pt x="127" y="659" on="1"/>
      </contour>
    </TTGlyph>
    <TTGlyph name="braceright" xMin="-6" yMin="-291" xMax="973" yMax="1499">
      <contour>
        <pt x="829" y="532" on="0"/>
        <pt x="678" y="483" on="0"/>
        <pt x="598" y="399" on="0"/>
        <pt x="584" y="328" on="1"/>
        <pt x="579" y="307" on="0"/>
        <pt x="571" y="237" on="1"/>
        <pt x="560" y="152" on="0"/>
        <pt x="553" y="117" on="1"/>
        <pt x="523" y="-32" on="0"/>
        <pt x="377" y="-201" on="0"/>
        <pt x="158" y="-276" on="0"/>
        <pt x="-6" y="-291" on="1"/>
        <pt x="-5" y="-168" on="1"/>
        <pt x="126" y="-150" on="0"/>
        <pt x="277" y="-100" on="0"/>
        <pt x="379" y="18" on="0"/>
        <pt x="402" y="131" on="1"/>
        <pt x="412" y="177" on="0"/>
        <pt x="420" y="242" on="1"/>
        <pt x="424" y="263" on="0"/>
        <pt x="430" y="305" on="0"/>
        <pt x="434" y="325" on="1"/>
        <pt x="451" y="409" on="0"/>
        <pt x="529" y="519" on="0"/>
        <pt x="666" y="587" on="0"/>
        <pt x="772" y="606" on="1"/>
        <pt x="654" y="630" on="0"/>
        <pt x="540" y="736" on="0"/>
        <pt x="540" y="825" on="1"/>
        <pt x="540" y="855" on="0"/>
        <pt x="548" y="897" on="1"/>
        <pt x="552" y="918" on="0"/>
        <pt x="567" y="975" on="1"/>
        <pt x="587" y="1051" on="0"/>
        <pt x="594" y="1091" on="1"/>
        <pt x="604" y="1141" on="0"/>
        <pt x="604" y="1183" on="1"/>
        <pt x="604" y="1255" on="0"/>
        <pt x="538" y="1331" on="0"/>
        <pt x="423" y="1364" on="0"/>
        <pt x="315" y="1380" on="1"/>
        <pt x="342" y="1499" on="1"/>
        <pt x="476" y="1486" on="0"/>
        <pt x="656" y="1425" on="0"/>
        <pt x="757" y="1298" on="0"/>
        <pt x="757" y="1193" on="1"/>
        <pt x="757" y="1143" on="0"/>
        <pt x="745" y="1081" on="1"/>
        <pt x="736" y="1033" on="0"/>
        <pt x="713" y="952" on="1"/>
        <pt x="696" y="891" on="0"/>
        <pt x="692" y="870" on="1"/>
        <pt x="686" y="842" on="0"/>
        <pt x="686" y="817" on="1"/>
        <pt x="686" y="768" on="0"/>
        <pt x="742" y="709" on="0"/>
        <pt x="863" y="674" on="0"/>
        <pt x="973" y="657" on="1"/>
        <pt x="962" y="551" on="1"/>
      </contour>
    </TTGlyph>
    <TTGlyph name="bracketleft" xMin="136" yMin="-303" xMax="1105" yMax="1513">
      <contour>
        <pt x="500" y="1513" on="1"/>
        <pt x="1105" y="1513" on="1"/>
        <pt x="1078" y="1380" on="1"/>
        <pt x="624" y="1380" on="1"/>
        <pt x="314" y="-170" on="1"/>
        <pt x="768" y="-170" on="1"/>
        <pt x="741" y="-303" on="1"/>
        <pt x="136" y="-303" on="1"/>
      </contour>
    </TTGlyph>
    <TTGlyph name="bracketright" xMin="-16" yMin="-303" xMax="953" yMax="1513">
      <contour>
        <pt x="11" y="-170" on="1"/>
        <pt x="465" y="-170" on="1"/>
        <pt x="775" y="1380" on="1"/>
        <pt x="321" y="1380" on="1"/>
        <pt x="348" y="1513" on="1"/>
        <pt x="953" y="1513" on="1"/>
        <pt x="589" y="-303" on="1"/>
        <pt x="-16" y="-303" on="1"/>
      </contour>
    </TTGlyph>
    <TTGlyph name="breve" xMin="325" yMin="1244" xMax="927" yMax="1593">
      <component glyphName="uni0306" x="-106" y="0" flags="0x0"/>
    </TTGlyph>
    <TTGlyph name="bullet" xMin="341" yMin="460" xMax="774" yMax="887">
      <contour>
        <pt x="468" y="460" on="0"/>
        <pt x="386" y="506" on="0"/>
        <pt x="341" y="586" on="0"/>
        <pt x="341" y="635" on="1"/>
        <pt x="341" y="658" on="0"/>
        <pt x="345" y="677" on="1"/>
        <pt x="357" y="735" on="0"/>
        <pt x="430" y="831" on="0"/>
        <pt x="537" y="887" on="0"/>
        <pt x="595" y="887" on="1"/>
        <pt x="648" y="887" on="0"/>
        <pt x="729" y="840" on="0"/>
        <pt x="774" y="758" on="0"/>
        <pt x="774" y="708" on="1"/>
        <pt x="774" y="685" on="0"/>
        <pt x="770" y="665" on="1"/>
        <pt x="759" y="607" on="0"/>
        <pt x="686" y="514" on="0"/>
        <pt x="579" y="460" on="0"/>
        <pt x="520" y="460" on="1"/>
      </contour>
    </TTGlyph>
    <TTGlyph name="c" xMin="13" yMin="-21" xMax="908" yMax="1231">
      <component glyphName="C.hex" x="-106" y="0" flags="0x0"/>
    </TTGlyph>
    <TTGlyph name="cacute" xMin="-93" yMin="-21" xMax="1033" yMax="1794">
      <component glyphName="c" x="-106" y="0" flags="0x0"/>
      <component glyphName="acutecomb" x="-32" y="151" flags="0x4"/>
    </TTGlyph>
    <TTGlyph name="caron" xMin="331" yMin="1248" xMax="962" yMax="1643">
      <component glyphName="uni030C" x="-106" y="0" flags="0x0"/>
    </TTGlyph>
    <TTGlyph name="ccaron" xMin="-93" yMin="-21" xMax="1036" yMax="1794">
      <component glyphName="c" x="-106" y="0" flags="0x0"/>
      <component glyphName="uni030C" x="-32" y="151" flags="0x4"/>
    </TTGlyph>
    <TTGlyph name="ccedilla" xMin="119" yMin="-303" xMax="1014" yMax="1231">
      <contour>
        <pt x="292" y="-21" on="0"/>
        <pt x="119" y="175" on="0"/>
        <pt x="119" y="371" on="1"/>
        <pt x="119" y="481" on="0"/>
        <pt x="145" y="611" on="1"/>
        <pt x="208" y="924" on="0"/>
        <pt x="497" y="1231" on="0"/>
        <pt x="717" y="1231" on="1"/>
        <pt x="804" y="1231" on="0"/>
        <pt x="947" y="1168" on="0"/>
        <pt x="1014" y="1113" on="1"/>
        <pt x="939" y="1011" on="1"/>
        <pt x="886" y="1049" on="0"/>
        <pt x="768" y="1095" on="0"/>
        <pt x="693" y="1095" on="1"/>
        <pt x="398" y="1095" on="0"/>
        <pt x="298" y="599" on="1"/>
        <pt x="272" y="466" on="0"/>
        <pt x="272" y="376" on="1"/>
        <pt x="272" y="241" on="0"/>
        <pt x="382" y="115" on="0"/>
        <pt x="494" y="115" on="1"/>
        <pt x="561" y="115" on="0"/>
        <pt x="682" y="162" on="0"/>
        <pt x="772" y="211" on="1"/>
        <pt x="819" y="101" on="1"/>
        <pt x="753" y="63" on="0"/>
        <pt x="667" y="18" on="0"/>
        <pt x="617" y="0" on="1"/>
        <pt x="615" y="-54" on="0"/>
        <pt x="608" y="-89" on="1"/>
        <pt x="587" y="-197" on="0"/>
        <pt x="438" y="-303" on="0"/>
        <pt x="333" y="-303" on="1"/>
        <pt x="276" y="-303" on="0"/>
        <pt x="211" y="-285" on="1"/>
        <pt x="241" y="-162" on="1"/>
        <pt x="268" y="-166" on="0"/>
        <pt x="319" y="-166" on="1"/>
        <pt x="452" y="-166" on="0"/>
        <pt x="477" y="-45" on="1"/>
        <pt x="486" y="-21" on="1"/>
        <pt x="451" y="-21" on="1"/>
      </contour>
    </TTGlyph>
    <TTGlyph name="ccircumflex" xMin="-93" yMin="-21" xMax="957" yMax="1794">
      <component glyphName="c" x="-106" y="0" flags="0x0"/>
      <component glyphName="uni0302" x="-32" y="151" flags="0x4"/>
    </TTGlyph>
    <TTGlyph name="cdotaccent" xMin="-93" yMin="-21" xMax="818" yMax="1690">
      <component glyphName="c" x="-106" y="0" flags="0x0"/>
      <component glyphName="uni0307" x="-32" y="151" flags="0x4"/>
    </TTGlyph>
    <TTGlyph name="cedilla" xMin="105" yMin="-303" xMax="511" yMax="32">
      <component glyphName="uni0327" x="-106" y="0" flags="0x0"/>
    </TTGlyph>
    <TTGlyph name="circumflex" xMin="252" yMin="1248" xMax="883" yMax="1643">
      <component glyphName="uni0302" x="-106" y="0" flags="0x0"/>
    </TTGlyph>
    <TTGlyph name="colon" xMin="172" yMin="-23" xMax="675" yMax="1081">
      <component glyphName="period" x="-106" y="0" flags="0x0"/>
      <component glyphName="period" x="45" y="756" flags="0x4"/>
    </TTGlyph>
    <TTGlyph name="comma" xMin="134" yMin="-303" xMax="668" yMax="303">
      <contour>
        <pt x="134" y="-303" on="1"/>
        <pt x="394" y="303" on="1"/>
        <pt x="668" y="303" on="1"/>
        <pt x="260" y="-303" on="1"/>
      </contour>
    </TTGlyph>
    <TTGlyph name="copyright" xMin="-12" yMin="-174" xMax="1102" yMax="1384">
      <contour>
        <pt x="265" y="-174" on="0"/>
        <pt x="83" y="-50" on="0"/>
        <pt x="-12" y="184" on="0"/>
        <pt x="-12" y="345" on="1"/>
        <pt x="-12" y="470" on="0"/>
        <pt x="16" y="611" on="1"/>
        <pt x="64" y="849" on="0"/>
        <pt x="260" y="1197" on="0"/>
        <pt x="534" y="1384" on="0"/>
        <pt x="695" y="1384" on="1"/>
        <pt x="824" y="1384" on="0"/>
        <pt x="1007" y="1260" on="0"/>
        <pt x="1102" y="1028" on="0"/>
        <pt x="1102" y="867" on="1"/>
        <pt x="1102" y="747" on="0"/>
        <pt x="1073" y="599" on="1"/>
        <pt x="1025" y="361" on="0"/>
        <pt x="829" y="13" on="0"/>
        <pt x="556" y="-174" on="0"/>
        <pt x="394" y="-174" on="1"/>
      </contour>
      <contour>
        <pt x="538" y="-38" on="0"/>
        <pt x="742" y="126" on="0"/>
        <pt x="886" y="418" on="0"/>
        <pt x="925" y="613" on="1"/>
        <pt x="955" y="762" on="0"/>
        <pt x="955" y="882" on="1"/>
        <pt x="955" y="1057" on="0"/>
        <pt x="820" y="1248" on="0"/>
        <pt x="680" y="1248" on="1"/>
        <pt x="554" y="1248" on="0"/>
        <pt x="349" y="1086" on="0"/>
        <pt x="204" y="795" on="0"/>
        <pt x="165" y="601" on="1"/>
        <pt x="135" y="446" on="0"/>
        <pt x="135" y="334" on="1"/>
        <pt x="135" y="156" on="0"/>
        <pt x="272" y="-38" on="0"/>
        <pt x="412" y="-38" on="1"/>
      </contour>
      <contour>
        <pt x="442" y="303" on="0"/>
        <pt x="334" y="365" on="0"/>
        <pt x="281" y="472" on="0"/>
        <pt x="281" y="539" on="1"/>
        <pt x="281" y="577" on="0"/>
        <pt x="288" y="611" on="1"/>
        <pt x="317" y="755" on="0"/>
        <pt x="499" y="908" on="0"/>
        <pt x="637" y="908" on="1"/>
        <pt x="676" y="908" on="0"/>
        <pt x="782" y="889" on="0"/>
        <pt x="818" y="877" on="1"/>
        <pt x="775" y="757" on="1"/>
        <pt x="713" y="772" on="0"/>
        <pt x="629" y="772" on="1"/>
        <pt x="561" y="772" on="0"/>
        <pt x="455" y="688" on="0"/>
        <pt x="438" y="599" on="1"/>
        <pt x="433" y="577" on="0"/>
        <pt x="433" y="550" on="1"/>
        <pt x="433" y="498" on="0"/>
        <pt x="495" y="448" on="0"/>
        <pt x="562" y="448" on="1"/>
        <pt x="634" y="448" on="0"/>
        <pt x="708" y="466" on="1"/>
        <pt x="719" y="345" on="1"/>
        <pt x="624" y="303" on="0"/>
        <pt x="520" y="303" on="1"/>
      </contour>
    </TTGlyph>
    <TTGlyph name="d" xMin="-61" yMin="0" xMax="886" yMax="1210">
      <component glyphName="D.hex" x="-106" y="0" flags="0x0"/>
    </TTGlyph>
    <TTGlyph name="dagger" xMin="124" yMin="-113" xMax="1059" yMax="1324">
      <contour>
        <pt x="503" y="772" on="1"/>
        <pt x="124" y="768" on="1"/>
        <pt x="152" y="911" on="1"/>
        <pt x="529" y="907" on="1"/>
        <pt x="607" y="1324" on="1"/>
        <pt x="770" y="1324" on="1"/>
        <pt x="681" y="907" on="1"/>
        <pt x="1059" y="911" on="1"/>
        <pt x="1031" y="768" on="1"/>
        <pt x="654" y="772" on="1"/>
        <pt x="476" y="-113" on="1"/>
        <pt x="325" y="-113" on="1"/>
      </contour>
    </TTGlyph>
    <TTGlyph name="dcroat" xMin="3" yMin="0" xMax="992" yMax="1210">
      <contour>
        <pt x="992" y="1210" on="0"/>
        <pt x="992" y="818" on="1"/>
        <pt x="992" y="722" on="0"/>
        <pt x="968" y="603" on="1"/>
        <pt x="928" y="405" on="0"/>
        <pt x="759" y="134" on="0"/>
        <pt x="522" y="0" on="0"/>
        <pt x="379" y="0" on="1"/>
        <pt x="45" y="0" on="1"/>
        <pt x="154" y="545" on="1"/>
        <pt x="3" y="545" on="1"/>
        <pt x="30" y="681" on="1"/>
        <pt x="181" y="681" on="1"/>
        <pt x="287" y="1210" on="1"/>
        <pt x="600" y="1210" on="1"/>
      </contour>
      <contour>
        <pt x="412" y="1074" on="1"/>
        <pt x="333" y="681" on="1"/>
        <pt x="594" y="681" on="1"/>
        <pt x="567" y="545" on="1"/>
        <pt x="306" y="545" on="1"/>
        <pt x="224" y="136" on="1"/>
        <pt x="404" y="136" on="1"/>
        <pt x="554" y="136" on="0"/>
        <pt x="760" y="358" on="0"/>
        <pt x="810" y="609" on="1"/>
        <pt x="834" y="732" on="0"/>
        <pt x="834" y="818" on="1"/>
        <pt x="834" y="955" on="0"/>
        <pt x="714" y="1074" on="0"/>
        <pt x="591" y="1074" on="1"/>
      </contour>
    </TTGlyph>
    <TTGlyph name="dieresis" xMin="281" yMin="1265" xMax="912" yMax="1524">
      <component glyphName="uni0308" x="-106" y="0" flags="0x0"/>
    </TTGlyph>
    <TTGlyph name="dollar" xMin="78" yMin="-303" xMax="1013" yMax="1664">
      <contour>
        <pt x="335" y="-14" on="1"/>
        <pt x="263" y="-7" on="0"/>
        <pt x="140" y="43" on="0"/>
        <pt x="78" y="84" on="1"/>
        <pt x="142" y="194" on="1"/>
        <pt x="194" y="162" on="0"/>
        <pt x="330" y="119" on="0"/>
        <pt x="395" y="119" on="1"/>
        <pt x="464" y="119" on="0"/>
        <pt x="581" y="171" on="0"/>
        <pt x="658" y="266" on="0"/>
        <pt x="670" y="327" on="1"/>
        <pt x="675" y="354" on="0"/>
        <pt x="675" y="374" on="1"/>
        <pt x="675" y="426" on="0"/>
        <pt x="628" y="516" on="0"/>
        <pt x="558" y="588" on="0"/>
        <pt x="499" y="640" on="1"/>
        <pt x="432" y="699" on="0"/>
        <pt x="351" y="786" on="0"/>
        <pt x="294" y="902" on="0"/>
        <pt x="294" y="973" on="1"/>
        <pt x="294" y="1004" on="0"/>
        <pt x="302" y="1046" on="1"/>
        <pt x="317" y="1124" on="0"/>
        <pt x="403" y="1261" on="0"/>
        <pt x="538" y="1358" on="0"/>
        <pt x="625" y="1374" on="1"/>
        <pt x="688" y="1664" on="1"/>
        <pt x="840" y="1664" on="1"/>
        <pt x="777" y="1374" on="1"/>
        <pt x="901" y="1358" on="0"/>
        <pt x="1013" y="1289" on="1"/>
        <pt x="946" y="1181" on="1"/>
        <pt x="827" y="1244" on="0"/>
        <pt x="700" y="1244" on="1"/>
        <pt x="636" y="1244" on="0"/>
        <pt x="533" y="1185" on="0"/>
        <pt x="467" y="1094" on="0"/>
        <pt x="457" y="1045" on="1"/>
        <pt x="452" y="1017" on="0"/>
        <pt x="452" y="997" on="1"/>
        <pt x="452" y="944" on="0"/>
        <pt x="498" y="856" on="0"/>
        <pt x="566" y="787" on="0"/>
        <pt x="626" y="735" on="1"/>
        <pt x="694" y="677" on="0"/>
        <pt x="775" y="592" on="0"/>
        <pt x="832" y="474" on="0"/>
        <pt x="832" y="400" on="1"/>
        <pt x="832" y="358" on="0"/>
        <pt x="824" y="319" on="1"/>
        <pt x="809" y="243" on="0"/>
        <pt x="720" y="107" on="0"/>
        <pt x="579" y="10" on="0"/>
        <pt x="488" y="-8" on="1"/>
        <pt x="423" y="-303" on="1"/>
        <pt x="272" y="-303" on="1"/>
      </contour>
    </TTGlyph>
    <TTGlyph name="dotaccent" xMin="451" yMin="1250" xMax="744" yMax="1539">
      <component glyphName="uni0307" x="-106" y="0" flags="0x0"/>
    </TTGlyph>
    <TTGlyph name="dotlessi" xMin="-61" yMin="0" xMax="786" yMax="1210">
      <component glyphName="i" x="-106" y="0" flags="0x0"/>
    </TTGlyph>
    <TTGlyph name="dotlessi.sans" xMin="348" yMin="0" xMax="711" yMax="1059">
      <contour>
        <pt x="560" y="1059" on="1"/>
        <pt x="711" y="1059" on="1"/>
        <pt x="499" y="0" on="1"/>
        <pt x="348" y="0" on="1"/>
      </contour>
    </TTGlyph>
    <TTGlyph name="dotlessi.sans.prop" xMin="64" yMin="0" xMax="427" yMax="1059">
      <contour>
        <pt x="276" y="1059" on="1"/>
        <pt x="427" y="1059" on="1"/>
        <pt x="215" y="0" on="1"/>
        <pt x="64" y="0" on="1"/>
      </contour>
    </TTGlyph>
    <TTGlyph name="e" xMin="-38" yMin="0" xMax="913" yMax="1210">
      <component glyphName="E.hex" x="-106" y="0" flags="0x0"/>
    </TTGlyph>
    <TTGlyph name="eacute" xMin="-144" yMin="0" xMax="999" yMax="1794">
      <component glyphName="e" x="-106" y="0" flags="0x0"/>
      <component glyphName="acutecomb" x="-66" y="151" flags="0x4"/>
    </TTGlyph>
    <TTGlyph name="ebreve" xMin="-144" yMin="0" xMax="967" yMax="1744">
      <component glyphName="e" x="-106" y="0" flags="0x0"/>
      <component glyphName="uni0306" x="-66" y="151" flags="0x4"/>
    </TTGlyph>
    <TTGlyph name="ecaron" xMin="-144" yMin="0" xMax="1002" yMax="1794">
      <component glyphName="e" x="-106" y="0" flags="0x0"/>
      <component glyphName="uni030C" x="-66" y="151" flags="0x4"/>
    </TTGlyph>
    <TTGlyph name="ecircumflex" xMin="-144" yMin="0" xMax="923" yMax="1794">
      <component glyphName="e" x="-106" y="0" flags="0x0"/>
      <component glyphName="uni0302" x="-66" y="151" flags="0x4"/>
    </TTGlyph>
    <TTGlyph name="edieresis" xMin="-144" yMin="0" xMax="952" yMax="1675">
      <component glyphName="e" x="-106" y="0" flags="0x0"/>
      <component glyphName="uni0308" x="-66" y="151" flags="0x4"/>
    </TTGlyph>
    <TTGlyph name="edotaccent" xMin="-144" yMin="0" xMax="807" yMax="1690">
      <component glyphName="e" x="-106" y="0" flags="0x0"/>
      <component glyphName="uni0307" x="-66" y="151" flags="0x4"/>
    </TTGlyph>
    <TTGlyph name="egrave" xMin="-144" yMin="0" xMax="807" yMax="1794">
      <component glyphName="e" x="-106" y="0" flags="0x0"/>
      <component glyphName="gravecomb" x="-66" y="151" flags="0x4"/>
    </TTGlyph>
    <TTGlyph name="eight" xMin="48" yMin="-19" xMax="1020" yMax="1380">
      <contour>
        <pt x="296" y="-19" on="0"/>
        <pt x="129" y="50" on="0"/>
        <pt x="48" y="172" on="0"/>
        <pt x="48" y="250" on="1"/>
        <pt x="48" y="276" on="0"/>
        <pt x="55" y="316" on="1"/>
        <pt x="81" y="446" on="0"/>
        <pt x="272" y="628" on="0"/>
        <pt x="425" y="711" on="1"/>
        <pt x="367" y="774" on="1"/>
        <pt x="305" y="830" on="0"/>
        <pt x="242" y="931" on="0"/>
        <pt x="242" y="1000" on="1"/>
        <pt x="242" y="1033" on="0"/>
        <pt x="249" y="1065" on="1"/>
        <pt x="267" y="1154" on="0"/>
        <pt x="390" y="1298" on="0"/>
        <pt x="580" y="1380" on="0"/>
        <pt x="694" y="1380" on="1"/>
        <pt x="792" y="1380" on="0"/>
        <pt x="940" y="1310" on="0"/>
        <pt x="1020" y="1186" on="0"/>
        <pt x="1020" y="1106" on="1"/>
        <pt x="1020" y="1072" on="0"/>
        <pt x="1013" y="1040" on="1"/>
        <pt x="998" y="965" on="0"/>
        <pt x="915" y="846" on="0"/>
        <pt x="797" y="749" on="0"/>
        <pt x="698" y="682" on="1"/>
        <pt x="770" y="609" on="1"/>
        <pt x="846" y="538" on="0"/>
        <pt x="913" y="418" on="0"/>
        <pt x="913" y="356" on="1"/>
        <pt x="913" y="329" on="0"/>
        <pt x="907" y="300" on="1"/>
        <pt x="890" y="216" on="0"/>
        <pt x="763" y="70" on="0"/>
        <pt x="554" y="-19" on="0"/>
        <pt x="422" y="-19" on="1"/>
      </contour>
      <contour>
        <pt x="210" y="293" on="0"/>
        <pt x="210" y="277" on="1"/>
        <pt x="210" y="235" on="0"/>
        <pt x="255" y="163" on="0"/>
        <pt x="357" y="117" on="0"/>
        <pt x="438" y="117" on="1"/>
        <pt x="523" y="117" on="0"/>
        <pt x="656" y="167" on="0"/>
        <pt x="739" y="255" on="0"/>
        <pt x="750" y="310" on="1"/>
        <pt x="755" y="335" on="0"/>
        <pt x="755" y="351" on="1"/>
        <pt x="755" y="386" on="0"/>
        <pt x="714" y="453" on="0"/>
        <pt x="662" y="501" on="1"/>
        <pt x="526" y="619" on="1"/>
        <pt x="384" y="549" on="0"/>
        <pt x="232" y="402" on="0"/>
        <pt x="213" y="308" on="1"/>
      </contour>
      <contour>
        <pt x="402" y="1033" on="0"/>
        <pt x="402" y="1014" on="1"/>
        <pt x="402" y="975" on="0"/>
        <pt x="437" y="915" on="0"/>
        <pt x="477" y="877" on="1"/>
        <pt x="607" y="768" on="1"/>
        <pt x="690" y="828" on="0"/>
        <pt x="777" y="899" on="0"/>
        <pt x="845" y="993" on="0"/>
        <pt x="857" y="1052" on="1"/>
        <pt x="861" y="1071" on="0"/>
        <pt x="861" y="1093" on="1"/>
        <pt x="861" y="1159" on="0"/>
        <pt x="770" y="1246" on="0"/>
        <pt x="675" y="1246" on="1"/>
        <pt x="605" y="1246" on="0"/>
        <pt x="490" y="1198" on="0"/>
        <pt x="418" y="1114" on="0"/>
        <pt x="407" y="1061" on="1"/>
      </contour>
    </TTGlyph>
    <TTGlyph name="ellipsis" xMin="29" yMin="-23" xMax="852" yMax="189">
      <contour>
        <pt x="82" y="-23" on="0"/>
        <pt x="29" y="28" on="0"/>
        <pt x="29" y="67" on="1"/>
        <pt x="29" y="81" on="0"/>
        <pt x="31" y="89" on="1"/>
        <pt x="40" y="136" on="0"/>
        <pt x="107" y="189" on="0"/>
        <pt x="154" y="189" on="1"/>
        <pt x="195" y="189" on="0"/>
        <pt x="247" y="138" on="0"/>
        <pt x="247" y="99" on="1"/>
        <pt x="247" y="91" on="0"/>
        <pt x="245" y="77" on="1"/>
        <pt x="235" y="31" on="0"/>
        <pt x="169" y="-23" on="0"/>
        <pt x="122" y="-23" on="1"/>
      </contour>
      <contour>
        <pt x="384" y="-23" on="0"/>
        <pt x="332" y="28" on="0"/>
        <pt x="332" y="66" on="1"/>
        <pt x="332" y="81" on="0"/>
        <pt x="334" y="89" on="1"/>
        <pt x="343" y="136" on="0"/>
        <pt x="409" y="189" on="0"/>
        <pt x="456" y="189" on="1"/>
        <pt x="497" y="189" on="0"/>
        <pt x="549" y="138" on="0"/>
        <pt x="549" y="99" on="1"/>
        <pt x="549" y="93" on="0"/>
        <pt x="547" y="77" on="1"/>
        <pt x="537" y="31" on="0"/>
        <pt x="471" y="-23" on="0"/>
        <pt x="424" y="-23" on="1"/>
      </contour>
      <contour>
        <pt x="687" y="-23" on="0"/>
        <pt x="634" y="28" on="0"/>
        <pt x="634" y="67" on="1"/>
        <pt x="634" y="81" on="0"/>
        <pt x="636" y="89" on="1"/>
        <pt x="645" y="136" on="0"/>
        <pt x="712" y="189" on="0"/>
        <pt x="759" y="189" on="1"/>
        <pt x="800" y="189" on="0"/>
        <pt x="852" y="138" on="0"/>
        <pt x="852" y="99" on="1"/>
        <pt x="852" y="91" on="0"/>
        <pt x="850" y="77" on="1"/>
        <pt x="840" y="31" on="0"/>
        <pt x="774" y="-23" on="0"/>
        <pt x="727" y="-23" on="1"/>
      </contour>
    </TTGlyph>
    <TTGlyph name="emacron" xMin="-144" yMin="0" xMax="945" yMax="1622">
      <component glyphName="e" x="-106" y="0" flags="0x0"/>
      <component glyphName="uni0304" x="-66" y="151" flags="0x4"/>
    </TTGlyph>
    <TTGlyph name="emdash" xMin="15" yMin="605" xMax="1101" yMax="738">
      <contour>
        <pt x="42" y="738" on="1"/>
        <pt x="1101" y="738" on="1"/>
        <pt x="1074" y="605" on="1"/>
        <pt x="15" y="605" on="1"/>
      </contour>
    </TTGlyph>
    <TTGlyph name="endash" xMin="15" yMin="605" xMax="1101" yMax="738">
      <contour>
        <pt x="42" y="738" on="1"/>
        <pt x="1101" y="738" on="1"/>
        <pt x="1074" y="605" on="1"/>
        <pt x="15" y="605" on="1"/>
      </contour>
    </TTGlyph>
    <TTGlyph name="eogonek" xMin="68" yMin="-303" xMax="1019" yMax="1210">
      <contour>
        <pt x="310" y="1210" on="1"/>
        <pt x="1019" y="1210" on="1"/>
        <pt x="992" y="1074" on="1"/>
        <pt x="434" y="1074" on="1"/>
        <pt x="355" y="677" on="1"/>
        <pt x="845" y="677" on="1"/>
        <pt x="817" y="541" on="1"/>
        <pt x="327" y="541" on="1"/>
        <pt x="246" y="136" on="1"/>
        <pt x="812" y="136" on="1"/>
        <pt x="790" y="-2" on="1"/>
        <pt x="718" y="-20" on="0"/>
        <pt x="634" y="-89" on="0"/>
        <pt x="627" y="-123" on="1"/>
        <pt x="626" y="-130" on="0"/>
        <pt x="625" y="-137" on="1"/>
        <pt x="625" y="-153" on="0"/>
        <pt x="650" y="-166" on="0"/>
        <pt x="681" y="-166" on="1"/>
        <pt x="712" y="-166" on="0"/>
        <pt x="755" y="-156" on="1"/>
        <pt x="759" y="-284" on="1"/>
        <pt x="693" y="-303" on="0"/>
        <pt x="626" y="-303" on="1"/>
        <pt x="549" y="-303" on="0"/>
        <pt x="460" y="-239" on="0"/>
        <pt x="460" y="-182" on="1"/>
        <pt x="460" y="-168" on="0"/>
        <pt x="463" y="-153" on="1"/>
        <pt x="473" y="-102" on="0"/>
        <pt x="547" y="-27" on="0"/>
        <pt x="610" y="3" on="1"/>
        <pt x="68" y="0" on="1"/>
      </contour>
    </TTGlyph>
    <TTGlyph name="equal" xMin="24" yMin="461" xMax="1095" yMax="900">
      <contour>
        <pt x="112" y="900" on="1"/>
        <pt x="1095" y="900" on="1"/>
        <pt x="1068" y="764" on="1"/>
        <pt x="85" y="764" on="1"/>
      </contour>
      <contour>
        <pt x="52" y="598" on="1"/>
        <pt x="1035" y="598" on="1"/>
        <pt x="1007" y="461" on="1"/>
        <pt x="24" y="461" on="1"/>
      </contour>
    </TTGlyph>
    <TTGlyph name="exclam" xMin="278" yMin="-23" xMax="825" yMax="1362">
      <contour>
        <pt x="568" y="1362" on="1"/>
        <pt x="825" y="1362" on="1"/>
        <pt x="581" y="529" on="1"/>
        <pt x="478" y="529" on="1"/>
      </contour>
      <contour>
        <pt x="359" y="-23" on="0"/>
        <pt x="278" y="59" on="0"/>
        <pt x="278" y="121" on="1"/>
        <pt x="278" y="137" on="0"/>
        <pt x="281" y="155" on="1"/>
        <pt x="290" y="203" on="0"/>
        <pt x="350" y="281" on="0"/>
        <pt x="436" y="325" on="0"/>
        <pt x="483" y="325" on="1"/>
        <pt x="548" y="325" on="0"/>
        <pt x="630" y="242" on="0"/>
        <pt x="630" y="180" on="1"/>
        <pt x="630" y="159" on="0"/>
        <pt x="626" y="143" on="1"/>
        <pt x="617" y="97" on="0"/>
        <pt x="558" y="21" on="0"/>
        <pt x="472" y="-23" on="0"/>
        <pt x="424" y="-23" on="1"/>
      </contour>
    </TTGlyph>
    <TTGlyph name="exclamdown" xMin="234" yMin="-303" xMax="781" yMax="1082">
      <contour>
        <pt x="491" y="-303" on="1"/>
        <pt x="234" y="-303" on="1"/>
        <pt x="478" y="530" on="1"/>
        <pt x="581" y="530" on="1"/>
      </contour>
      <contour>
        <pt x="700" y="1082" on="0"/>
        <pt x="781" y="1000" on="0"/>
        <pt x="781" y="938" on="1"/>
        <pt x="781" y="922" on="0"/>
        <pt x="778" y="904" on="1"/>
        <pt x="769" y="856" on="0"/>
        <pt x="709" y="778" on="0"/>
        <pt x="623" y="734" on="0"/>
        <pt x="576" y="734" on="1"/>
        <pt x="511" y="734" on="0"/>
        <pt x="429" y="817" on="0"/>
        <pt x="429" y="879" on="1"/>
        <pt x="429" y="900" on="0"/>
        <pt x="433" y="916" on="1"/>
        <pt x="442" y="962" on="0"/>
        <pt x="501" y="1038" on="0"/>
        <pt x="587" y="1082" on="0"/>
        <pt x="635" y="1082" on="1"/>
      </contour>
    </TTGlyph>
    <TTGlyph name="f" xMin="-23" yMin="0" xMax="938" yMax="1210">
      <component glyphName="F.hex" x="-106" y="0" flags="0x0"/>
    </TTGlyph>
    <TTGlyph name="five" xMin="-21" yMin="-322" xMax="976" yMax="1210">
      <contour>
        <pt x="198" y="-166" on="0"/>
        <pt x="487" y="-60" on="0"/>
        <pt x="652" y="107" on="0"/>
        <pt x="676" y="229" on="1"/>
        <pt x="682" y="259" on="0"/>
        <pt x="682" y="287" on="1"/>
        <pt x="682" y="383" on="0"/>
        <pt x="545" y="503" on="0"/>
        <pt x="405" y="503" on="1"/>
        <pt x="340" y="503" on="0"/>
        <pt x="228" y="493" on="0"/>
        <pt x="159" y="483" on="1"/>
        <pt x="299" y="1210" on="1"/>
        <pt x="976" y="1210" on="1"/>
        <pt x="949" y="1074" on="1"/>
        <pt x="423" y="1074" on="1"/>
        <pt x="329" y="632" on="1"/>
        <pt x="385" y="637" on="0"/>
        <pt x="453" y="637" on="1"/>
        <pt x="586" y="637" on="0"/>
        <pt x="762" y="553" on="0"/>
        <pt x="846" y="409" on="0"/>
        <pt x="846" y="316" on="1"/>
        <pt x="846" y="272" on="0"/>
        <pt x="837" y="225" on="1"/>
        <pt x="793" y="2" on="0"/>
        <pt x="376" y="-273" on="0"/>
        <pt x="-16" y="-322" on="1"/>
        <pt x="-21" y="-198" on="1"/>
      </contour>
    </TTGlyph>
    <TTGlyph name="florin" xMin="189" yMin="0" xMax="1125" yMax="1536">
      <contour>
        <pt x="492" y="772" on="1"/>
        <pt x="189" y="772" on="1"/>
        <pt x="216" y="908" on="1"/>
        <pt x="519" y="908" on="1"/>
        <pt x="583" y="1228" on="1"/>
        <pt x="612" y="1375" on="0"/>
        <pt x="795" y="1536" on="0"/>
        <pt x="934" y="1536" on="1"/>
        <pt x="1022" y="1536" on="0"/>
        <pt x="1125" y="1499" on="1"/>
        <pt x="1078" y="1375" on="1"/>
        <pt x="1047" y="1386" on="0"/>
        <pt x="969" y="1399" on="0"/>
        <pt x="932" y="1399" on="1"/>
        <pt x="854" y="1399" on="0"/>
        <pt x="749" y="1307" on="0"/>
        <pt x="733" y="1223" on="1"/>
        <pt x="670" y="908" on="1"/>
        <pt x="1003" y="908" on="1"/>
        <pt x="976" y="772" on="1"/>
        <pt x="643" y="772" on="1"/>
        <pt x="488" y="0" on="1"/>
        <pt x="337" y="0" on="1"/>
      </contour>
    </TTGlyph>
    <TTGlyph name="four" xMin="7" yMin="-151" xMax="904" yMax="1210">
      <contour>
        <pt x="575" y="151" on="1"/>
        <pt x="7" y="151" on="1"/>
        <pt x="27" y="248" on="1"/>
        <pt x="648" y="1210" on="1"/>
        <pt x="804" y="1210" on="1"/>
        <pt x="198" y="284" on="1"/>
        <pt x="602" y="284" on="1"/>
        <pt x="687" y="709" on="1"/>
        <pt x="838" y="709" on="1"/>
        <pt x="753" y="284" on="1"/>
        <pt x="904" y="284" on="1"/>
        <pt x="877" y="151" on="1"/>
        <pt x="726" y="151" on="1"/>
        <pt x="666" y="-151" on="1"/>
        <pt x="515" y="-151" on="1"/>
      </contour>
    </TTGlyph>
    <TTGlyph name="g" xMin="119" yMin="-21" xMax="1014" yMax="1231">
      <contour>
        <pt x="302" y="-21" on="0"/>
        <pt x="119" y="175" on="0"/>
        <pt x="119" y="374" on="1"/>
        <pt x="119" y="482" on="0"/>
        <pt x="145" y="611" on="1"/>
        <pt x="270" y="1231" on="0"/>
        <pt x="725" y="1231" on="1"/>
        <pt x="806" y="1231" on="0"/>
        <pt x="947" y="1185" on="0"/>
        <pt x="1014" y="1143" on="1"/>
        <pt x="948" y="1030" on="1"/>
        <pt x="892" y="1060" on="0"/>
        <pt x="775" y="1095" on="0"/>
        <pt x="708" y="1095" on="1"/>
        <pt x="564" y="1095" on="0"/>
        <pt x="353" y="873" on="0"/>
        <pt x="298" y="599" on="1"/>
        <pt x="272" y="467" on="0"/>
        <pt x="272" y="378" on="1"/>
        <pt x="272" y="242" on="0"/>
        <pt x="388" y="115" on="0"/>
        <pt x="508" y="115" on="1"/>
        <pt x="575" y="115" on="0"/>
        <pt x="673" y="140" on="1"/>
        <pt x="744" y="469" on="1"/>
        <pt x="506" y="469" on="1"/>
        <pt x="533" y="605" on="1"/>
        <pt x="923" y="605" on="1"/>
        <pt x="816" y="45" on="1"/>
        <pt x="734" y="13" on="0"/>
        <pt x="568" y="-21" on="0"/>
        <pt x="477" y="-21" on="1"/>
      </contour>
    </TTGlyph>
    <TTGlyph name="gbreve" xMin="13" yMin="-21" xMax="1001" yMax="1744">
      <component glyphName="g" x="-106" y="0" flags="0x0"/>
      <component glyphName="uni0306" x="-32" y="151" flags="0x4"/>
    </TTGlyph>
    <TTGlyph name="gcaron" xMin="13" yMin="-21" xMax="1036" yMax="1794">
      <component glyphName="g" x="-106" y="0" flags="0x0"/>
      <component glyphName="uni030C" x="-32" y="151" flags="0x4"/>
    </TTGlyph>
    <TTGlyph name="gcircumflex" xMin="13" yMin="-21" xMax="957" yMax="1794">
      <component glyphName="g" x="-106" y="0" flags="0x0"/>
      <component glyphName="uni0302" x="-32" y="151" flags="0x4"/>
    </TTGlyph>
    <TTGlyph name="gdotaccent" xMin="13" yMin="-21" xMax="908" yMax="1690">
      <component glyphName="g" x="-106" y="0" flags="0x0"/>
      <component glyphName="uni0307" x="-32" y="151" flags="0x4"/>
    </TTGlyph>
    <TTGlyph name="germandbls" xMin="0" yMin="-303" xMax="906" yMax="1229">
      <contour>
        <pt x="220" y="-17" on="0"/>
        <pt x="73" y="36" on="0"/>
        <pt x="0" y="84" on="1"/>
        <pt x="64" y="194" on="1"/>
        <pt x="117" y="162" on="0"/>
        <pt x="253" y="119" on="0"/>
        <pt x="318" y="119" on="1"/>
        <pt x="423" y="119" on="0"/>
        <pt x="571" y="219" on="0"/>
        <pt x="588" y="303" on="1"/>
        <pt x="591" y="321" on="0"/>
        <pt x="591" y="337" on="1"/>
        <pt x="591" y="381" on="0"/>
        <pt x="544" y="457" on="0"/>
        <pt x="474" y="519" on="0"/>
        <pt x="414" y="562" on="1"/>
        <pt x="343" y="614" on="0"/>
        <pt x="256" y="692" on="0"/>
        <pt x="195" y="801" on="0"/>
        <pt x="195" y="869" on="1"/>
        <pt x="195" y="901" on="0"/>
        <pt x="202" y="933" on="1"/>
        <pt x="217" y="1011" on="0"/>
        <pt x="321" y="1146" on="0"/>
        <pt x="489" y="1229" on="0"/>
        <pt x="595" y="1229" on="1"/>
        <pt x="687" y="1229" on="0"/>
        <pt x="846" y="1175" on="0"/>
        <pt x="906" y="1137" on="1"/>
        <pt x="839" y="1030" on="1"/>
        <pt x="714" y="1093" on="0"/>
        <pt x="593" y="1093" on="1"/>
        <pt x="529" y="1093" on="0"/>
        <pt x="426" y="1044" on="0"/>
        <pt x="363" y="968" on="0"/>
        <pt x="355" y="926" on="1"/>
        <pt x="352" y="908" on="0"/>
        <pt x="352" y="892" on="1"/>
        <pt x="352" y="847" on="0"/>
        <pt x="399" y="770" on="0"/>
        <pt x="468" y="710" on="0"/>
        <pt x="529" y="664" on="1"/>
        <pt x="600" y="612" on="0"/>
        <pt x="687" y="533" on="0"/>
        <pt x="748" y="423" on="0"/>
        <pt x="748" y="355" on="1"/>
        <pt x="748" y="323" on="0"/>
        <pt x="741" y="291" on="1"/>
        <pt x="722" y="197" on="0"/>
        <pt x="588" y="46" on="0"/>
        <pt x="478" y="6" on="1"/>
        <pt x="478" y="-48" on="0"/>
        <pt x="469" y="-89" on="1"/>
        <pt x="448" y="-197" on="0"/>
        <pt x="299" y="-303" on="0"/>
        <pt x="194" y="-303" on="1"/>
        <pt x="137" y="-303" on="0"/>
        <pt x="72" y="-285" on="1"/>
        <pt x="102" y="-162" on="1"/>
        <pt x="129" y="-166" on="0"/>
        <pt x="180" y="-166" on="1"/>
        <pt x="313" y="-166" on="0"/>
        <pt x="338" y="-45" on="1"/>
        <pt x="347" y="-16" on="1"/>
        <pt x="334" y="-17" on="0"/>
        <pt x="310" y="-17" on="1"/>
      </contour>
    </TTGlyph>
    <TTGlyph name="grave" xMin="513" yMin="756" xMax="803" yMax="1362">
      <contour>
        <pt x="513" y="1362" on="1"/>
        <pt x="787" y="1362" on="1"/>
        <pt x="803" y="756" on="1"/>
        <pt x="677" y="756" on="1"/>
      </contour>
    </TTGlyph>
    <TTGlyph name="gravecomb" xMin="440" yMin="1248" xMax="766" yMax="1643">
      <contour>
        <pt x="624" y="1248" on="1"/>
        <pt x="440" y="1643" on="1"/>
        <pt x="700" y="1643" on="1"/>
        <pt x="766" y="1248" on="1"/>
      </contour>
    </TTGlyph>
    <TTGlyph name="gravecomb.case" xMin="485" yMin="1475" xMax="811" yMax="1870">
      <contour>
        <pt x="669" y="1475" on="1"/>
        <pt x="485" y="1870" on="1"/>
        <pt x="745" y="1870" on="1"/>
        <pt x="811" y="1475" on="1"/>
      </contour>
    </TTGlyph>
    <TTGlyph name="greater" xMin="31" yMin="-68" xMax="978" yMax="1432">
      <contour>
        <pt x="801" y="671" on="1"/>
        <pt x="291" y="1231" on="1"/>
        <pt x="332" y="1432" on="1"/>
        <pt x="978" y="717" on="1"/>
        <pt x="964" y="647" on="1"/>
        <pt x="31" y="-68" on="1"/>
        <pt x="67" y="110" on="1"/>
      </contour>
    </TTGlyph>
    <TTGlyph name="h" xMin="45" yMin="0" xMax="1044" yMax="1210">
      <contour>
        <pt x="287" y="1210" on="1"/>
        <pt x="439" y="1210" on="1"/>
        <pt x="333" y="681" on="1"/>
        <pt x="786" y="681" on="1"/>
        <pt x="892" y="1210" on="1"/>
        <pt x="1044" y="1210" on="1"/>
        <pt x="802" y="0" on="1"/>
        <pt x="650" y="0" on="1"/>
        <pt x="759" y="545" on="1"/>
        <pt x="306" y="545" on="1"/>
        <pt x="197" y="0" on="1"/>
        <pt x="45" y="0" on="1"/>
      </contour>
    </TTGlyph>
    <TTGlyph name="h.short" xMin="45" yMin="0" xMax="966" yMax="1362">
      <contour>
        <pt x="318" y="1362" on="1"/>
        <pt x="470" y="1362" on="1"/>
        <pt x="369" y="857" on="1"/>
        <pt x="407" y="898" on="1"/>
        <pt x="472" y="957" on="0"/>
        <pt x="574" y="1031" on="0"/>
        <pt x="687" y="1074" on="0"/>
        <pt x="751" y="1074" on="1"/>
        <pt x="856" y="1074" on="0"/>
        <pt x="966" y="967" on="0"/>
        <pt x="966" y="865" on="1"/>
        <pt x="966" y="819" on="0"/>
        <pt x="956" y="769" on="1"/>
        <pt x="802" y="0" on="1"/>
        <pt x="650" y="0" on="1"/>
        <pt x="805" y="776" on="1"/>
        <pt x="813" y="816" on="0"/>
        <pt x="813" y="843" on="1"/>
        <pt x="813" y="890" on="0"/>
        <pt x="766" y="934" on="0"/>
        <pt x="712" y="934" on="1"/>
        <pt x="651" y="934" on="0"/>
        <pt x="524" y="861" on="0"/>
        <pt x="431" y="779" on="1"/>
        <pt x="338" y="702" on="1"/>
        <pt x="197" y="0" on="1"/>
        <pt x="45" y="0" on="1"/>
      </contour>
    </TTGlyph>
    <TTGlyph name="hbar" xMin="45" yMin="0" xMax="1165" yMax="1210">
      <contour>
        <pt x="230" y="923" on="1"/>
        <pt x="79" y="923" on="1"/>
        <pt x="106" y="1059" on="1"/>
        <pt x="257" y="1059" on="1"/>
        <pt x="287" y="1210" on="1"/>
        <pt x="439" y="1210" on="1"/>
        <pt x="409" y="1059" on="1"/>
        <pt x="862" y="1059" on="1"/>
        <pt x="892" y="1210" on="1"/>
        <pt x="1044" y="1210" on="1"/>
        <pt x="1014" y="1059" on="1"/>
        <pt x="1165" y="1059" on="1"/>
        <pt x="1138" y="923" on="1"/>
        <pt x="987" y="923" on="1"/>
        <pt x="802" y="0" on="1"/>
        <pt x="650" y="0" on="1"/>
        <pt x="759" y="545" on="1"/>
        <pt x="306" y="545" on="1"/>
        <pt x="197" y="0" on="1"/>
        <pt x="45" y="0" on="1"/>
      </contour>
      <contour>
        <pt x="786" y="681" on="1"/>
        <pt x="835" y="923" on="1"/>
        <pt x="382" y="923" on="1"/>
        <pt x="333" y="681" on="1"/>
      </contour>
    </TTGlyph>
    <TTGlyph name="hcircumflex" xMin="-61" yMin="0" xMax="938" yMax="1794">
      <component glyphName="h" x="-106" y="0" flags="0x0"/>
      <component glyphName="uni0302" x="-76" y="151" flags="0x4"/>
    </TTGlyph>
    <TTGlyph name="hyphen" xMin="166" yMin="605" xMax="950" yMax="738">
      <contour>
        <pt x="193" y="738" on="1"/>
        <pt x="950" y="738" on="1"/>
        <pt x="923" y="605" on="1"/>
        <pt x="166" y="605" on="1"/>
      </contour>
    </TTGlyph>
    <TTGlyph name="i" xMin="45" yMin="0" xMax="892" yMax="1210">
      <contour>
        <pt x="69" y="121" on="1"/>
        <pt x="299" y="136" on="1"/>
        <pt x="487" y="1074" on="1"/>
        <pt x="263" y="1089" on="1"/>
        <pt x="287" y="1210" on="1"/>
        <pt x="892" y="1210" on="1"/>
        <pt x="868" y="1089" on="1"/>
        <pt x="638" y="1074" on="1"/>
        <pt x="450" y="136" on="1"/>
        <pt x="674" y="121" on="1"/>
        <pt x="650" y="0" on="1"/>
        <pt x="45" y="0" on="1"/>
      </contour>
    </TTGlyph>
    <TTGlyph name="i.sans" xMin="242" yMin="0" xMax="743" yMax="1539">
      <component glyphName="dotlessi.sans" x="-106" y="0" flags="0x0"/>
      <component glyphName="uni0307" x="-107" y="0" flags="0x0"/>
    </TTGlyph>
    <TTGlyph name="i.sans.prop" xMin="-42" yMin="0" xMax="459" yMax="1539">
      <component glyphName="dotlessi.sans.prop" x="-106" y="0" flags="0x0"/>
      <component glyphName="uni0307" x="-391" y="0" flags="0x0"/>
    </TTGlyph>
    <TTGlyph name="iacute" xMin="-61" yMin="0" xMax="914" yMax="1794">
      <component glyphName="i" x="-106" y="0" flags="0x0"/>
      <component glyphName="acutecomb" x="-151" y="151" flags="0x4"/>
    </TTGlyph>
    <TTGlyph name="ibreve" xMin="-61" yMin="0" xMax="882" yMax="1744">
      <component glyphName="i" x="-106" y="0" flags="0x0"/>
      <component glyphName="uni0306" x="-151" y="151" flags="0x4"/>
    </TTGlyph>
    <TTGlyph name="icircumflex" xMin="-61" yMin="0" xMax="838" yMax="1794">
      <component glyphName="i" x="-106" y="0" flags="0x0"/>
      <component glyphName="uni0302" x="-151" y="151" flags="0x4"/>
    </TTGlyph>
    <TTGlyph name="idieresis" xMin="-61" yMin="0" xMax="867" yMax="1675">
      <component glyphName="i" x="-106" y="0" flags="0x0"/>
      <component glyphName="uni0308" x="-151" y="151" flags="0x4"/>
    </TTGlyph>
    <TTGlyph name="igrave" xMin="-61" yMin="0" xMax="786" yMax="1794">
      <component glyphName="i" x="-106" y="0" flags="0x0"/>
      <component glyphName="gravecomb" x="-151" y="151" flags="0x4"/>
    </TTGlyph>
    <TTGlyph name="imacron" xMin="-61" yMin="0" xMax="860" yMax="1622">
      <component glyphName="i" x="-106" y="0" flags="0x0"/>
      <component glyphName="uni0304" x="-151" y="151" flags="0x4"/>
    </TTGlyph>
    <TTGlyph name="iogonek" xMin="45" yMin="-303" xMax="892" yMax="1210">
      <contour>
        <pt x="69" y="121" on="1"/>
        <pt x="299" y="136" on="1"/>
        <pt x="487" y="1074" on="1"/>
        <pt x="263" y="1089" on="1"/>
        <pt x="287" y="1210" on="1"/>
        <pt x="892" y="1210" on="1"/>
        <pt x="868" y="1089" on="1"/>
        <pt x="638" y="1074" on="1"/>
        <pt x="450" y="136" on="1"/>
        <pt x="674" y="121" on="1"/>
        <pt x="655" y="-2" on="1"/>
        <pt x="583" y="-20" on="0"/>
        <pt x="499" y="-89" on="0"/>
        <pt x="492" y="-123" on="1"/>
        <pt x="491" y="-130" on="0"/>
        <pt x="490" y="-137" on="1"/>
        <pt x="490" y="-153" on="0"/>
        <pt x="515" y="-166" on="0"/>
        <pt x="546" y="-166" on="1"/>
        <pt x="577" y="-166" on="0"/>
        <pt x="620" y="-156" on="1"/>
        <pt x="624" y="-284" on="1"/>
        <pt x="558" y="-303" on="0"/>
        <pt x="491" y="-303" on="1"/>
        <pt x="414" y="-303" on="0"/>
        <pt x="325" y="-239" on="0"/>
        <pt x="325" y="-182" on="1"/>
        <pt x="325" y="-168" on="0"/>
        <pt x="328" y="-153" on="1"/>
        <pt x="338" y="-102" on="0"/>
        <pt x="412" y="-27" on="0"/>
        <pt x="475" y="3" on="1"/>
        <pt x="45" y="0" on="1"/>
      </contour>
    </TTGlyph>
    <TTGlyph name="itilde" xMin="-61" yMin="0" xMax="908" yMax="1715">
      <component glyphName="i" x="-106" y="0" flags="0x0"/>
      <component glyphName="tildecomb" x="-151" y="151" flags="0x4"/>
    </TTGlyph>
    <TTGlyph name="j" xMin="-13" yMin="-23" xMax="908" yMax="1210">
      <contour>
        <pt x="195" y="-23" on="0"/>
        <pt x="44" y="87" on="0"/>
        <pt x="-13" y="194" on="1"/>
        <pt x="99" y="267" on="1"/>
        <pt x="145" y="190" on="0"/>
        <pt x="245" y="113" on="0"/>
        <pt x="318" y="113" on="1"/>
        <pt x="419" y="113" on="0"/>
        <pt x="564" y="252" on="0"/>
        <pt x="590" y="380" on="1"/>
        <pt x="729" y="1074" on="1"/>
        <pt x="306" y="1074" on="1"/>
        <pt x="333" y="1210" on="1"/>
        <pt x="908" y="1210" on="1"/>
        <pt x="742" y="378" on="1"/>
        <pt x="717" y="253" on="0"/>
        <pt x="593" y="72" on="0"/>
        <pt x="414" y="-23" on="0"/>
        <pt x="307" y="-23" on="1"/>
      </contour>
    </TTGlyph>
    <TTGlyph name="j.sans" xMin="-225" yMin="-23" xMax="729" yMax="1690">
      <component glyphName="uni0237" x="-106" y="0" flags="0x0"/>
      <component glyphName="uni0307" x="-121" y="151" flags="0x4"/>
    </TTGlyph>
    <TTGlyph name="j.sans.prop" xMin="-225" yMin="-23" xMax="729" yMax="1690">
      <component glyphName="uni0237" x="-106" y="0" flags="0x0"/>
      <component glyphName="uni0307" x="-121" y="151" flags="0x4"/>
    </TTGlyph>
    <TTGlyph name="jcircumflex" xMin="-119" yMin="-23" xMax="868" yMax="1794">
      <component glyphName="j" x="-106" y="0" flags="0x0"/>
      <component glyphName="uni0302" x="-121" y="151" flags="0x4"/>
    </TTGlyph>
    <TTGlyph name="k" xMin="45" yMin="0" xMax="1030" yMax="1210">
      <contour>
        <pt x="45" y="0" on="1"/>
        <pt x="287" y="1210" on="1"/>
        <pt x="439" y="1210" on="1"/>
        <pt x="329" y="659" on="1"/>
        <pt x="856" y="1210" on="1"/>
        <pt x="1030" y="1210" on="1"/>
        <pt x="460" y="630" on="1"/>
        <pt x="819" y="0" on="1"/>
        <pt x="630" y="0" on="1"/>
        <pt x="313" y="581" on="1"/>
        <pt x="197" y="0" on="1"/>
      </contour>
    </TTGlyph>
    <TTGlyph name="l" xMin="45" yMin="0" xMax="753" yMax="1210">
      <contour>
        <pt x="287" y="1210" on="1"/>
        <pt x="439" y="1210" on="1"/>
        <pt x="224" y="136" on="1"/>
        <pt x="753" y="136" on="1"/>
        <pt x="726" y="0" on="1"/>
        <pt x="45" y="0" on="1"/>
      </contour>
    </TTGlyph>
    <TTGlyph name="l.sans" xMin="348" yMin="0" xMax="802" yMax="1513">
      <contour>
        <pt x="651" y="1513" on="1"/>
        <pt x="802" y="1513" on="1"/>
        <pt x="499" y="0" on="1"/>
        <pt x="348" y="0" on="1"/>
      </contour>
    </TTGlyph>
    <TTGlyph name="l.sans.prop" xMin="64" yMin="0" xMax="518" yMax="1513">
      <contour>
        <pt x="367" y="1513" on="1"/>
        <pt x="518" y="1513" on="1"/>
        <pt x="215" y="0" on="1"/>
        <pt x="64" y="0" on="1"/>
      </contour>
    </TTGlyph>
    <TTGlyph name="lacute" xMin="-61" yMin="0" xMax="706" yMax="1794">
      <component glyphName="l" x="-106" y="0" flags="0x0"/>
      <component glyphName="acutecomb" x="-359" y="151" flags="0x4"/>
    </TTGlyph>
    <TTGlyph name="less" xMin="142" yMin="-70" xMax="1088" yMax="1430">
      <contour>
        <pt x="319" y="692" on="1"/>
        <pt x="828" y="131" on="1"/>
        <pt x="788" y="-70" on="1"/>
        <pt x="142" y="645" on="1"/>
        <pt x="156" y="715" on="1"/>
        <pt x="1088" y="1430" on="1"/>
        <pt x="1053" y="1252" on="1"/>
      </contour>
    </TTGlyph>
    <TTGlyph name="m" xMin="30" yMin="0" xMax="1267" yMax="1210">
      <contour>
        <pt x="620" y="199" on="1"/>
        <pt x="1053" y="1210" on="1"/>
        <pt x="1267" y="1210" on="1"/>
        <pt x="1119" y="0" on="1"/>
        <pt x="976" y="0" on="1"/>
        <pt x="1097" y="995" on="1"/>
        <pt x="671" y="0" on="1"/>
        <pt x="478" y="0" on="1"/>
        <pt x="450" y="994" on="1"/>
        <pt x="174" y="0" on="1"/>
        <pt x="30" y="0" on="1"/>
        <pt x="367" y="1210" on="1"/>
        <pt x="592" y="1210" on="1"/>
      </contour>
    </TTGlyph>
    <TTGlyph name="macron" xMin="288" yMin="1320" xMax="905" yMax="1471">
      <component glyphName="uni0304" x="-106" y="0" flags="0x0"/>
    </TTGlyph>
    <TTGlyph name="minus" xMin="55" yMin="613" xMax="1065" yMax="749">
      <contour>
        <pt x="82" y="749" on="1"/>
        <pt x="1065" y="749" on="1"/>
        <pt x="1038" y="613" on="1"/>
        <pt x="55" y="613" on="1"/>
      </contour>
    </TTGlyph>
    <TTGlyph name="multiply" xMin="65" yMin="252" xMax="1055" yMax="1110">
      <contour>
        <pt x="65" y="354" on="1"/>
        <pt x="458" y="681" on="1"/>
        <pt x="196" y="1008" on="1"/>
        <pt x="318" y="1110" on="1"/>
        <pt x="580" y="783" on="1"/>
        <pt x="973" y="1110" on="1"/>
        <pt x="1055" y="1008" on="1"/>
        <pt x="662" y="681" on="1"/>
        <pt x="924" y="354" on="1"/>
        <pt x="801" y="252" on="1"/>
        <pt x="539" y="579" on="1"/>
        <pt x="146" y="252" on="1"/>
      </contour>
    </TTGlyph>
    <TTGlyph name="n" xMin="45" yMin="0" xMax="1044" yMax="1210">
      <contour>
        <pt x="287" y="1210" on="1"/>
        <pt x="448" y="1210" on="1"/>
        <pt x="730" y="342" on="1"/>
        <pt x="904" y="1210" on="1"/>
        <pt x="1044" y="1210" on="1"/>
        <pt x="802" y="0" on="1"/>
        <pt x="669" y="0" on="1"/>
        <pt x="371" y="927" on="1"/>
        <pt x="185" y="0" on="1"/>
        <pt x="45" y="0" on="1"/>
      </contour>
    </TTGlyph>
    <TTGlyph name="nacute" xMin="-61" yMin="0" xMax="989" yMax="1794">
      <component glyphName="n" x="-106" y="0" flags="0x0"/>
      <component glyphName="acutecomb" x="-76" y="151" flags="0x4"/>
    </TTGlyph>
    <TTGlyph name="ncaron" xMin="-61" yMin="0" xMax="992" yMax="1794">
      <component glyphName="n" x="-106" y="0" flags="0x0"/>
      <component glyphName="uni030C" x="-76" y="151" flags="0x4"/>
    </TTGlyph>
    <TTGlyph name="nine" xMin="85" yMin="-315" xMax="965" yMax="1227">
      <contour>
        <pt x="260" y="-143" on="0"/>
        <pt x="506" y="0" on="0"/>
        <pt x="682" y="243" on="0"/>
        <pt x="739" y="431" on="1"/>
        <pt x="665" y="371" on="0"/>
        <pt x="512" y="306" on="0"/>
        <pt x="426" y="306" on="1"/>
        <pt x="347" y="306" on="0"/>
        <pt x="213" y="376" on="0"/>
        <pt x="131" y="523" on="0"/>
        <pt x="131" y="632" on="1"/>
        <pt x="131" y="697" on="0"/>
        <pt x="145" y="764" on="1"/>
        <pt x="172" y="898" on="0"/>
        <pt x="314" y="1108" on="0"/>
        <pt x="520" y="1227" on="0"/>
        <pt x="639" y="1227" on="1"/>
        <pt x="797" y="1227" on="0"/>
        <pt x="965" y="1021" on="0"/>
        <pt x="965" y="823" on="1"/>
        <pt x="965" y="712" on="0"/>
        <pt x="936" y="565" on="1"/>
        <pt x="884" y="306" on="0"/>
        <pt x="672" y="-52" on="0"/>
        <pt x="336" y="-269" on="0"/>
        <pt x="97" y="-315" on="1"/>
        <pt x="85" y="-189" on="1"/>
      </contour>
      <contour>
        <pt x="297" y="688" on="0"/>
        <pt x="297" y="640" on="1"/>
        <pt x="297" y="541" on="0"/>
        <pt x="389" y="443" on="0"/>
        <pt x="474" y="443" on="1"/>
        <pt x="605" y="443" on="0"/>
        <pt x="771" y="592" on="1"/>
        <pt x="778" y="609" on="1"/>
        <pt x="804" y="742" on="0"/>
        <pt x="804" y="835" on="1"/>
        <pt x="804" y="962" on="0"/>
        <pt x="712" y="1091" on="0"/>
        <pt x="623" y="1091" on="1"/>
        <pt x="549" y="1091" on="0"/>
        <pt x="420" y="1003" on="0"/>
        <pt x="329" y="848" on="0"/>
        <pt x="309" y="749" on="1"/>
      </contour>
    </TTGlyph>
    <TTGlyph name="ntilde" xMin="-61" yMin="0" xMax="983" yMax="1715">
      <component glyphName="n" x="-106" y="0" flags="0x0"/>
      <component glyphName="tildecomb" x="-76" y="151" flags="0x4"/>
    </TTGlyph>
    <TTGlyph name="numbersign" xMin="48" yMin="-38" xMax="1076" yMax="1399">
      <contour>
        <pt x="241" y="390" on="1"/>
        <pt x="48" y="390" on="1"/>
        <pt x="74" y="522" on="1"/>
        <pt x="267" y="522" on="1"/>
        <pt x="336" y="862" on="1"/>
        <pt x="143" y="862" on="1"/>
        <pt x="169" y="995" on="1"/>
        <pt x="362" y="995" on="1"/>
        <pt x="443" y="1399" on="1"/>
        <pt x="586" y="1399" on="1"/>
        <pt x="505" y="995" on="1"/>
        <pt x="740" y="995" on="1"/>
        <pt x="821" y="1399" on="1"/>
        <pt x="964" y="1399" on="1"/>
        <pt x="883" y="995" on="1"/>
        <pt x="1076" y="995" on="1"/>
        <pt x="1050" y="862" on="1"/>
        <pt x="857" y="862" on="1"/>
        <pt x="788" y="522" on="1"/>
        <pt x="981" y="522" on="1"/>
        <pt x="955" y="390" on="1"/>
        <pt x="762" y="390" on="1"/>
        <pt x="676" y="-38" on="1"/>
        <pt x="533" y="-38" on="1"/>
        <pt x="619" y="390" on="1"/>
        <pt x="384" y="390" on="1"/>
        <pt x="298" y="-38" on="1"/>
        <pt x="155" y="-38" on="1"/>
      </contour>
      <contour>
        <pt x="645" y="522" on="1"/>
        <pt x="714" y="862" on="1"/>
        <pt x="479" y="862" on="1"/>
        <pt x="410" y="522" on="1"/>
      </contour>
    </TTGlyph>
    <TTGlyph name="o" xMin="90" yMin="-19" xMax="1000" yMax="1229">
      <contour>
        <pt x="260" y="-19" on="0"/>
        <pt x="90" y="170" on="0"/>
        <pt x="90" y="362" on="1"/>
        <pt x="90" y="472" on="0"/>
        <pt x="118" y="611" on="1"/>
        <pt x="179" y="918" on="0"/>
        <pt x="456" y="1229" on="0"/>
        <pt x="664" y="1229" on="1"/>
        <pt x="836" y="1229" on="0"/>
        <pt x="1000" y="1040" on="0"/>
        <pt x="1000" y="855" on="1"/>
        <pt x="1000" y="746" on="0"/>
        <pt x="971" y="599" on="1"/>
        <pt x="930" y="395" on="0"/>
        <pt x="772" y="118" on="0"/>
        <pt x="555" y="-19" on="0"/>
        <pt x="425" y="-19" on="1"/>
      </contour>
      <contour>
        <pt x="575" y="113" on="0"/>
        <pt x="762" y="348" on="0"/>
        <pt x="814" y="611" on="1"/>
        <pt x="845" y="765" on="0"/>
        <pt x="845" y="867" on="1"/>
        <pt x="845" y="990" on="0"/>
        <pt x="750" y="1097" on="0"/>
        <pt x="648" y="1097" on="1"/>
        <pt x="553" y="1097" on="0"/>
        <pt x="414" y="1000" on="0"/>
        <pt x="311" y="781" on="0"/>
        <pt x="275" y="599" on="1"/>
        <pt x="246" y="451" on="0"/>
        <pt x="246" y="357" on="1"/>
        <pt x="246" y="227" on="0"/>
        <pt x="344" y="113" on="0"/>
        <pt x="440" y="113" on="1"/>
      </contour>
    </TTGlyph>
    <TTGlyph name="oacute" xMin="-16" yMin="-19" xMax="989" yMax="1794">
      <component glyphName="o" x="-106" y="0" flags="0x0"/>
      <component glyphName="acutecomb" x="-76" y="151" flags="0x4"/>
    </TTGlyph>
    <TTGlyph name="obreve" xMin="-16" yMin="-19" xMax="957" yMax="1744">
      <component glyphName="o" x="-106" y="0" flags="0x0"/>
      <component glyphName="uni0306" x="-76" y="151" flags="0x4"/>
    </TTGlyph>
    <TTGlyph name="ocircumflex" xMin="-16" yMin="-19" xMax="913" yMax="1794">
      <component glyphName="o" x="-106" y="0" flags="0x0"/>
      <component glyphName="uni0302" x="-76" y="151" flags="0x4"/>
    </TTGlyph>
    <TTGlyph name="odieresis" xMin="-16" yMin="-19" xMax="942" yMax="1675">
      <component glyphName="o" x="-106" y="0" flags="0x0"/>
      <component glyphName="uni0308" x="-76" y="151" flags="0x4"/>
    </TTGlyph>
    <TTGlyph name="ogonek" xMin="125" yMin="-303" xMax="455" yMax="54">
      <component glyphName="uni0328" x="-106" y="0" flags="0x0"/>
    </TTGlyph>
    <TTGlyph name="ograve" xMin="-16" yMin="-19" xMax="894" yMax="1794">
      <component glyphName="o" x="-106" y="0" flags="0x0"/>
      <component glyphName="gravecomb" x="-76" y="151" flags="0x4"/>
    </TTGlyph>
    <TTGlyph name="omacron" xMin="-16" yMin="-19" xMax="935" yMax="1622">
      <component glyphName="o" x="-106" y="0" flags="0x0"/>
      <component glyphName="uni0304" x="-76" y="151" flags="0x4"/>
    </TTGlyph>
    <TTGlyph name="one" xMin="68" yMin="0" xMax="847" yMax="1233">
      <contour>
        <pt x="91" y="113" on="1"/>
        <pt x="397" y="132" on="1"/>
        <pt x="586" y="1072" on="1"/>
        <pt x="271" y="985" on="1"/>
        <pt x="268" y="1114" on="1"/>
        <pt x="678" y="1233" on="1"/>
        <pt x="769" y="1233" on="1"/>
        <pt x="548" y="132" on="1"/>
        <pt x="847" y="113" on="1"/>
        <pt x="824" y="0" on="1"/>
        <pt x="68" y="0" on="1"/>
      </contour>
    </TTGlyph>
    <TTGlyph name="otilde" xMin="-16" yMin="-19" xMax="983" yMax="1715">
      <component glyphName="o" x="-106" y="0" flags="0x0"/>
      <component glyphName="tildecomb" x="-76" y="151" flags="0x4"/>
    </TTGlyph>
    <TTGlyph name="p" xMin="45" yMin="0" xMax="965" yMax="1210">
      <contour>
        <pt x="287" y="1210" on="1"/>
        <pt x="589" y="1210" on="1"/>
        <pt x="775" y="1210" on="0"/>
        <pt x="965" y="1049" on="0"/>
        <pt x="965" y="904" on="1"/>
        <pt x="965" y="858" on="0"/>
        <pt x="954" y="800" on="1"/>
        <pt x="930" y="677" on="0"/>
        <pt x="793" y="494" on="0"/>
        <pt x="567" y="393" on="0"/>
        <pt x="415" y="393" on="1"/>
        <pt x="351" y="393" on="0"/>
        <pt x="283" y="402" on="1"/>
        <pt x="197" y="0" on="1"/>
        <pt x="45" y="0" on="1"/>
      </contour>
      <contour>
        <pt x="377" y="529" on="0"/>
        <pt x="424" y="529" on="1"/>
        <pt x="596" y="529" on="0"/>
        <pt x="768" y="665" on="0"/>
        <pt x="796" y="804" on="1"/>
        <pt x="806" y="856" on="0"/>
        <pt x="806" y="891" on="1"/>
        <pt x="806" y="981" on="0"/>
        <pt x="696" y="1074" on="0"/>
        <pt x="575" y="1074" on="1"/>
        <pt x="412" y="1074" on="1"/>
        <pt x="299" y="535" on="1"/>
      </contour>
    </TTGlyph>
    <TTGlyph name="parenleft" xMin="279" yMin="-289" xMax="1093" yMax="1501">
      <contour>
        <pt x="388" y="986" on="0"/>
        <pt x="759" y="1457" on="0"/>
        <pt x="1089" y="1501" on="1"/>
        <pt x="1093" y="1372" on="1"/>
        <pt x="905" y="1339" on="0"/>
        <pt x="660" y="1135" on="0"/>
        <pt x="518" y="822" on="0"/>
        <pt x="474" y="599" on="1"/>
        <pt x="434" y="396" on="0"/>
        <pt x="434" y="269" on="1"/>
        <pt x="434" y="87" on="0"/>
        <pt x="591" y="-129" on="0"/>
        <pt x="775" y="-164" on="1"/>
        <pt x="741" y="-289" on="1"/>
        <pt x="499" y="-255" on="0"/>
        <pt x="279" y="53" on="0"/>
        <pt x="279" y="300" on="1"/>
        <pt x="279" y="443" on="0"/>
        <pt x="313" y="611" on="1"/>
      </contour>
    </TTGlyph>
    <TTGlyph name="parenright" xMin="154" yMin="-291" xMax="967" yMax="1499">
      <contour>
        <pt x="858" y="223" on="0"/>
        <pt x="488" y="-247" on="0"/>
        <pt x="157" y="-291" on="1"/>
        <pt x="154" y="-162" on="1"/>
        <pt x="341" y="-129" on="0"/>
        <pt x="586" y="75" on="0"/>
        <pt x="728" y="389" on="0"/>
        <pt x="772" y="611" on="1"/>
        <pt x="812" y="806" on="0"/>
        <pt x="812" y="941" on="1"/>
        <pt x="812" y="1123" on="0"/>
        <pt x="655" y="1339" on="0"/>
        <pt x="471" y="1374" on="1"/>
        <pt x="505" y="1499" on="1"/>
        <pt x="746" y="1465" on="0"/>
        <pt x="967" y="1157" on="0"/>
        <pt x="967" y="911" on="1"/>
        <pt x="967" y="767" on="0"/>
        <pt x="933" y="599" on="1"/>
      </contour>
    </TTGlyph>
    <TTGlyph name="percent" xMin="-57" yMin="-19" xMax="1176" yMax="1380">
      <contour>
        <pt x="1017" y="1210" on="1"/>
        <pt x="1176" y="1210" on="1"/>
        <pt x="102" y="151" on="1"/>
        <pt x="-57" y="151" on="1"/>
      </contour>
      <contour>
        <pt x="604" y="-19" on="0"/>
        <pt x="509" y="93" on="0"/>
        <pt x="509" y="193" on="1"/>
        <pt x="509" y="241" on="0"/>
        <pt x="519" y="292" on="1"/>
        <pt x="548" y="435" on="0"/>
        <pt x="693" y="588" on="0"/>
        <pt x="800" y="588" on="1"/>
        <pt x="886" y="588" on="0"/>
        <pt x="980" y="479" on="0"/>
        <pt x="980" y="380" on="1"/>
        <pt x="980" y="337" on="0"/>
        <pt x="969" y="280" on="1"/>
        <pt x="940" y="136" on="0"/>
        <pt x="796" y="-19" on="0"/>
        <pt x="690" y="-19" on="1"/>
      </contour>
      <contour>
        <pt x="749" y="104" on="0"/>
        <pt x="820" y="195" on="0"/>
        <pt x="839" y="292" on="1"/>
        <pt x="850" y="344" on="0"/>
        <pt x="850" y="385" on="1"/>
        <pt x="850" y="429" on="0"/>
        <pt x="818" y="467" on="0"/>
        <pt x="785" y="467" on="1"/>
        <pt x="738" y="467" on="0"/>
        <pt x="666" y="376" on="0"/>
        <pt x="647" y="280" on="1"/>
        <pt x="636" y="228" on="0"/>
        <pt x="636" y="187" on="1"/>
        <pt x="636" y="142" on="0"/>
        <pt x="669" y="104" on="0"/>
        <pt x="702" y="104" on="1"/>
      </contour>
      <contour>
        <pt x="233" y="773" on="0"/>
        <pt x="138" y="885" on="0"/>
        <pt x="138" y="984" on="1"/>
        <pt x="138" y="1027" on="0"/>
        <pt x="149" y="1084" on="1"/>
        <pt x="177" y="1227" on="0"/>
        <pt x="323" y="1380" on="0"/>
        <pt x="430" y="1380" on="1"/>
        <pt x="516" y="1380" on="0"/>
        <pt x="610" y="1271" on="0"/>
        <pt x="610" y="1172" on="1"/>
        <pt x="610" y="1129" on="0"/>
        <pt x="599" y="1072" on="1"/>
        <pt x="570" y="928" on="0"/>
        <pt x="425" y="773" on="0"/>
        <pt x="319" y="773" on="1"/>
      </contour>
      <contour>
        <pt x="378" y="896" on="0"/>
        <pt x="450" y="987" on="0"/>
        <pt x="469" y="1084" on="1"/>
        <pt x="480" y="1136" on="0"/>
        <pt x="480" y="1176" on="1"/>
        <pt x="480" y="1221" on="0"/>
        <pt x="447" y="1259" on="0"/>
        <pt x="414" y="1259" on="1"/>
        <pt x="367" y="1259" on="0"/>
        <pt x="296" y="1168" on="0"/>
        <pt x="277" y="1072" on="1"/>
        <pt x="266" y="1018" on="0"/>
        <pt x="266" y="978" on="1"/>
        <pt x="266" y="934" on="0"/>
        <pt x="298" y="896" on="0"/>
        <pt x="331" y="896" on="1"/>
      </contour>
    </TTGlyph>
    <TTGlyph name="period" xMin="278" yMin="-23" xMax="630" yMax="325">
      <contour>
        <pt x="359" y="-23" on="0"/>
        <pt x="278" y="59" on="0"/>
        <pt x="278" y="121" on="1"/>
        <pt x="278" y="137" on="0"/>
        <pt x="281" y="155" on="1"/>
        <pt x="290" y="203" on="0"/>
        <pt x="350" y="281" on="0"/>
        <pt x="436" y="325" on="0"/>
        <pt x="483" y="325" on="1"/>
        <pt x="548" y="325" on="0"/>
        <pt x="630" y="242" on="0"/>
        <pt x="630" y="180" on="1"/>
        <pt x="630" y="159" on="0"/>
        <pt x="626" y="143" on="1"/>
        <pt x="617" y="97" on="0"/>
        <pt x="558" y="21" on="0"/>
        <pt x="472" y="-23" on="0"/>
        <pt x="424" y="-23" on="1"/>
      </contour>
    </TTGlyph>
    <TTGlyph name="periodcentered" xMin="449" yMin="565" xMax="666" yMax="777">
      <contour>
        <pt x="500" y="565" on="0"/>
        <pt x="449" y="616" on="0"/>
        <pt x="449" y="655" on="1"/>
        <pt x="449" y="663" on="0"/>
        <pt x="451" y="677" on="1"/>
        <pt x="461" y="724" on="0"/>
        <pt x="526" y="777" on="0"/>
        <pt x="573" y="777" on="1"/>
        <pt x="614" y="777" on="0"/>
        <pt x="666" y="727" on="0"/>
        <pt x="666" y="688" on="1"/>
        <pt x="666" y="673" on="0"/>
        <pt x="664" y="665" on="1"/>
        <pt x="655" y="619" on="0"/>
        <pt x="588" y="565" on="0"/>
        <pt x="541" y="565" on="1"/>
      </contour>
    </TTGlyph>
    <TTGlyph name="pi" xMin="45" yMin="0" xMax="1014" yMax="1059">
      <contour>
        <pt x="802" y="0" on="1"/>
        <pt x="650" y="0" on="1"/>
        <pt x="835" y="923" on="1"/>
        <pt x="382" y="923" on="1"/>
        <pt x="197" y="0" on="1"/>
        <pt x="45" y="0" on="1"/>
        <pt x="257" y="1059" on="1"/>
        <pt x="1014" y="1059" on="1"/>
      </contour>
    </TTGlyph>
    <TTGlyph name="plus" xMin="55" yMin="189" xMax="1065" yMax="1172">
      <contour>
        <pt x="471" y="613" on="1"/>
        <pt x="55" y="613" on="1"/>
        <pt x="82" y="749" on="1"/>
        <pt x="498" y="749" on="1"/>
        <pt x="583" y="1172" on="1"/>
        <pt x="734" y="1172" on="1"/>
        <pt x="649" y="749" on="1"/>
        <pt x="1065" y="749" on="1"/>
        <pt x="1038" y="613" on="1"/>
        <pt x="622" y="613" on="1"/>
        <pt x="537" y="189" on="1"/>
        <pt x="386" y="189" on="1"/>
      </contour>
    </TTGlyph>
    <TTGlyph name="plusminus" xMin="-174" yMin="0" xMax="989" yMax="1323">
      <component glyphName="minus" x="-229" y="-613" flags="0x4"/>
      <component glyphName="plus" x="-76" y="151" flags="0x4"/>
    </TTGlyph>
    <TTGlyph name="q" xMin="90" yMin="-310" xMax="1000" yMax="1229">
      <contour>
        <pt x="470" y="-310" on="0"/>
        <pt x="348" y="-181" on="0"/>
        <pt x="348" y="-51" on="1"/>
        <pt x="348" y="-26" on="0"/>
        <pt x="349" y="-13" on="1"/>
        <pt x="90" y="27" on="0"/>
        <pt x="90" y="361" on="1"/>
        <pt x="90" y="472" on="0"/>
        <pt x="118" y="611" on="1"/>
        <pt x="179" y="918" on="0"/>
        <pt x="456" y="1229" on="0"/>
        <pt x="664" y="1229" on="1"/>
        <pt x="836" y="1229" on="0"/>
        <pt x="1000" y="1040" on="0"/>
        <pt x="1000" y="855" on="1"/>
        <pt x="1000" y="746" on="0"/>
        <pt x="971" y="599" on="1"/>
        <pt x="915" y="322" on="0"/>
        <pt x="664" y="10" on="0"/>
        <pt x="486" y="-20" on="1"/>
        <pt x="485" y="-28" on="0"/>
        <pt x="485" y="-44" on="1"/>
        <pt x="485" y="-113" on="0"/>
        <pt x="555" y="-174" on="0"/>
        <pt x="629" y="-174" on="1"/>
        <pt x="666" y="-174" on="0"/>
        <pt x="753" y="-162" on="1"/>
        <pt x="757" y="-286" on="1"/>
        <pt x="685" y="-310" on="0"/>
        <pt x="582" y="-310" on="1"/>
      </contour>
      <contour>
        <pt x="575" y="113" on="0"/>
        <pt x="762" y="348" on="0"/>
        <pt x="814" y="611" on="1"/>
        <pt x="845" y="765" on="0"/>
        <pt x="845" y="867" on="1"/>
        <pt x="845" y="990" on="0"/>
        <pt x="750" y="1097" on="0"/>
        <pt x="648" y="1097" on="1"/>
        <pt x="553" y="1097" on="0"/>
        <pt x="414" y="1000" on="0"/>
        <pt x="311" y="781" on="0"/>
        <pt x="275" y="599" on="1"/>
        <pt x="246" y="451" on="0"/>
        <pt x="246" y="357" on="1"/>
        <pt x="246" y="227" on="0"/>
        <pt x="344" y="113" on="0"/>
        <pt x="440" y="113" on="1"/>
      </contour>
    </TTGlyph>
    <TTGlyph name="question" xMin="278" yMin="-23" xMax="1018" yMax="1380">
      <contour>
        <pt x="636" y="672" on="0"/>
        <pt x="816" y="866" on="0"/>
        <pt x="839" y="980" on="1"/>
        <pt x="847" y="1020" on="0"/>
        <pt x="847" y="1051" on="1"/>
        <pt x="847" y="1145" on="0"/>
        <pt x="722" y="1244" on="0"/>
        <pt x="598" y="1244" on="1"/>
        <pt x="536" y="1244" on="0"/>
        <pt x="375" y="1212" on="0"/>
        <pt x="309" y="1191" on="1"/>
        <pt x="288" y="1303" on="1"/>
        <pt x="369" y="1337" on="0"/>
        <pt x="555" y="1380" on="0"/>
        <pt x="642" y="1380" on="1"/>
        <pt x="759" y="1380" on="0"/>
        <pt x="929" y="1304" on="0"/>
        <pt x="1018" y="1163" on="0"/>
        <pt x="1018" y="1069" on="1"/>
        <pt x="1018" y="1028" on="0"/>
        <pt x="1009" y="981" on="1"/>
        <pt x="979" y="830" on="0"/>
        <pt x="729" y="569" on="0"/>
        <pt x="528" y="451" on="1"/>
        <pt x="460" y="552" on="1"/>
      </contour>
      <contour>
        <pt x="359" y="-23" on="0"/>
        <pt x="278" y="59" on="0"/>
        <pt x="278" y="121" on="1"/>
        <pt x="278" y="137" on="0"/>
        <pt x="281" y="155" on="1"/>
        <pt x="290" y="203" on="0"/>
        <pt x="350" y="281" on="0"/>
        <pt x="436" y="325" on="0"/>
        <pt x="483" y="325" on="1"/>
        <pt x="548" y="325" on="0"/>
        <pt x="630" y="242" on="0"/>
        <pt x="630" y="180" on="1"/>
        <pt x="630" y="159" on="0"/>
        <pt x="626" y="143" on="1"/>
        <pt x="617" y="97" on="0"/>
        <pt x="558" y="21" on="0"/>
        <pt x="472" y="-23" on="0"/>
        <pt x="424" y="-23" on="1"/>
      </contour>
    </TTGlyph>
    <TTGlyph name="questiondown" xMin="41" yMin="-321" xMax="781" yMax="1082">
      <contour>
        <pt x="423" y="387" on="0"/>
        <pt x="243" y="193" on="0"/>
        <pt x="220" y="79" on="1"/>
        <pt x="212" y="39" on="0"/>
        <pt x="212" y="8" on="1"/>
        <pt x="212" y="-86" on="0"/>
        <pt x="337" y="-185" on="0"/>
        <pt x="461" y="-185" on="1"/>
        <pt x="523" y="-185" on="0"/>
        <pt x="684" y="-153" on="0"/>
        <pt x="750" y="-132" on="1"/>
        <pt x="771" y="-244" on="1"/>
        <pt x="690" y="-278" on="0"/>
        <pt x="504" y="-321" on="0"/>
        <pt x="417" y="-321" on="1"/>
        <pt x="300" y="-321" on="0"/>
        <pt x="130" y="-245" on="0"/>
        <pt x="41" y="-104" on="0"/>
        <pt x="41" y="-10" on="1"/>
        <pt x="41" y="32" on="0"/>
        <pt x="50" y="78" on="1"/>
        <pt x="80" y="229" on="0"/>
        <pt x="330" y="490" on="0"/>
        <pt x="531" y="608" on="1"/>
        <pt x="599" y="507" on="1"/>
      </contour>
      <contour>
        <pt x="700" y="1082" on="0"/>
        <pt x="781" y="1000" on="0"/>
        <pt x="781" y="938" on="1"/>
        <pt x="781" y="922" on="0"/>
        <pt x="778" y="904" on="1"/>
        <pt x="769" y="856" on="0"/>
        <pt x="709" y="778" on="0"/>
        <pt x="623" y="734" on="0"/>
        <pt x="576" y="734" on="1"/>
        <pt x="511" y="734" on="0"/>
        <pt x="429" y="817" on="0"/>
        <pt x="429" y="879" on="1"/>
        <pt x="429" y="900" on="0"/>
        <pt x="433" y="916" on="1"/>
        <pt x="442" y="962" on="0"/>
        <pt x="501" y="1038" on="0"/>
        <pt x="587" y="1082" on="0"/>
        <pt x="635" y="1082" on="1"/>
      </contour>
    </TTGlyph>
    <TTGlyph name="quotedbl" xMin="192" yMin="756" xMax="931" yMax="1362">
      <component glyphName="quotesingle" x="-322" y="0" flags="0x0"/>
      <component glyphName="quotesingle" x="110" y="0" flags="0x0"/>
    </TTGlyph>
    <TTGlyph name="quotedblbase" xMin="-249" yMin="-315" xMax="809" yMax="323">
      <component glyphName="quoteright" x="-549" y="-1059" flags="0x4"/>
      <component glyphName="quoteright" x="-46" y="-1059" flags="0x4"/>
    </TTGlyph>
    <TTGlyph name="quotedblleft" xMin="157" yMin="800" xMax="1215" yMax="1438">
      <contour>
        <pt x="742" y="800" on="0"/>
        <pt x="660" y="886" on="0"/>
        <pt x="660" y="965" on="1"/>
        <pt x="660" y="998" on="0"/>
        <pt x="667" y="1033" on="1"/>
        <pt x="700" y="1199" on="0"/>
        <pt x="971" y="1404" on="0"/>
        <pt x="1204" y="1438" on="1"/>
        <pt x="1215" y="1319" on="1"/>
        <pt x="1113" y="1300" on="0"/>
        <pt x="961" y="1239" on="0"/>
        <pt x="880" y="1170" on="0"/>
        <pt x="880" y="1138" on="1"/>
        <pt x="880" y="1124" on="0"/>
        <pt x="900" y="1103" on="0"/>
        <pt x="922" y="1091" on="1"/>
        <pt x="955" y="1075" on="0"/>
        <pt x="990" y="1016" on="0"/>
        <pt x="990" y="980" on="1"/>
        <pt x="990" y="967" on="0"/>
        <pt x="987" y="952" on="1"/>
        <pt x="973" y="883" on="0"/>
        <pt x="876" y="800" on="0"/>
        <pt x="806" y="800" on="1"/>
      </contour>
      <contour>
        <pt x="239" y="800" on="0"/>
        <pt x="157" y="886" on="0"/>
        <pt x="157" y="965" on="1"/>
        <pt x="157" y="998" on="0"/>
        <pt x="164" y="1033" on="1"/>
        <pt x="197" y="1199" on="0"/>
        <pt x="468" y="1404" on="0"/>
        <pt x="701" y="1438" on="1"/>
        <pt x="712" y="1319" on="1"/>
        <pt x="610" y="1300" on="0"/>
        <pt x="458" y="1239" on="0"/>
        <pt x="377" y="1170" on="0"/>
        <pt x="377" y="1138" on="1"/>
        <pt x="377" y="1124" on="0"/>
        <pt x="397" y="1103" on="0"/>
        <pt x="419" y="1091" on="1"/>
        <pt x="452" y="1075" on="0"/>
        <pt x="487" y="1016" on="0"/>
        <pt x="487" y="980" on="1"/>
        <pt x="487" y="967" on="0"/>
        <pt x="484" y="952" on="1"/>
        <pt x="470" y="883" on="0"/>
        <pt x="373" y="800" on="0"/>
        <pt x="303" y="800" on="1"/>
      </contour>
    </TTGlyph>
    <TTGlyph name="quotedblright" xMin="-37" yMin="744" xMax="1021" yMax="1382">
      <component glyphName="quoteright" x="-337" y="0" flags="0x0"/>
      <component glyphName="quoteright" x="166" y="0" flags="0x0"/>
    </TTGlyph>
    <TTGlyph name="quoteleft" xMin="429" yMin="800" xMax="984" yMax="1438">
      <contour>
        <pt x="511" y="800" on="0"/>
        <pt x="429" y="886" on="0"/>
        <pt x="429" y="965" on="1"/>
        <pt x="429" y="998" on="0"/>
        <pt x="436" y="1033" on="1"/>
        <pt x="469" y="1199" on="0"/>
        <pt x="740" y="1404" on="0"/>
        <pt x="973" y="1438" on="1"/>
        <pt x="984" y="1319" on="1"/>
        <pt x="882" y="1300" on="0"/>
        <pt x="730" y="1239" on="0"/>
        <pt x="649" y="1170" on="0"/>
        <pt x="649" y="1138" on="1"/>
        <pt x="649" y="1124" on="0"/>
        <pt x="669" y="1103" on="0"/>
        <pt x="691" y="1091" on="1"/>
        <pt x="724" y="1075" on="0"/>
        <pt x="759" y="1016" on="0"/>
        <pt x="759" y="980" on="1"/>
        <pt x="759" y="967" on="0"/>
        <pt x="756" y="952" on="1"/>
        <pt x="742" y="883" on="0"/>
        <pt x="645" y="800" on="0"/>
        <pt x="575" y="800" on="1"/>
      </contour>
    </TTGlyph>
    <TTGlyph name="quoteright" xMin="300" yMin="744" xMax="855" yMax="1382">
      <contour>
        <pt x="772" y="1382" on="0"/>
        <pt x="855" y="1296" on="0"/>
        <pt x="855" y="1217" on="1"/>
        <pt x="855" y="1183" on="0"/>
        <pt x="848" y="1149" on="1"/>
        <pt x="815" y="983" on="0"/>
        <pt x="544" y="778" on="0"/>
        <pt x="311" y="744" on="1"/>
        <pt x="300" y="863" on="1"/>
        <pt x="401" y="882" on="0"/>
        <pt x="553" y="943" on="0"/>
        <pt x="635" y="1012" on="0"/>
        <pt x="635" y="1044" on="1"/>
        <pt x="635" y="1058" on="0"/>
        <pt x="615" y="1079" on="0"/>
        <pt x="592" y="1091" on="1"/>
        <pt x="560" y="1107" on="0"/>
        <pt x="525" y="1166" on="0"/>
        <pt x="525" y="1202" on="1"/>
        <pt x="525" y="1215" on="0"/>
        <pt x="528" y="1230" on="1"/>
        <pt x="542" y="1299" on="0"/>
        <pt x="638" y="1382" on="0"/>
        <pt x="708" y="1382" on="1"/>
      </contour>
    </TTGlyph>
    <TTGlyph name="quotesinglbase" xMin="-18" yMin="-315" xMax="537" yMax="323">
      <component glyphName="quoteright" x="-318" y="-1059" flags="0x4"/>
    </TTGlyph>
    <TTGlyph name="quotesingle" xMin="514" yMin="756" xMax="821" yMax="1362">
      <contour>
        <pt x="572" y="1362" on="1"/>
        <pt x="821" y="1362" on="1"/>
        <pt x="635" y="756" on="1"/>
        <pt x="514" y="756" on="1"/>
      </contour>
    </TTGlyph>
    <TTGlyph name="r" xMin="45" yMin="0" xMax="972" yMax="1210">
      <contour>
        <pt x="287" y="1210" on="1"/>
        <pt x="589" y="1210" on="1"/>
        <pt x="779" y="1210" on="0"/>
        <pt x="972" y="1062" on="0"/>
        <pt x="972" y="930" on="1"/>
        <pt x="972" y="886" on="0"/>
        <pt x="964" y="849" on="1"/>
        <pt x="936" y="712" on="0"/>
        <pt x="752" y="534" on="0"/>
        <pt x="599" y="508" on="1"/>
        <pt x="834" y="0" on="1"/>
        <pt x="647" y="0" on="1"/>
        <pt x="436" y="492" on="1"/>
        <pt x="295" y="492" on="1"/>
        <pt x="197" y="0" on="1"/>
        <pt x="45" y="0" on="1"/>
      </contour>
      <contour>
        <pt x="761" y="628" on="0"/>
        <pt x="806" y="853" on="1"/>
        <pt x="813" y="892" on="0"/>
        <pt x="813" y="915" on="1"/>
        <pt x="813" y="993" on="0"/>
        <pt x="700" y="1074" on="0"/>
        <pt x="575" y="1074" on="1"/>
        <pt x="412" y="1074" on="1"/>
        <pt x="323" y="628" on="1"/>
        <pt x="492" y="628" on="1"/>
      </contour>
    </TTGlyph>
    <TTGlyph name="racute" xMin="-61" yMin="0" xMax="955" yMax="1794">
      <component glyphName="r" x="-106" y="0" flags="0x0"/>
      <component glyphName="acutecomb" x="-110" y="151" flags="0x4"/>
    </TTGlyph>
    <TTGlyph name="rcaron" xMin="-61" yMin="0" xMax="958" yMax="1794">
      <component glyphName="r" x="-106" y="0" flags="0x0"/>
      <component glyphName="uni030C" x="-110" y="151" flags="0x4"/>
    </TTGlyph>
    <TTGlyph name="ring" xMin="361" yMin="1216" xMax="853" yMax="1675">
      <component glyphName="uni030A" x="-106" y="0" flags="0x0"/>
    </TTGlyph>
    <TTGlyph name="s" xMin="0" yMin="-17" xMax="906" yMax="1229">
      <contour>
        <pt x="220" y="-17" on="0"/>
        <pt x="73" y="36" on="0"/>
        <pt x="0" y="84" on="1"/>
        <pt x="64" y="194" on="1"/>
        <pt x="117" y="162" on="0"/>
        <pt x="253" y="119" on="0"/>
        <pt x="318" y="119" on="1"/>
        <pt x="423" y="119" on="0"/>
        <pt x="571" y="219" on="0"/>
        <pt x="588" y="303" on="1"/>
        <pt x="591" y="321" on="0"/>
        <pt x="591" y="337" on="1"/>
        <pt x="591" y="381" on="0"/>
        <pt x="544" y="457" on="0"/>
        <pt x="474" y="519" on="0"/>
        <pt x="414" y="562" on="1"/>
        <pt x="343" y="614" on="0"/>
        <pt x="256" y="692" on="0"/>
        <pt x="195" y="801" on="0"/>
        <pt x="195" y="869" on="1"/>
        <pt x="195" y="901" on="0"/>
        <pt x="202" y="933" on="1"/>
        <pt x="217" y="1011" on="0"/>
        <pt x="321" y="1146" on="0"/>
        <pt x="489" y="1229" on="0"/>
        <pt x="595" y="1229" on="1"/>
        <pt x="687" y="1229" on="0"/>
        <pt x="846" y="1175" on="0"/>
        <pt x="906" y="1137" on="1"/>
        <pt x="839" y="1030" on="1"/>
        <pt x="714" y="1093" on="0"/>
        <pt x="593" y="1093" on="1"/>
        <pt x="529" y="1093" on="0"/>
        <pt x="426" y="1044" on="0"/>
        <pt x="363" y="968" on="0"/>
        <pt x="355" y="926" on="1"/>
        <pt x="352" y="908" on="0"/>
        <pt x="352" y="892" on="1"/>
        <pt x="352" y="847" on="0"/>
        <pt x="399" y="770" on="0"/>
        <pt x="468" y="710" on="0"/>
        <pt x="529" y="664" on="1"/>
        <pt x="600" y="612" on="0"/>
        <pt x="687" y="533" on="0"/>
        <pt x="748" y="423" on="0"/>
        <pt x="748" y="355" on="1"/>
        <pt x="748" y="323" on="0"/>
        <pt x="741" y="291" on="1"/>
        <pt x="725" y="207" on="0"/>
        <pt x="612" y="67" on="0"/>
        <pt x="428" y="-17" on="0"/>
        <pt x="310" y="-17" on="1"/>
      </contour>
    </TTGlyph>
    <TTGlyph name="sacute" xMin="-106" yMin="-17" xMax="923" yMax="1794">
      <component glyphName="s" x="-106" y="0" flags="0x0"/>
      <component glyphName="acutecomb" x="-142" y="151" flags="0x4"/>
    </TTGlyph>
    <TTGlyph name="scaron" xMin="-106" yMin="-17" xMax="926" yMax="1794">
      <component glyphName="s" x="-106" y="0" flags="0x0"/>
      <component glyphName="uni030C" x="-142" y="151" flags="0x4"/>
    </TTGlyph>
    <TTGlyph name="scedilla" xMin="0" yMin="-303" xMax="906" yMax="1229">
      <contour>
        <pt x="220" y="-17" on="0"/>
        <pt x="73" y="36" on="0"/>
        <pt x="0" y="84" on="1"/>
        <pt x="64" y="194" on="1"/>
        <pt x="117" y="162" on="0"/>
        <pt x="253" y="119" on="0"/>
        <pt x="318" y="119" on="1"/>
        <pt x="423" y="119" on="0"/>
        <pt x="571" y="219" on="0"/>
        <pt x="588" y="303" on="1"/>
        <pt x="591" y="321" on="0"/>
        <pt x="591" y="337" on="1"/>
        <pt x="591" y="381" on="0"/>
        <pt x="544" y="457" on="0"/>
        <pt x="474" y="519" on="0"/>
        <pt x="414" y="562" on="1"/>
        <pt x="343" y="614" on="0"/>
        <pt x="256" y="692" on="0"/>
        <pt x="195" y="801" on="0"/>
        <pt x="195" y="869" on="1"/>
        <pt x="195" y="901" on="0"/>
        <pt x="202" y="933" on="1"/>
        <pt x="217" y="1011" on="0"/>
        <pt x="321" y="1146" on="0"/>
        <pt x="489" y="1229" on="0"/>
        <pt x="595" y="1229" on="1"/>
        <pt x="687" y="1229" on="0"/>
        <pt x="846" y="1175" on="0"/>
        <pt x="906" y="1137" on="1"/>
        <pt x="839" y="1030" on="1"/>
        <pt x="714" y="1093" on="0"/>
        <pt x="593" y="1093" on="1"/>
        <pt x="529" y="1093" on="0"/>
        <pt x="426" y="1044" on="0"/>
        <pt x="363" y="968" on="0"/>
        <pt x="355" y="926" on="1"/>
        <pt x="352" y="908" on="0"/>
        <pt x="352" y="892" on="1"/>
        <pt x="352" y="847" on="0"/>
        <pt x="399" y="770" on="0"/>
        <pt x="468" y="710" on="0"/>
        <pt x="529" y="664" on="1"/>
        <pt x="600" y="612" on="0"/>
        <pt x="687" y="533" on="0"/>
        <pt x="748" y="423" on="0"/>
        <pt x="748" y="355" on="1"/>
        <pt x="748" y="323" on="0"/>
        <pt x="741" y="291" on="1"/>
        <pt x="722" y="197" on="0"/>
        <pt x="588" y="46" on="0"/>
        <pt x="478" y="6" on="1"/>
        <pt x="478" y="-48" on="0"/>
        <pt x="469" y="-89" on="1"/>
        <pt x="448" y="-197" on="0"/>
        <pt x="299" y="-303" on="0"/>
        <pt x="194" y="-303" on="1"/>
        <pt x="137" y="-303" on="0"/>
        <pt x="72" y="-285" on="1"/>
        <pt x="102" y="-162" on="1"/>
        <pt x="129" y="-166" on="0"/>
        <pt x="180" y="-166" on="1"/>
        <pt x="313" y="-166" on="0"/>
        <pt x="338" y="-45" on="1"/>
        <pt x="347" y="-16" on="1"/>
        <pt x="334" y="-17" on="0"/>
        <pt x="310" y="-17" on="1"/>
      </contour>
    </TTGlyph>
    <TTGlyph name="scircumflex" xMin="-106" yMin="-17" xMax="847" yMax="1794">
      <component glyphName="s" x="-106" y="0" flags="0x0"/>
      <component glyphName="uni0302" x="-142" y="151" flags="0x4"/>
    </TTGlyph>
    <TTGlyph name="semicolon" xMin="0" yMin="-303" xMax="684" yMax="1081">
      <component glyphName="comma" x="-134" y="0" flags="0x0"/>
      <component glyphName="period" x="54" y="756" flags="0x4"/>
    </TTGlyph>
    <TTGlyph name="seven" xMin="137" yMin="-309" xMax="1044" yMax="1210">
      <contour>
        <pt x="230" y="-1" on="0"/>
        <pt x="451" y="470" on="0"/>
        <pt x="684" y="837" on="0"/>
        <pt x="848" y="1064" on="1"/>
        <pt x="257" y="1059" on="1"/>
        <pt x="287" y="1210" on="1"/>
        <pt x="1044" y="1210" on="1"/>
        <pt x="1019" y="1073" on="1"/>
        <pt x="837" y="827" on="0"/>
        <pt x="580" y="415" on="0"/>
        <pt x="373" y="-36" on="0"/>
        <pt x="287" y="-309" on="1"/>
        <pt x="137" y="-297" on="1"/>
      </contour>
    </TTGlyph>
    <TTGlyph name="six" xMin="102" yMin="-23" xMax="957" yMax="1381">
      <contour>
        <pt x="331" y="-23" on="0"/>
        <pt x="181" y="73" on="0"/>
        <pt x="102" y="257" on="0"/>
        <pt x="102" y="386" on="1"/>
        <pt x="102" y="482" on="0"/>
        <pt x="124" y="592" on="1"/>
        <pt x="170" y="821" on="0"/>
        <pt x="369" y="1140" on="0"/>
        <pt x="702" y="1339" on="0"/>
        <pt x="948" y="1381" on="1"/>
        <pt x="957" y="1257" on="1"/>
        <pt x="781" y="1219" on="0"/>
        <pt x="541" y="1100" on="0"/>
        <pt x="380" y="911" on="0"/>
        <pt x="331" y="767" on="1"/>
        <pt x="406" y="829" on="0"/>
        <pt x="562" y="898" on="0"/>
        <pt x="654" y="898" on="1"/>
        <pt x="740" y="898" on="0"/>
        <pt x="869" y="820" on="0"/>
        <pt x="939" y="675" on="0"/>
        <pt x="939" y="576" on="1"/>
        <pt x="939" y="515" on="0"/>
        <pt x="926" y="450" on="1"/>
        <pt x="899" y="315" on="0"/>
        <pt x="753" y="99" on="0"/>
        <pt x="547" y="-23" on="0"/>
        <pt x="434" y="-23" on="1"/>
      </contour>
      <contour>
        <pt x="265" y="461" on="0"/>
        <pt x="265" y="372" on="1"/>
        <pt x="265" y="241" on="0"/>
        <pt x="361" y="113" on="0"/>
        <pt x="450" y="113" on="1"/>
        <pt x="566" y="113" on="0"/>
        <pt x="730" y="303" on="0"/>
        <pt x="762" y="464" on="1"/>
        <pt x="773" y="518" on="0"/>
        <pt x="773" y="570" on="1"/>
        <pt x="773" y="667" on="0"/>
        <pt x="682" y="762" on="0"/>
        <pt x="599" y="762" on="1"/>
        <pt x="466" y="762" on="0"/>
        <pt x="298" y="613" on="1"/>
        <pt x="291" y="593" on="1"/>
      </contour>
    </TTGlyph>
    <TTGlyph name="slash" xMin="-12" yMin="-303" xMax="1105" yMax="1513">
      <contour>
        <pt x="961" y="1513" on="1"/>
        <pt x="1105" y="1513" on="1"/>
        <pt x="132" y="-303" on="1"/>
        <pt x="-12" y="-303" on="1"/>
      </contour>
    </TTGlyph>
    <TTGlyph name="t" xMin="230" yMin="0" xMax="1074" yMax="1210">
      <contour>
        <pt x="563" y="1074" on="1"/>
        <pt x="230" y="1074" on="1"/>
        <pt x="257" y="1210" on="1"/>
        <pt x="1074" y="1210" on="1"/>
        <pt x="1047" y="1074" on="1"/>
        <pt x="714" y="1074" on="1"/>
        <pt x="499" y="0" on="1"/>
        <pt x="348" y="0" on="1"/>
      </contour>
    </TTGlyph>
    <TTGlyph name="thorn" xMin="45" yMin="0" xMax="929" yMax="1210">
      <contour>
        <pt x="287" y="1210" on="1"/>
        <pt x="439" y="1210" on="1"/>
        <pt x="396" y="995" on="1"/>
        <pt x="546" y="995" on="1"/>
        <pt x="735" y="995" on="0"/>
        <pt x="929" y="845" on="0"/>
        <pt x="929" y="712" on="1"/>
        <pt x="929" y="672" on="0"/>
        <pt x="920" y="627" on="1"/>
        <pt x="885" y="454" on="0"/>
        <pt x="614" y="253" on="0"/>
        <pt x="387" y="253" on="1"/>
        <pt x="323" y="253" on="0"/>
        <pt x="255" y="262" on="1"/>
        <pt x="197" y="0" on="1"/>
        <pt x="45" y="0" on="1"/>
      </contour>
      <contour>
        <pt x="336" y="390" on="0"/>
        <pt x="396" y="390" on="1"/>
        <pt x="567" y="390" on="0"/>
        <pt x="737" y="511" on="0"/>
        <pt x="761" y="632" on="1"/>
        <pt x="768" y="664" on="0"/>
        <pt x="768" y="697" on="1"/>
        <pt x="768" y="777" on="0"/>
        <pt x="656" y="859" on="0"/>
        <pt x="532" y="859" on="1"/>
        <pt x="369" y="859" on="1"/>
        <pt x="271" y="395" on="1"/>
      </contour>
    </TTGlyph>
    <TTGlyph name="three" xMin="-17" yMin="-322" xMax="952" yMax="1233">
      <contour>
        <pt x="305" y="-151" on="0"/>
        <pt x="642" y="45" on="0"/>
        <pt x="674" y="206" on="1"/>
        <pt x="680" y="235" on="0"/>
        <pt x="680" y="262" on="1"/>
        <pt x="680" y="352" on="0"/>
        <pt x="533" y="454" on="0"/>
        <pt x="374" y="454" on="1"/>
        <pt x="265" y="454" on="1"/>
        <pt x="292" y="590" on="1"/>
        <pt x="334" y="590" on="1"/>
        <pt x="476" y="590" on="0"/>
        <pt x="666" y="678" on="0"/>
        <pt x="763" y="812" on="0"/>
        <pt x="778" y="887" on="1"/>
        <pt x="785" y="918" on="0"/>
        <pt x="785" y="949" on="1"/>
        <pt x="785" y="1021" on="0"/>
        <pt x="700" y="1101" on="0"/>
        <pt x="617" y="1101" on="1"/>
        <pt x="528" y="1101" on="0"/>
        <pt x="367" y="1005" on="0"/>
        <pt x="275" y="923" on="1"/>
        <pt x="196" y="1017" on="1"/>
        <pt x="297" y="1116" on="0"/>
        <pt x="511" y="1233" on="0"/>
        <pt x="646" y="1233" on="1"/>
        <pt x="739" y="1233" on="0"/>
        <pt x="878" y="1165" on="0"/>
        <pt x="952" y="1045" on="0"/>
        <pt x="952" y="969" on="1"/>
        <pt x="952" y="943" on="0"/>
        <pt x="945" y="904" on="1"/>
        <pt x="919" y="777" on="0"/>
        <pt x="732" y="587" on="0"/>
        <pt x="575" y="542" on="1"/>
        <pt x="710" y="514" on="0"/>
        <pt x="843" y="372" on="0"/>
        <pt x="843" y="270" on="1"/>
        <pt x="843" y="233" on="0"/>
        <pt x="836" y="198" on="1"/>
        <pt x="795" y="-2" on="0"/>
        <pt x="374" y="-274" on="0"/>
        <pt x="-12" y="-322" on="1"/>
        <pt x="-17" y="-198" on="1"/>
      </contour>
    </TTGlyph>
    <TTGlyph name="tilde" xMin="247" yMin="1242" xMax="953" yMax="1564">
      <component glyphName="tildecomb" x="-106" y="0" flags="0x0"/>
    </TTGlyph>
    <TTGlyph name="tildecomb" xMin="353" yMin="1242" xMax="1059" yMax="1564">
      <contour>
        <pt x="377" y="1419" on="0"/>
        <pt x="503" y="1562" on="0"/>
        <pt x="604" y="1562" on="1"/>
        <pt x="649" y="1562" on="0"/>
        <pt x="711" y="1530" on="0"/>
        <pt x="746" y="1486" on="0"/>
        <pt x="765" y="1452" on="1"/>
        <pt x="783" y="1420" on="0"/>
        <pt x="809" y="1392" on="0"/>
        <pt x="829" y="1392" on="1"/>
        <pt x="860" y="1392" on="0"/>
        <pt x="908" y="1471" on="0"/>
        <pt x="926" y="1564" on="1"/>
        <pt x="1059" y="1552" on="1"/>
        <pt x="1035" y="1386" on="0"/>
        <pt x="912" y="1244" on="0"/>
        <pt x="810" y="1244" on="1"/>
        <pt x="763" y="1244" on="0"/>
        <pt x="699" y="1277" on="0"/>
        <pt x="663" y="1322" on="0"/>
        <pt x="644" y="1356" on="1"/>
        <pt x="626" y="1387" on="0"/>
        <pt x="600" y="1415" on="0"/>
        <pt x="581" y="1415" on="1"/>
        <pt x="548" y="1415" on="0"/>
        <pt x="502" y="1335" on="0"/>
        <pt x="486" y="1242" on="1"/>
        <pt x="353" y="1254" on="1"/>
      </contour>
    </TTGlyph>
    <TTGlyph name="tildecomb.case" xMin="399" yMin="1469" xMax="1105" yMax="1791">
      <contour>
        <pt x="422" y="1645" on="0"/>
        <pt x="549" y="1789" on="0"/>
        <pt x="650" y="1789" on="1"/>
        <pt x="695" y="1789" on="0"/>
        <pt x="757" y="1757" on="0"/>
        <pt x="792" y="1713" on="0"/>
        <pt x="811" y="1679" on="1"/>
        <pt x="829" y="1647" on="0"/>
        <pt x="855" y="1619" on="0"/>
        <pt x="875" y="1619" on="1"/>
        <pt x="905" y="1619" on="0"/>
        <pt x="953" y="1698" on="0"/>
        <pt x="971" y="1791" on="1"/>
        <pt x="1105" y="1779" on="1"/>
        <pt x="1081" y="1613" on="0"/>
        <pt x="958" y="1471" on="0"/>
        <pt x="856" y="1471" on="1"/>
        <pt x="809" y="1471" on="0"/>
        <pt x="745" y="1503" on="0"/>
        <pt x="709" y="1548" on="0"/>
        <pt x="690" y="1582" on="1"/>
        <pt x="672" y="1613" on="0"/>
        <pt x="646" y="1641" on="0"/>
        <pt x="627" y="1641" on="1"/>
        <pt x="594" y="1641" on="0"/>
        <pt x="547" y="1561" on="0"/>
        <pt x="532" y="1469" on="1"/>
        <pt x="399" y="1481" on="1"/>
      </contour>
    </TTGlyph>
    <TTGlyph name="triagdn" xMin="106" yMin="144" xMax="1165" yMax="1059">
      <contour>
        <pt x="106" y="1059" on="1"/>
        <pt x="1165" y="1059" on="1"/>
        <pt x="452" y="144" on="1"/>
      </contour>
    </TTGlyph>
    <TTGlyph name="triaglf" xMin="-47" yMin="144" xMax="975" yMax="1203">
      <component glyphName="uni25C0" x="-106" y="0" flags="0x0"/>
    </TTGlyph>
    <TTGlyph name="triagrt" xMin="-70" yMin="144" xMax="952" yMax="1203">
      <component glyphName="uni25B6" x="-106" y="0" flags="0x0"/>
    </TTGlyph>
    <TTGlyph name="triagup" xMin="-45" yMin="303" xMax="1014" yMax="1218">
      <contour>
        <pt x="667" y="1218" on="1"/>
        <pt x="1014" y="303" on="1"/>
        <pt x="-45" y="303" on="1"/>
      </contour>
    </TTGlyph>
    <TTGlyph name="two" xMin="42" yMin="0" xMax="955" yMax="1233">
      <contour>
        <pt x="318" y="304" on="0"/>
        <pt x="613" y="542" on="0"/>
        <pt x="762" y="743" on="0"/>
        <pt x="783" y="849" on="1"/>
        <pt x="792" y="893" on="0"/>
        <pt x="792" y="930" on="1"/>
        <pt x="792" y="1013" on="0"/>
        <pt x="704" y="1097" on="0"/>
        <pt x="618" y="1097" on="1"/>
        <pt x="549" y="1097" on="0"/>
        <pt x="392" y="1036" on="0"/>
        <pt x="295" y="974" on="1"/>
        <pt x="236" y="1082" on="1"/>
        <pt x="348" y="1162" on="0"/>
        <pt x="537" y="1233" on="0"/>
        <pt x="640" y="1233" on="1"/>
        <pt x="737" y="1233" on="0"/>
        <pt x="879" y="1161" on="0"/>
        <pt x="955" y="1030" on="0"/>
        <pt x="955" y="941" on="1"/>
        <pt x="955" y="902" on="0"/>
        <pt x="945" y="849" on="1"/>
        <pt x="910" y="671" on="0"/>
        <pt x="578" y="324" on="0"/>
        <pt x="259" y="133" on="1"/>
        <pt x="825" y="136" on="1"/>
        <pt x="798" y="0" on="1"/>
        <pt x="42" y="0" on="1"/>
        <pt x="65" y="138" on="1"/>
      </contour>
    </TTGlyph>
    <TTGlyph name="u" xMin="107" yMin="-23" xMax="1038" yMax="1210">
      <contour>
        <pt x="271" y="-23" on="0"/>
        <pt x="107" y="124" on="0"/>
        <pt x="107" y="261" on="1"/>
        <pt x="107" y="313" on="0"/>
        <pt x="119" y="371" on="1"/>
        <pt x="287" y="1210" on="1"/>
        <pt x="439" y="1210" on="1"/>
        <pt x="270" y="363" on="1"/>
        <pt x="261" y="317" on="0"/>
        <pt x="261" y="279" on="1"/>
        <pt x="261" y="197" on="0"/>
        <pt x="351" y="117" on="0"/>
        <pt x="445" y="117" on="1"/>
        <pt x="556" y="117" on="0"/>
        <pt x="708" y="258" on="0"/>
        <pt x="734" y="388" on="1"/>
        <pt x="898" y="1210" on="1"/>
        <pt x="1038" y="1210" on="1"/>
        <pt x="871" y="376" on="1"/>
        <pt x="844" y="242" on="0"/>
        <pt x="712" y="63" on="0"/>
        <pt x="529" y="-23" on="0"/>
        <pt x="424" y="-23" on="1"/>
      </contour>
    </TTGlyph>
    <TTGlyph name="uacute" xMin="1" yMin="-23" xMax="999" yMax="1794">
      <component glyphName="u" x="-106" y="0" flags="0x0"/>
      <component glyphName="acutecomb" x="-66" y="151" flags="0x4"/>
    </TTGlyph>
    <TTGlyph name="ubreve" xMin="1" yMin="-23" xMax="967" yMax="1744">
      <component glyphName="u" x="-106" y="0" flags="0x0"/>
      <component glyphName="uni0306" x="-66" y="151" flags="0x4"/>
    </TTGlyph>
    <TTGlyph name="ucircumflex" xMin="1" yMin="-23" xMax="932" yMax="1794">
      <component glyphName="u" x="-106" y="0" flags="0x0"/>
      <component glyphName="uni0302" x="-66" y="151" flags="0x4"/>
    </TTGlyph>
    <TTGlyph name="udieresis" xMin="1" yMin="-23" xMax="952" yMax="1675">
      <component glyphName="u" x="-106" y="0" flags="0x0"/>
      <component glyphName="uni0308" x="-66" y="151" flags="0x4"/>
    </TTGlyph>
    <TTGlyph name="ugrave" xMin="1" yMin="-23" xMax="932" yMax="1794">
      <component glyphName="u" x="-106" y="0" flags="0x0"/>
      <component glyphName="gravecomb" x="-66" y="151" flags="0x4"/>
    </TTGlyph>
    <TTGlyph name="umacron" xMin="1" yMin="-23" xMax="945" yMax="1622">
      <component glyphName="u" x="-106" y="0" flags="0x0"/>
      <component glyphName="uni0304" x="-66" y="151" flags="0x4"/>
    </TTGlyph>
    <TTGlyph name="underscore" xMin="45" yMin="0" xMax="829" yMax="136">
      <contour>
        <pt x="802" y="0" on="1"/>
        <pt x="45" y="0" on="1"/>
        <pt x="72" y="136" on="1"/>
        <pt x="829" y="136" on="1"/>
      </contour>
    </TTGlyph>
    <TTGlyph name="uni004A0301" xMin="-119" yMin="-23" xMax="959" yMax="1870">
      <component glyphName="J" x="-106" y="0" flags="0x0"/>
      <component glyphName="acutecomb.case" x="-151" y="0" flags="0x0"/>
    </TTGlyph>
    <TTGlyph name="uni006A0301" xMin="-225" yMin="-23" xMax="944" yMax="1794">
      <component glyphName="uni0237" x="-106" y="0" flags="0x0"/>
      <component glyphName="acutecomb" x="-121" y="151" flags="0x4"/>
    </TTGlyph>
    <TTGlyph name="uni00AD" xMin="60" yMin="605" xMax="844" yMax="738">
      <component glyphName="hyphen" x="-106" y="0" flags="0x0"/>
    </TTGlyph>
    <TTGlyph name="uni00B5" xMin="-16" yMin="-303" xMax="1038" yMax="1210">
      <contour>
        <pt x="106" y="303" on="1"/>
        <pt x="110" y="309" on="1"/>
        <pt x="113" y="337" on="0"/>
        <pt x="119" y="371" on="1"/>
        <pt x="287" y="1210" on="1"/>
        <pt x="439" y="1210" on="1"/>
        <pt x="270" y="363" on="1"/>
        <pt x="261" y="317" on="0"/>
        <pt x="261" y="279" on="1"/>
        <pt x="261" y="197" on="0"/>
        <pt x="351" y="117" on="0"/>
        <pt x="445" y="117" on="1"/>
        <pt x="556" y="117" on="0"/>
        <pt x="708" y="258" on="0"/>
        <pt x="734" y="388" on="1"/>
        <pt x="898" y="1210" on="1"/>
        <pt x="1038" y="1210" on="1"/>
        <pt x="871" y="376" on="1"/>
        <pt x="844" y="242" on="0"/>
        <pt x="712" y="63" on="0"/>
        <pt x="529" y="-23" on="0"/>
        <pt x="424" y="-23" on="1"/>
        <pt x="290" y="-23" on="0"/>
        <pt x="209" y="37" on="1"/>
        <pt x="136" y="-303" on="1"/>
        <pt x="-16" y="-303" on="1"/>
      </contour>
    </TTGlyph>
    <TTGlyph name="uni0122" xMin="128" yMin="-303" xMax="1044" yMax="1382">
      <contour>
        <pt x="303" y="-21" on="0"/>
        <pt x="128" y="190" on="0"/>
        <pt x="128" y="398" on="1"/>
        <pt x="128" y="530" on="0"/>
        <pt x="160" y="687" on="1"/>
        <pt x="300" y="1382" on="0"/>
        <pt x="755" y="1382" on="1"/>
        <pt x="832" y="1382" on="0"/>
        <pt x="973" y="1339" on="0"/>
        <pt x="1044" y="1294" on="1"/>
        <pt x="978" y="1181" on="1"/>
        <pt x="911" y="1216" on="0"/>
        <pt x="798" y="1246" on="0"/>
        <pt x="739" y="1246" on="1"/>
        <pt x="581" y="1246" on="0"/>
        <pt x="371" y="964" on="0"/>
        <pt x="313" y="675" on="1"/>
        <pt x="280" y="510" on="0"/>
        <pt x="280" y="397" on="1"/>
        <pt x="280" y="252" on="0"/>
        <pt x="391" y="115" on="0"/>
        <pt x="508" y="115" on="1"/>
        <pt x="576" y="115" on="0"/>
        <pt x="673" y="140" on="1"/>
        <pt x="744" y="469" on="1"/>
        <pt x="506" y="469" on="1"/>
        <pt x="533" y="605" on="1"/>
        <pt x="923" y="605" on="1"/>
        <pt x="816" y="45" on="1"/>
        <pt x="644" y="-21" on="0"/>
        <pt x="477" y="-21" on="1"/>
      </contour>
      <contour>
        <pt x="298" y="-91" on="1"/>
        <pt x="544" y="-91" on="1"/>
        <pt x="332" y="-303" on="1"/>
        <pt x="217" y="-303" on="1"/>
      </contour>
    </TTGlyph>
    <TTGlyph name="uni0123" xMin="119" yMin="-303" xMax="1014" yMax="1231">
      <contour>
        <pt x="302" y="-21" on="0"/>
        <pt x="119" y="175" on="0"/>
        <pt x="119" y="374" on="1"/>
        <pt x="119" y="482" on="0"/>
        <pt x="145" y="611" on="1"/>
        <pt x="270" y="1231" on="0"/>
        <pt x="725" y="1231" on="1"/>
        <pt x="806" y="1231" on="0"/>
        <pt x="947" y="1185" on="0"/>
        <pt x="1014" y="1143" on="1"/>
        <pt x="948" y="1030" on="1"/>
        <pt x="892" y="1060" on="0"/>
        <pt x="775" y="1095" on="0"/>
        <pt x="708" y="1095" on="1"/>
        <pt x="564" y="1095" on="0"/>
        <pt x="353" y="873" on="0"/>
        <pt x="298" y="599" on="1"/>
        <pt x="272" y="467" on="0"/>
        <pt x="272" y="378" on="1"/>
        <pt x="272" y="242" on="0"/>
        <pt x="388" y="115" on="0"/>
        <pt x="508" y="115" on="1"/>
        <pt x="575" y="115" on="0"/>
        <pt x="673" y="140" on="1"/>
        <pt x="744" y="469" on="1"/>
        <pt x="506" y="469" on="1"/>
        <pt x="533" y="605" on="1"/>
        <pt x="923" y="605" on="1"/>
        <pt x="816" y="45" on="1"/>
        <pt x="734" y="13" on="0"/>
        <pt x="568" y="-21" on="0"/>
        <pt x="477" y="-21" on="1"/>
      </contour>
      <contour>
        <pt x="298" y="-91" on="1"/>
        <pt x="544" y="-91" on="1"/>
        <pt x="332" y="-303" on="1"/>
        <pt x="217" y="-303" on="1"/>
      </contour>
    </TTGlyph>
    <TTGlyph name="uni0136" xMin="45" yMin="-303" xMax="1061" yMax="1362">
      <contour>
        <pt x="318" y="1362" on="1"/>
        <pt x="470" y="1362" on="1"/>
        <pt x="346" y="744" on="1"/>
        <pt x="887" y="1362" on="1"/>
        <pt x="1061" y="1362" on="1"/>
        <pt x="473" y="708" on="1"/>
        <pt x="819" y="0" on="1"/>
        <pt x="630" y="0" on="1"/>
        <pt x="327" y="648" on="1"/>
        <pt x="197" y="0" on="1"/>
        <pt x="45" y="0" on="1"/>
      </contour>
      <contour>
        <pt x="261" y="-91" on="1"/>
        <pt x="507" y="-91" on="1"/>
        <pt x="295" y="-303" on="1"/>
        <pt x="180" y="-303" on="1"/>
      </contour>
    </TTGlyph>
    <TTGlyph name="uni0137" xMin="45" yMin="-303" xMax="1030" yMax="1210">
      <contour>
        <pt x="45" y="0" on="1"/>
        <pt x="287" y="1210" on="1"/>
        <pt x="439" y="1210" on="1"/>
        <pt x="329" y="659" on="1"/>
        <pt x="856" y="1210" on="1"/>
        <pt x="1030" y="1210" on="1"/>
        <pt x="460" y="630" on="1"/>
        <pt x="819" y="0" on="1"/>
        <pt x="630" y="0" on="1"/>
        <pt x="313" y="581" on="1"/>
        <pt x="197" y="0" on="1"/>
      </contour>
      <contour>
        <pt x="261" y="-91" on="1"/>
        <pt x="507" y="-91" on="1"/>
        <pt x="295" y="-303" on="1"/>
        <pt x="180" y="-303" on="1"/>
      </contour>
    </TTGlyph>
    <TTGlyph name="uni013B" xMin="45" yMin="-303" xMax="753" yMax="1362">
      <contour>
        <pt x="318" y="1362" on="1"/>
        <pt x="470" y="1362" on="1"/>
        <pt x="224" y="136" on="1"/>
        <pt x="753" y="136" on="1"/>
        <pt x="726" y="0" on="1"/>
        <pt x="45" y="0" on="1"/>
      </contour>
      <contour>
        <pt x="223" y="-91" on="1"/>
        <pt x="469" y="-91" on="1"/>
        <pt x="257" y="-303" on="1"/>
        <pt x="142" y="-303" on="1"/>
      </contour>
    </TTGlyph>
    <TTGlyph name="uni013C" xMin="45" yMin="-303" xMax="753" yMax="1210">
      <contour>
        <pt x="287" y="1210" on="1"/>
        <pt x="439" y="1210" on="1"/>
        <pt x="224" y="136" on="1"/>
        <pt x="753" y="136" on="1"/>
        <pt x="726" y="0" on="1"/>
        <pt x="45" y="0" on="1"/>
      </contour>
      <contour>
        <pt x="223" y="-91" on="1"/>
        <pt x="469" y="-91" on="1"/>
        <pt x="257" y="-303" on="1"/>
        <pt x="142" y="-303" on="1"/>
      </contour>
    </TTGlyph>
    <TTGlyph name="uni0145" xMin="45" yMin="-303" xMax="1075" yMax="1362">
      <contour>
        <pt x="318" y="1362" on="1"/>
        <pt x="487" y="1362" on="1"/>
        <pt x="741" y="393" on="1"/>
        <pt x="935" y="1362" on="1"/>
        <pt x="1075" y="1362" on="1"/>
        <pt x="802" y="0" on="1"/>
        <pt x="677" y="0" on="1"/>
        <pt x="398" y="1063" on="1"/>
        <pt x="185" y="0" on="1"/>
        <pt x="45" y="0" on="1"/>
      </contour>
      <contour>
        <pt x="298" y="-91" on="1"/>
        <pt x="544" y="-91" on="1"/>
        <pt x="332" y="-303" on="1"/>
        <pt x="217" y="-303" on="1"/>
      </contour>
    </TTGlyph>
    <TTGlyph name="uni0146" xMin="45" yMin="-303" xMax="1044" yMax="1210">
      <contour>
        <pt x="287" y="1210" on="1"/>
        <pt x="448" y="1210" on="1"/>
        <pt x="730" y="342" on="1"/>
        <pt x="904" y="1210" on="1"/>
        <pt x="1044" y="1210" on="1"/>
        <pt x="802" y="0" on="1"/>
        <pt x="669" y="0" on="1"/>
        <pt x="371" y="927" on="1"/>
        <pt x="185" y="0" on="1"/>
        <pt x="45" y="0" on="1"/>
      </contour>
      <contour>
        <pt x="298" y="-91" on="1"/>
        <pt x="544" y="-91" on="1"/>
        <pt x="332" y="-303" on="1"/>
        <pt x="217" y="-303" on="1"/>
      </contour>
    </TTGlyph>
    <TTGlyph name="uni0156" xMin="45" yMin="-303" xMax="997" yMax="1362">
      <contour>
        <pt x="318" y="1362" on="1"/>
        <pt x="619" y="1362" on="1"/>
        <pt x="806" y="1362" on="0"/>
        <pt x="997" y="1202" on="0"/>
        <pt x="997" y="1060" on="1"/>
        <pt x="997" y="1011" on="0"/>
        <pt x="987" y="962" on="1"/>
        <pt x="956" y="810" on="0"/>
        <pt x="767" y="613" on="0"/>
        <pt x="611" y="584" on="1"/>
        <pt x="834" y="0" on="1"/>
        <pt x="647" y="0" on="1"/>
        <pt x="447" y="567" on="1"/>
        <pt x="311" y="567" on="1"/>
        <pt x="197" y="0" on="1"/>
        <pt x="45" y="0" on="1"/>
      </contour>
      <contour>
        <pt x="776" y="703" on="0"/>
        <pt x="828" y="967" on="1"/>
        <pt x="837" y="1011" on="0"/>
        <pt x="837" y="1048" on="1"/>
        <pt x="837" y="1135" on="0"/>
        <pt x="726" y="1225" on="0"/>
        <pt x="605" y="1225" on="1"/>
        <pt x="442" y="1225" on="1"/>
        <pt x="338" y="703" on="1"/>
        <pt x="507" y="703" on="1"/>
      </contour>
      <contour>
        <pt x="298" y="-91" on="1"/>
        <pt x="544" y="-91" on="1"/>
        <pt x="332" y="-303" on="1"/>
        <pt x="217" y="-303" on="1"/>
      </contour>
    </TTGlyph>
    <TTGlyph name="uni0157" xMin="45" yMin="-303" xMax="972" yMax="1210">
      <contour>
        <pt x="287" y="1210" on="1"/>
        <pt x="589" y="1210" on="1"/>
        <pt x="779" y="1210" on="0"/>
        <pt x="972" y="1062" on="0"/>
        <pt x="972" y="930" on="1"/>
        <pt x="972" y="886" on="0"/>
        <pt x="964" y="849" on="1"/>
        <pt x="936" y="712" on="0"/>
        <pt x="752" y="534" on="0"/>
        <pt x="599" y="508" on="1"/>
        <pt x="834" y="0" on="1"/>
        <pt x="647" y="0" on="1"/>
        <pt x="436" y="492" on="1"/>
        <pt x="295" y="492" on="1"/>
        <pt x="197" y="0" on="1"/>
        <pt x="45" y="0" on="1"/>
      </contour>
      <contour>
        <pt x="761" y="628" on="0"/>
        <pt x="806" y="853" on="1"/>
        <pt x="813" y="892" on="0"/>
        <pt x="813" y="915" on="1"/>
        <pt x="813" y="993" on="0"/>
        <pt x="700" y="1074" on="0"/>
        <pt x="575" y="1074" on="1"/>
        <pt x="412" y="1074" on="1"/>
        <pt x="323" y="628" on="1"/>
        <pt x="492" y="628" on="1"/>
      </contour>
      <contour>
        <pt x="298" y="-91" on="1"/>
        <pt x="544" y="-91" on="1"/>
        <pt x="332" y="-303" on="1"/>
        <pt x="217" y="-303" on="1"/>
      </contour>
    </TTGlyph>
    <TTGlyph name="uni0162" xMin="82" yMin="-303" xMax="1105" yMax="1362">
      <contour>
        <pt x="593" y="1225" on="1"/>
        <pt x="260" y="1225" on="1"/>
        <pt x="288" y="1362" on="1"/>
        <pt x="1105" y="1362" on="1"/>
        <pt x="1077" y="1225" on="1"/>
        <pt x="744" y="1225" on="1"/>
        <pt x="499" y="0" on="1"/>
        <pt x="488" y="-6" on="1"/>
        <pt x="486" y="-56" on="0"/>
        <pt x="479" y="-89" on="1"/>
        <pt x="458" y="-197" on="0"/>
        <pt x="309" y="-303" on="0"/>
        <pt x="204" y="-303" on="1"/>
        <pt x="147" y="-303" on="0"/>
        <pt x="82" y="-285" on="1"/>
        <pt x="112" y="-162" on="1"/>
        <pt x="139" y="-166" on="0"/>
        <pt x="190" y="-166" on="1"/>
        <pt x="323" y="-166" on="0"/>
        <pt x="348" y="-45" on="1"/>
        <pt x="355" y="-9" on="0"/>
        <pt x="356" y="6" on="1"/>
        <pt x="348" y="0" on="1"/>
      </contour>
    </TTGlyph>
    <TTGlyph name="uni0163" xMin="82" yMin="-303" xMax="1074" yMax="1210">
      <contour>
        <pt x="563" y="1074" on="1"/>
        <pt x="230" y="1074" on="1"/>
        <pt x="257" y="1210" on="1"/>
        <pt x="1074" y="1210" on="1"/>
        <pt x="1047" y="1074" on="1"/>
        <pt x="714" y="1074" on="1"/>
        <pt x="499" y="0" on="1"/>
        <pt x="488" y="-6" on="1"/>
        <pt x="486" y="-56" on="0"/>
        <pt x="479" y="-89" on="1"/>
        <pt x="458" y="-197" on="0"/>
        <pt x="309" y="-303" on="0"/>
        <pt x="204" y="-303" on="1"/>
        <pt x="147" y="-303" on="0"/>
        <pt x="82" y="-285" on="1"/>
        <pt x="112" y="-162" on="1"/>
        <pt x="139" y="-166" on="0"/>
        <pt x="190" y="-166" on="1"/>
        <pt x="323" y="-166" on="0"/>
        <pt x="348" y="-45" on="1"/>
        <pt x="355" y="-9" on="0"/>
        <pt x="356" y="6" on="1"/>
        <pt x="348" y="0" on="1"/>
      </contour>
    </TTGlyph>
    <TTGlyph name="uni018F" xMin="124" yMin="-19" xMax="994" yMax="1380">
      <contour>
        <pt x="281" y="-19" on="0"/>
        <pt x="124" y="189" on="0"/>
        <pt x="124" y="394" on="1"/>
        <pt x="124" y="548" on="0"/>
        <pt x="171" y="751" on="1"/>
        <pt x="822" y="751" on="1"/>
        <pt x="842" y="864" on="0"/>
        <pt x="842" y="958" on="1"/>
        <pt x="842" y="1106" on="0"/>
        <pt x="727" y="1244" on="0"/>
        <pt x="608" y="1244" on="1"/>
        <pt x="544" y="1244" on="0"/>
        <pt x="415" y="1214" on="0"/>
        <pt x="341" y="1189" on="1"/>
        <pt x="318" y="1316" on="1"/>
        <pt x="401" y="1346" on="0"/>
        <pt x="556" y="1380" on="0"/>
        <pt x="634" y="1380" on="1"/>
        <pt x="804" y="1380" on="0"/>
        <pt x="994" y="1176" on="0"/>
        <pt x="994" y="955" on="1"/>
        <pt x="994" y="832" on="0"/>
        <pt x="963" y="673" on="1"/>
        <pt x="894" y="327" on="0"/>
        <pt x="612" y="-19" on="0"/>
        <pt x="416" y="-19" on="1"/>
      </contour>
      <contour>
        <pt x="271" y="470" on="0"/>
        <pt x="271" y="371" on="1"/>
        <pt x="271" y="249" on="0"/>
        <pt x="350" y="113" on="0"/>
        <pt x="435" y="113" on="1"/>
        <pt x="565" y="113" on="0"/>
        <pt x="741" y="375" on="0"/>
        <pt x="795" y="615" on="1"/>
        <pt x="296" y="603" on="1"/>
      </contour>
    </TTGlyph>
    <TTGlyph name="uni01CD" xMin="-142" yMin="0" xMax="1007" yMax="1870">
      <component glyphName="A" x="-106" y="0" flags="0x0"/>
      <component glyphName="uni030C.case" x="-106" y="0" flags="0x0"/>
    </TTGlyph>
    <TTGlyph name="uni01CE" xMin="-248" yMin="0" xMax="992" yMax="1794">
      <component glyphName="a" x="-106" y="0" flags="0x0"/>
      <component glyphName="uni030C" x="-76" y="151" flags="0x4"/>
    </TTGlyph>
    <TTGlyph name="uni01CF" xMin="-61" yMin="0" xMax="932" yMax="1870">
      <component glyphName="I" x="-106" y="0" flags="0x0"/>
      <component glyphName="uni030C.case" x="-181" y="0" flags="0x0"/>
    </TTGlyph>
    <TTGlyph name="uni01D0" xMin="-167" yMin="0" xMax="917" yMax="1794">
      <component glyphName="dotlessi" x="-106" y="0" flags="0x0"/>
      <component glyphName="uni030C" x="-151" y="151" flags="0x4"/>
    </TTGlyph>
    <TTGlyph name="uni01D1" xMin="-7" yMin="-19" xMax="1007" yMax="1870">
      <component glyphName="O" x="-106" y="0" flags="0x0"/>
      <component glyphName="uni030C.case" x="-106" y="0" flags="0x0"/>
    </TTGlyph>
    <TTGlyph name="uni01D2" xMin="-16" yMin="-19" xMax="992" yMax="1794">
      <component glyphName="o" x="-106" y="0" flags="0x0"/>
      <component glyphName="uni030C" x="-76" y="151" flags="0x4"/>
    </TTGlyph>
    <TTGlyph name="uni01D3" xMin="1" yMin="-23" xMax="1017" yMax="1870">
      <component glyphName="U" x="-106" y="0" flags="0x0"/>
      <component glyphName="uni030C.case" x="-96" y="0" flags="0x0"/>
    </TTGlyph>
    <TTGlyph name="uni01D4" xMin="1" yMin="-23" xMax="1002" yMax="1794">
      <component glyphName="u" x="-106" y="0" flags="0x0"/>
      <component glyphName="uni030C" x="-66" y="151" flags="0x4"/>
    </TTGlyph>
    <TTGlyph name="uni0218" xMin="0" yMin="-303" xMax="936" yMax="1380">
      <contour>
        <pt x="226" y="-17" on="0"/>
        <pt x="77" y="32" on="0"/>
        <pt x="0" y="84" on="1"/>
        <pt x="64" y="194" on="1"/>
        <pt x="123" y="158" on="0"/>
        <pt x="259" y="119" on="0"/>
        <pt x="318" y="119" on="1"/>
        <pt x="387" y="119" on="0"/>
        <pt x="503" y="171" on="0"/>
        <pt x="580" y="266" on="0"/>
        <pt x="592" y="327" on="1"/>
        <pt x="597" y="354" on="0"/>
        <pt x="597" y="374" on="1"/>
        <pt x="597" y="426" on="0"/>
        <pt x="550" y="516" on="0"/>
        <pt x="480" y="588" on="0"/>
        <pt x="421" y="640" on="1"/>
        <pt x="354" y="699" on="0"/>
        <pt x="273" y="786" on="0"/>
        <pt x="216" y="902" on="0"/>
        <pt x="216" y="973" on="1"/>
        <pt x="216" y="1004" on="0"/>
        <pt x="224" y="1046" on="1"/>
        <pt x="244" y="1143" on="0"/>
        <pt x="359" y="1295" on="0"/>
        <pt x="528" y="1380" on="0"/>
        <pt x="625" y="1380" on="1"/>
        <pt x="703" y="1380" on="0"/>
        <pt x="869" y="1331" on="0"/>
        <pt x="936" y="1289" on="1"/>
        <pt x="869" y="1181" on="1"/>
        <pt x="751" y="1244" on="0"/>
        <pt x="623" y="1244" on="1"/>
        <pt x="566" y="1244" on="0"/>
        <pt x="462" y="1191" on="0"/>
        <pt x="390" y="1100" on="0"/>
        <pt x="379" y="1045" on="1"/>
        <pt x="374" y="1017" on="0"/>
        <pt x="374" y="997" on="1"/>
        <pt x="374" y="944" on="0"/>
        <pt x="420" y="856" on="0"/>
        <pt x="488" y="787" on="0"/>
        <pt x="548" y="735" on="1"/>
        <pt x="616" y="677" on="0"/>
        <pt x="698" y="592" on="0"/>
        <pt x="755" y="474" on="0"/>
        <pt x="755" y="400" on="1"/>
        <pt x="755" y="358" on="0"/>
        <pt x="747" y="319" on="1"/>
        <pt x="727" y="221" on="0"/>
        <pt x="603" y="68" on="0"/>
        <pt x="418" y="-17" on="0"/>
        <pt x="310" y="-17" on="1"/>
      </contour>
      <contour>
        <pt x="159" y="-91" on="1"/>
        <pt x="405" y="-91" on="1"/>
        <pt x="193" y="-303" on="1"/>
        <pt x="78" y="-303" on="1"/>
      </contour>
    </TTGlyph>
    <TTGlyph name="uni0219" xMin="0" yMin="-303" xMax="906" yMax="1229">
      <contour>
        <pt x="220" y="-17" on="0"/>
        <pt x="73" y="36" on="0"/>
        <pt x="0" y="84" on="1"/>
        <pt x="64" y="194" on="1"/>
        <pt x="117" y="162" on="0"/>
        <pt x="253" y="119" on="0"/>
        <pt x="318" y="119" on="1"/>
        <pt x="423" y="119" on="0"/>
        <pt x="571" y="219" on="0"/>
        <pt x="588" y="303" on="1"/>
        <pt x="591" y="321" on="0"/>
        <pt x="591" y="337" on="1"/>
        <pt x="591" y="381" on="0"/>
        <pt x="544" y="457" on="0"/>
        <pt x="474" y="519" on="0"/>
        <pt x="414" y="562" on="1"/>
        <pt x="343" y="614" on="0"/>
        <pt x="256" y="692" on="0"/>
        <pt x="195" y="801" on="0"/>
        <pt x="195" y="869" on="1"/>
        <pt x="195" y="901" on="0"/>
        <pt x="202" y="933" on="1"/>
        <pt x="217" y="1011" on="0"/>
        <pt x="321" y="1146" on="0"/>
        <pt x="489" y="1229" on="0"/>
        <pt x="595" y="1229" on="1"/>
        <pt x="687" y="1229" on="0"/>
        <pt x="846" y="1175" on="0"/>
        <pt x="906" y="1137" on="1"/>
        <pt x="839" y="1030" on="1"/>
        <pt x="714" y="1093" on="0"/>
        <pt x="593" y="1093" on="1"/>
        <pt x="529" y="1093" on="0"/>
        <pt x="426" y="1044" on="0"/>
        <pt x="363" y="968" on="0"/>
        <pt x="355" y="926" on="1"/>
        <pt x="352" y="908" on="0"/>
        <pt x="352" y="892" on="1"/>
        <pt x="352" y="847" on="0"/>
        <pt x="399" y="770" on="0"/>
        <pt x="468" y="710" on="0"/>
        <pt x="529" y="664" on="1"/>
        <pt x="600" y="612" on="0"/>
        <pt x="687" y="533" on="0"/>
        <pt x="748" y="423" on="0"/>
        <pt x="748" y="355" on="1"/>
        <pt x="748" y="323" on="0"/>
        <pt x="741" y="291" on="1"/>
        <pt x="725" y="207" on="0"/>
        <pt x="612" y="67" on="0"/>
        <pt x="428" y="-17" on="0"/>
        <pt x="310" y="-17" on="1"/>
      </contour>
      <contour>
        <pt x="159" y="-91" on="1"/>
        <pt x="405" y="-91" on="1"/>
        <pt x="193" y="-303" on="1"/>
        <pt x="78" y="-303" on="1"/>
      </contour>
    </TTGlyph>
    <TTGlyph name="uni021A" xMin="217" yMin="-303" xMax="1105" yMax="1362">
      <contour>
        <pt x="593" y="1225" on="1"/>
        <pt x="260" y="1225" on="1"/>
        <pt x="288" y="1362" on="1"/>
        <pt x="1105" y="1362" on="1"/>
        <pt x="1077" y="1225" on="1"/>
        <pt x="744" y="1225" on="1"/>
        <pt x="499" y="0" on="1"/>
        <pt x="348" y="0" on="1"/>
      </contour>
      <contour>
        <pt x="298" y="-91" on="1"/>
        <pt x="544" y="-91" on="1"/>
        <pt x="332" y="-303" on="1"/>
        <pt x="217" y="-303" on="1"/>
      </contour>
    </TTGlyph>
    <TTGlyph name="uni021B" xMin="217" yMin="-303" xMax="1074" yMax="1210">
      <contour>
        <pt x="563" y="1074" on="1"/>
        <pt x="230" y="1074" on="1"/>
        <pt x="257" y="1210" on="1"/>
        <pt x="1074" y="1210" on="1"/>
        <pt x="1047" y="1074" on="1"/>
        <pt x="714" y="1074" on="1"/>
        <pt x="499" y="0" on="1"/>
        <pt x="348" y="0" on="1"/>
      </contour>
      <contour>
        <pt x="298" y="-91" on="1"/>
        <pt x="544" y="-91" on="1"/>
        <pt x="332" y="-303" on="1"/>
        <pt x="217" y="-303" on="1"/>
      </contour>
    </TTGlyph>
    <TTGlyph name="uni0232" xMin="87" yMin="0" xMax="954" yMax="1710">
      <component glyphName="Y" x="-106" y="0" flags="0x0"/>
      <component glyphName="uni0304.case" x="-172" y="0" flags="0x0"/>
    </TTGlyph>
    <TTGlyph name="uni0233" xMin="56" yMin="0" xMax="923" yMax="1622">
      <component glyphName="y" x="-106" y="0" flags="0x0"/>
      <component glyphName="uni0304" x="-142" y="151" flags="0x4"/>
    </TTGlyph>
    <TTGlyph name="uni0237" xMin="-119" yMin="-23" xMax="802" yMax="1210">
      <component glyphName="j" x="-106" y="0" flags="0x0"/>
    </TTGlyph>
    <TTGlyph name="uni0237.sans" xMin="-119" yMin="-303" xMax="605" yMax="1059">
      <component glyphName="uni0237.sans.prop" x="178" y="0" flags="0x0"/>
    </TTGlyph>
    <TTGlyph name="uni0237.sans.prop" xMin="-297" yMin="-303" xMax="427" yMax="1059">
      <contour>
        <pt x="-187" y="-303" on="0"/>
        <pt x="-297" y="-272" on="1"/>
        <pt x="-268" y="-152" on="1"/>
        <pt x="-178" y="-170" on="0"/>
        <pt x="-109" y="-170" on="1"/>
        <pt x="-41" y="-170" on="0"/>
        <pt x="44" y="-97" on="0"/>
        <pt x="59" y="-24" on="1"/>
        <pt x="276" y="1059" on="1"/>
        <pt x="427" y="1059" on="1"/>
        <pt x="209" y="-32" on="1"/>
        <pt x="183" y="-161" on="0"/>
        <pt x="28" y="-303" on="0"/>
        <pt x="-100" y="-303" on="1"/>
      </contour>
    </TTGlyph>
    <TTGlyph name="uni0245" xMin="-27" yMin="0" xMax="875" yMax="1362">
      <contour>
        <pt x="875" y="0" on="1"/>
        <pt x="707" y="0" on="1"/>
        <pt x="650" y="1127" on="1"/>
        <pt x="125" y="0" on="1"/>
        <pt x="-27" y="0" on="1"/>
        <pt x="623" y="1362" on="1"/>
        <pt x="780" y="1362" on="1"/>
      </contour>
    </TTGlyph>
    <TTGlyph name="uni0259" xMin="115" yMin="-19" xMax="974" yMax="1229">
      <contour>
        <pt x="325" y="-19" on="0"/>
        <pt x="190" y="67" on="0"/>
        <pt x="115" y="243" on="0"/>
        <pt x="115" y="372" on="1"/>
        <pt x="115" y="505" on="0"/>
        <pt x="156" y="675" on="1"/>
        <pt x="807" y="675" on="1"/>
        <pt x="820" y="757" on="0"/>
        <pt x="820" y="826" on="1"/>
        <pt x="820" y="965" on="0"/>
        <pt x="701" y="1093" on="0"/>
        <pt x="578" y="1093" on="1"/>
        <pt x="514" y="1093" on="0"/>
        <pt x="385" y="1063" on="0"/>
        <pt x="311" y="1038" on="1"/>
        <pt x="288" y="1165" on="1"/>
        <pt x="462" y="1229" on="0"/>
        <pt x="604" y="1229" on="1"/>
        <pt x="778" y="1229" on="0"/>
        <pt x="974" y="1037" on="0"/>
        <pt x="974" y="830" on="1"/>
        <pt x="974" y="732" on="0"/>
        <pt x="948" y="597" on="1"/>
        <pt x="886" y="288" on="0"/>
        <pt x="612" y="-19" on="0"/>
        <pt x="416" y="-19" on="1"/>
      </contour>
      <contour>
        <pt x="263" y="431" on="0"/>
        <pt x="263" y="355" on="1"/>
        <pt x="263" y="241" on="0"/>
        <pt x="346" y="113" on="0"/>
        <pt x="435" y="113" on="1"/>
        <pt x="565" y="113" on="0"/>
        <pt x="732" y="337" on="0"/>
        <pt x="780" y="543" on="1"/>
        <pt x="282" y="531" on="1"/>
      </contour>
    </TTGlyph>
    <TTGlyph name="uni028C" xMin="-27" yMin="0" xMax="875" yMax="1210">
      <contour>
        <pt x="592" y="1210" on="1"/>
        <pt x="749" y="1210" on="1"/>
        <pt x="875" y="0" on="1"/>
        <pt x="707" y="0" on="1"/>
        <pt x="622" y="988" on="1"/>
        <pt x="125" y="0" on="1"/>
        <pt x="-27" y="0" on="1"/>
      </contour>
    </TTGlyph>
    <TTGlyph name="uni02BB" xMin="429" yMin="800" xMax="984" yMax="1438">
      <contour>
        <pt x="511" y="800" on="0"/>
        <pt x="429" y="886" on="0"/>
        <pt x="429" y="965" on="1"/>
        <pt x="429" y="998" on="0"/>
        <pt x="436" y="1033" on="1"/>
        <pt x="469" y="1199" on="0"/>
        <pt x="740" y="1404" on="0"/>
        <pt x="973" y="1438" on="1"/>
        <pt x="984" y="1319" on="1"/>
        <pt x="882" y="1300" on="0"/>
        <pt x="730" y="1239" on="0"/>
        <pt x="649" y="1170" on="0"/>
        <pt x="649" y="1138" on="1"/>
        <pt x="649" y="1124" on="0"/>
        <pt x="669" y="1103" on="0"/>
        <pt x="691" y="1091" on="1"/>
        <pt x="724" y="1075" on="0"/>
        <pt x="759" y="1016" on="0"/>
        <pt x="759" y="980" on="1"/>
        <pt x="759" y="967" on="0"/>
        <pt x="756" y="952" on="1"/>
        <pt x="742" y="883" on="0"/>
        <pt x="645" y="800" on="0"/>
        <pt x="575" y="800" on="1"/>
      </contour>
    </TTGlyph>
    <TTGlyph name="uni02BC" xMin="194" yMin="744" xMax="749" yMax="1382">
      <component glyphName="quoteright" x="-106" y="0" flags="0x0"/>
    </TTGlyph>
    <TTGlyph name="uni0302" xMin="358" yMin="1248" xMax="989" yMax="1643">
      <contour>
        <pt x="613" y="1643" on="1"/>
        <pt x="892" y="1643" on="1"/>
        <pt x="989" y="1248" on="1"/>
        <pt x="847" y="1248" on="1"/>
        <pt x="720" y="1482" on="1"/>
        <pt x="500" y="1248" on="1"/>
        <pt x="358" y="1248" on="1"/>
      </contour>
    </TTGlyph>
    <TTGlyph name="uni0302.case" xMin="403" yMin="1475" xMax="1034" yMax="1870">
      <contour>
        <pt x="658" y="1870" on="1"/>
        <pt x="937" y="1870" on="1"/>
        <pt x="1034" y="1475" on="1"/>
        <pt x="892" y="1475" on="1"/>
        <pt x="765" y="1709" on="1"/>
        <pt x="545" y="1475" on="1"/>
        <pt x="403" y="1475" on="1"/>
      </contour>
    </TTGlyph>
    <TTGlyph name="uni0304" xMin="394" yMin="1320" xMax="1011" yMax="1471">
      <contour>
        <pt x="424" y="1471" on="1"/>
        <pt x="1011" y="1471" on="1"/>
        <pt x="981" y="1320" on="1"/>
        <pt x="394" y="1320" on="1"/>
      </contour>
    </TTGlyph>
    <TTGlyph name="uni0304.case" xMin="442" yMin="1558" xMax="1059" yMax="1710">
      <contour>
        <pt x="472" y="1710" on="1"/>
        <pt x="1059" y="1710" on="1"/>
        <pt x="1029" y="1558" on="1"/>
        <pt x="442" y="1558" on="1"/>
      </contour>
    </TTGlyph>
    <TTGlyph name="uni0306" xMin="431" yMin="1244" xMax="1033" yMax="1593">
      <contour>
        <pt x="551" y="1244" on="0"/>
        <pt x="431" y="1363" on="0"/>
        <pt x="431" y="1468" on="1"/>
        <pt x="431" y="1523" on="0"/>
        <pt x="448" y="1593" on="1"/>
        <pt x="579" y="1581" on="1"/>
        <pt x="571" y="1539" on="0"/>
        <pt x="571" y="1511" on="1"/>
        <pt x="571" y="1454" on="0"/>
        <pt x="630" y="1394" on="0"/>
        <pt x="697" y="1394" on="1"/>
        <pt x="783" y="1394" on="0"/>
        <pt x="885" y="1502" on="0"/>
        <pt x="903" y="1593" on="1"/>
        <pt x="1033" y="1581" on="1"/>
        <pt x="1016" y="1424" on="0"/>
        <pt x="840" y="1244" on="0"/>
        <pt x="677" y="1244" on="1"/>
      </contour>
    </TTGlyph>
    <TTGlyph name="uni0306.case" xMin="476" yMin="1471" xMax="1078" yMax="1820">
      <contour>
        <pt x="597" y="1471" on="0"/>
        <pt x="476" y="1590" on="0"/>
        <pt x="476" y="1694" on="1"/>
        <pt x="476" y="1746" on="0"/>
        <pt x="494" y="1820" on="1"/>
        <pt x="625" y="1808" on="1"/>
        <pt x="617" y="1766" on="0"/>
        <pt x="617" y="1736" on="1"/>
        <pt x="617" y="1680" on="0"/>
        <pt x="676" y="1621" on="0"/>
        <pt x="742" y="1621" on="1"/>
        <pt x="828" y="1621" on="0"/>
        <pt x="930" y="1729" on="0"/>
        <pt x="948" y="1820" on="1"/>
        <pt x="1078" y="1808" on="1"/>
        <pt x="1061" y="1651" on="0"/>
        <pt x="886" y="1471" on="0"/>
        <pt x="723" y="1471" on="1"/>
      </contour>
    </TTGlyph>
</ttFont>
